<?xml version="1.0" standalone="no"?>
<!DOCTYPE svg PUBLIC "-//W3C//DTD SVG 1.1//EN" "http://www.w3.org/Graphics/SVG/1.1/DTD/svg11.dtd" >
<svg xmlns="http://www.w3.org/2000/svg" xmlns:xlink="http://www.w3.org/1999/xlink" version="1.1">
<metadata></metadata>
<defs>
<font id="sugar_plumsregular" horiz-adv-x="899" >
<font-face units-per-em="2048" ascent="1638" descent="-410" />
<missing-glyph horiz-adv-x="573" />
<glyph horiz-adv-x="0" />
<glyph unicode="&#xd;" horiz-adv-x="0" />
<glyph horiz-adv-x="0" />
<glyph horiz-adv-x="0" />
<glyph unicode=" "  horiz-adv-x="573" />
<glyph unicode="&#x09;" horiz-adv-x="573" />
<glyph unicode="&#xa0;" horiz-adv-x="573" />
<glyph unicode="!" horiz-adv-x="382" d="M66 1567q3 47 61 47h10q51 -3 90 -30.5t45 -74.5q-16 -4 -22 -100q-4 -112 -2 -211v-79v-87.5t-0.5 -80t-1.5 -88t-3 -79t-5 -85.5t-7 -74t-9.5 -78.5t-12.5 -67.5q-15 -43 -45 -43q-28 0 -41.5 21t-18.5 63q9 459 -30 961q-6 84 -8 86zM76 43q0 44 21 70t61 26 q39 0 71.5 -27.5t32.5 -60.5q0 -23 -12 -47q-17 -47 -60 -59q-11 15 -32 21t-38.5 7t-30.5 17.5t-13 52.5z" />
<glyph unicode="&#x22;" horiz-adv-x="456" d="M78 1397v4q0 53 6 102q6 53 -4 66q17 33 65 33h2q49 0 72 -29q5 -26 5.5 -50.5t-3.5 -49.5t-8.5 -43.5t-12.5 -46t-12 -42.5q-9 -21 -26.5 -42t-36.5 -21q-47 0 -47 119zM283 1528q0 17 4 41q43 43 75 43q14 0 24 -10t14.5 -31t6.5 -39.5t0.5 -50.5t-2.5 -46.5t-4.5 -46 t-3.5 -32.5q-6 -56 -32 -70q-7 0 -9 -2h-4q-23 0 -37 39q14 55 -14 119q-18 37 -18 86z" />
<glyph unicode="#" horiz-adv-x="851" d="M37 580q0 50 47 79q87 5 133 5h74l8 98q0 2 -0.5 6t-0.5 6.5v6.5t1 7q-16 -2 -47 -2q-101 -3 -115 -30q-65 15 -65 49v4q3 35 39 51q108 11 196 14q1 8 2 15.5t2 15.5q30 290 39 412q24 24 62 24q59 0 59 -51q0 -19 -2 -35q-4 -54 -11.5 -111t-22 -146t-19.5 -119 q43 2 129 2q2 2 2 8q9 158 18 241q13 19 33 19q27 0 45 -33q-3 -24 0 -170v-67q13 -1 47 -2.5t51 -2.5q35 -21 35 -53v-2q-1 -33 -40 -39.5t-93 0.5q0 -88 2 -133q30 -3 93.5 -7t80.5 -5q29 -16 29 -37v-4q-3 -27 -41 -39h-162q1 -24 2 -70.5t2 -68.5v-64q0 -64 -9 -78 q-9 -13 -26 -14q-25 0 -47 15t-32 34q-5 72 -5 113v129h-38q-41 -2 -117 -2q-28 -265 -6 -279q-9 -65 -45 -65h-2q-37 0 -62 31v12q0 36 3 87t8.5 118.5t7.5 93.5q-18 -2 -58 -2h-147q-37 6 -37 35zM387 659q12 -1 66.5 -3t81.5 -3q1 22 3 66.5t3 66.5q-49 0 -74 2h-64 q-11 -81 -16 -129z" />
<glyph unicode="$" horiz-adv-x="638" d="M49 449v18q7 18 23 31t31.5 10.5t21.5 -27.5q-11 -61 37.5 -116t109.5 -48q72 9 115 72q49 82 36.5 158.5t-83.5 132.5q-160 126 -225 256q-27 66 -27 133q0 95 82.5 170t179.5 88q-8 66 -8 166q0 46 10 80.5t33 34.5q30 0 59 -35q5 -40 5 -51q1 -28 -14 -97t-11 -100 q81 -21 136.5 -74t55.5 -135v-2q0 -38 -22 -84q-25 -19 -52.5 -24t-42.5 11t-3 52q22 70 -20.5 129t-106.5 53q-61 -6 -116 -62.5t-54 -121.5q1 -38 20 -75t37 -57t51 -52q26 -24 84.5 -76.5t89.5 -81.5q59 -51 80 -127t-2 -151t-84 -123q-64 -48 -115 -66q0 -25 2 -39 q0 -72 11 -158q6 -46 14 -57q-43 -39 -70 -39q-15 0 -24 9.5t-12.5 29t-4 33t-0.5 37.5v6q0 73 19 162h-35q-82 0 -146.5 63.5t-64.5 143.5z" />
<glyph unicode="%" horiz-adv-x="1099" d="M6 25v10q3 35 57 127q109 187 390.5 591t400.5 619q71 126 59 160q21 24 68 24h14q57 -3 60 -45q3 -3 0 -6q0 -4 -4 -8q-15 -34 -78 -131q-197 -297 -363 -530l-133 -193q-187 -269 -303 -455q-70 -109 -59 -120q0 -67 -60 -70h-6q-43 0 -43 27zM51 1145q0 105 43 188 t115 127q39 25 61 25q30 0 43.5 -36t-2.5 -58q-67 -56 -102.5 -164.5t-9.5 -216.5q24 -102 94 -105q87 -5 149 109q46 91 35 206t-76 169q-18 13 -59 24q-6 14 2 31t18 20q86 -11 133.5 -91.5t47.5 -188.5q0 -118 -46 -201t-130 -117q-43 -16 -91 -16q-109 0 -167 85 t-58 210zM504 352v6q0 79 28 158q28 70 99 125q43 29 65 29q29 0 42 -34.5t1 -57.5q-48 -21 -73 -54q-40 -43 -57.5 -108t-4.5 -140q7 -45 22.5 -88.5t46.5 -78.5t68 -33q60 3 103.5 41.5t63.5 94.5t20 122q2 98 -39.5 166.5t-120.5 81.5q-6 11 1.5 43.5t16.5 33.5 q97 -31 158.5 -123.5t61.5 -211.5v-5q0 -129 -64 -209t-182 -87h-17q-74 0 -130 51.5t-82 124.5t-27 153z" />
<glyph unicode="&#x26;" horiz-adv-x="1118" d="M43 332v16q0 62 18 117q16 49 50 104.5t61.5 89.5t80.5 94.5t71 82.5q-29 71 -43.5 110.5t-30 101t-21.5 121.5q-11 115 32.5 205.5t117.5 145.5q76 55 162 55q96 0 154 -60t61 -159q3 -98 -47 -201q-41 -84 -125 -201q-62 -86 -140 -188l29 -45q146 -212 285 -313 q4 8 6 14q45 91 61 229q-76 -3 -123 -6q-22 3 -16 21q11 19 21 26q170 10 290 10q17 -10 28 -28q11 -21 -15 -23q-14 -2 -64 -2h-76q-18 -153 -67 -272q100 -58 158 -58q37 -3 65 25q70 -15 70 -65q0 -61 -60 -96t-135 -21q-80 12 -166 80q-55 -84 -126.5 -148t-151.5 -90 q-55 -18 -103 -18q-180 0 -272 196q-36 83 -39 150zM217 279q50 -142 182 -142q75 -1 152 42t133 112q-161 159 -295 409q-94 -117 -139 -211q-63 -124 -33 -210zM301 1294q-24 -135 29 -286q15 -41 45 -111q43 54 70 93t58.5 97t47 122t14.5 134q0 111 -63 134 q-40 16 -73.5 5t-60 -42.5t-43.5 -69t-24 -76.5z" />
<glyph unicode="'" horiz-adv-x="227" d="M51 1454v2q0 58 6 107q6 48 -4 61q21 34 68 37h2q48 -3 72 -33q5 -26 5.5 -50.5t-4 -48.5t-9.5 -42.5t-13 -44.5t-12 -43q-9 -22 -26.5 -43t-37.5 -21q-47 0 -47 119z" />
<glyph unicode="(" horiz-adv-x="468" d="M49 887q0 294 63.5 537t190.5 391q20 20 55 20q40 0 71 -19t30 -47v-4q-101 -99 -170 -252t-99.5 -332t-29.5 -376t35 -393q33 -189 100 -371q65 -176 154 -297q-9 -51 -43 -57h-11q-29 0 -55 20q-69 125 -119 248q-172 452 -172 932z" />
<glyph unicode=")" horiz-adv-x="538" d="M86 -240q172 172 248 476.5t45 670.5q-26 265 -97 491t-186 386q9 49 41 55h10q32 0 58 -20q289 -511 289 -1178q0 -295 -63.5 -538.5t-190.5 -389.5q-21 -21 -54 -18q-43 0 -72 16.5t-28 44.5v4z" />
<glyph unicode="*" horiz-adv-x="606" d="M43 1346v6q0 34 68 78q71 47 71 63l-30 76q-35 104 4 95q2 0 4 -1q13 -3 63 -41.5t60 -42.5q12 10 59.5 62.5t48.5 64.5q0 18 10 18q9 0 18 -9.5t13 -18.5q4 -10 -2 -89t4 -83q3 -13 60 -13q92 5 92 -34v-21q-27 -43 -80 -49q-46 -6 -74 -16q-13 -16 -4 -88 q11 -121 -25 -121q-38 0 -75 67q-38 67 -66 84q-22 0 -90 -8q-76 -6 -117 0q-4 0 -8 8t-4 13z" />
<glyph unicode="+" horiz-adv-x="4177" d="M70 807q0 135 60 235.5t161 155.5q186 100 471 -43q140 -70 270 -174q223 -172 563 -508q147 -141 244 -217q59 -46 100 -66q54 -30 92 -9.5t46 81.5q7 59 -5.5 141t-24.5 124.5t-38 125.5q-119 107 -234.5 247t-164.5 251q-31 73 -31 127q0 53 38 90t89 37h12 q50 -5 109 -45q105 -73 195 -234t141 -335q16 -59 35 -158l6 -37q127 -106 290 -209q134 -86 256 -125q128 -42 207 -6q84 44 84 186q-3 127 -32 260l-41 33q-131 111 -226 232q-95 118 -110 207q-16 107 80 159q94 55 196 -55q88 -96 152 -248t92 -323q116 -90 261.5 -181 t260.5 -139q71 -30 131 -39q69 -15 102.5 7.5t8.5 88.5q-70 180 -283 361q-110 90 -176 82q-21 40 -6 76q14 31 37 38q128 -20 272 -114q125 -82 215 -201q86 -112 86 -217v-8q-5 -123 -143 -199q-32 -20 -101 -10q-47 7 -147 43q-105 39 -250 122t-260 165 q6 -285 -160 -381q-56 -27 -110 -27q-59 -3 -133 16q-232 59 -543 293v-6q3 -311 -197 -362q-18 -6 -37 -6q-61 0 -129 36q-34 18 -71.5 42t-66 43.5t-70.5 54.5t-63.5 52.5t-67.5 60t-59.5 55.5t-64 61t-57.5 55q-6 5 -54 51t-59 56t-56.5 52.5t-62.5 57.5t-59 52t-64.5 55 t-61 49t-66 50.5t-61 42.5t-64.5 42q-122 70 -223 90q-123 26 -202.5 -32t-94.5 -174q-20 -131 9 -268t87 -238q56 -96 131 -144q66 -41 134.5 -25.5t122 60t73.5 94.5q16 57 4 104.5t-55 72.5t-95 6q-27 -10 -55 -35q-46 3 -49 30q-3 29 22 60q68 28 115 31q61 0 105.5 -31 t64 -80t17 -109.5t-28.5 -117.5q-28 -55 -80.5 -99.5t-127.5 -66.5t-159 8q-126 44 -213 157t-129 265q-26 96 -26 172zM1651 1231q9 -44 45 -103q68 -106 213 -258l37 -41q-114 264 -195 385q-33 48 -51 66q-29 23 -44 5t-5 -54zM2699 1200q4 -28 23 -63q48 -92 235 -269 q-15 28 -34 81t-23 63q-97 205 -150 227q-16 7 -28 0q-23 -13 -23 -39z" />
<glyph unicode="," horiz-adv-x="210" d="M43 74q19 32 61 32h2q42 -3 64 -28q6 -30 6 -60q-2 -31 -17 -83.5t-18 -65.5q-1 -1 -4.5 -7t-5.5 -9l-6 -9t-7 -9.5t-8 -8.5t-9 -7.5t-9 -4.5t-10 -2q-39 0 -39 108v2q0 11 3.5 48.5t3.5 66t-7 37.5z" />
<glyph unicode="-" horiz-adv-x="630" d="M41 723q0 24 13.5 39.5t37.5 15.5q18 0 90 -16q180 -37 267 -37q50 0 59 20q68 -15 65 -49v-2q-3 -40 -34 -55q-21 -2 -46 -3t-54.5 -1.5t-45.5 -1.5q-97 0 -319 20q-33 20 -33 70z" />
<glyph unicode="." horiz-adv-x="219" d="M31 12q5 34 32 68.5t58 34.5h6q28 -5 48.5 -36t17.5 -67q0 -40 -29 -65t-70 -25q-27 0 -36.5 15t-13 39.5t-13.5 35.5z" />
<glyph unicode="/" horiz-adv-x="1146" d="M41 -43q2 2 2 4q0 27 27 82q20 42 42.5 85.5t39 74.5t47 82.5t44.5 75t54 89.5t55 91q63 106 128 212t128 212q258 419 342 604q48 103 39 131q23 26 72 26h10q59 -3 62 -47q0 -10 -60 -112q-124 -213 -421.5 -696t-434.5 -724q-79 -140 -67 -149q0 -65 -58 -68h-8 q-43 0 -43 27z" />
<glyph unicode="0" horiz-adv-x="1058" d="M82 621v59q0 341 139 594q74 135 185 203q33 21 56 28.5t56 7.5q63 0 91.5 -58t-5.5 -112q-141 -117 -213.5 -361.5t-64.5 -526.5q3 -60 10.5 -113t24 -108t48 -88.5t74.5 -34.5q66 -2 125 30.5t101.5 84t77.5 121.5t56.5 136.5t35.5 134.5q22 100 27 204.5t-7.5 200.5 t-46.5 178t-86 132q-45 42 -109 58q-11 25 5 41q15 15 30 18q119 -16 197 -127q53 -78 81.5 -196.5t28.5 -254.5q0 -215 -61.5 -397t-169.5 -297q-128 -139 -305 -139h-2q-147 0 -242 123q-61 77 -96 197.5t-41 261.5z" />
<glyph unicode="1" horiz-adv-x="626" d="M25 1303v2q0 13 16 26q16 -5 63 25q121 73 168 162q6 43 56 43h2q55 -1 98 -45t51 -103q-45 4 -45 -379q-4 -181 6.5 -533t10.5 -472q20 -2 59 -2q16 2 53 2q19 -15 21 -21v-6q0 -5 -6 -14q-58 1 -492 -4q-6 3 -6 18q0 14 10 21q157 5 182 4q-44 313 -44 701t40 706 q-5 -14 -39 -45q-88 -84 -180 -111q-21 5 -24 25z" />
<glyph unicode="2" horiz-adv-x="1146" d="M96 197q0 83 74.5 132.5t175.5 32.5q45 -8 111 -28q143 302 205 702q26 184 18 285q-2 29 -6.5 52.5t-14.5 47t-24.5 34t-36 13.5t-49.5 -14q-43 -25 -74.5 -68.5t-44.5 -97.5q-18 -66 0 -119q-6 -62 -65 -88q-57 -25 -97 -1t-45 79q15 227 139 316q95 65 203 65 q107 0 168 -47.5t94 -138.5q37 -100 35.5 -234t-25 -246.5t-61.5 -226.5q-55 -172 -137 -311q-15 -22 -33 -55q22 -8 63 -25.5t60 -24.5q134 -58 266 -49q44 -9 47 -41q0 -12 -10 -35q-26 -60 -100 -79q-38 4 -77.5 14.5t-68.5 21.5t-67 31.5t-58.5 32.5t-60.5 37.5 t-55 34.5q-51 -56 -70 -72q-89 -80 -178 -80q-83 0 -142 40.5t-59 109.5zM172 219q15 -67 115 -67q33 1 71 40t66 87q-91 59 -180 34q-87 -25 -72 -94z" />
<glyph unicode="3" horiz-adv-x="847" d="M45 248v20q0 80 29 140q22 31 53 28q34 -7 31 -45q-35 -60 -25 -178t53 -152q11 -8 27 -8q77 -3 156 82q76 87 136.5 221.5t92.5 278.5q16 74 23 145t2 143.5t-36.5 120.5t-88.5 56q-73 12 -136 -33q-33 -23 -90 -55q-35 3 -32 28q0 22 18 66q53 41 120.5 104t108.5 111 q3 4 12.5 14.5t13.5 15.5t11.5 14.5t11 16.5t7 16t4.5 17q-7 10 -76 10q-94 0 -149 -2h-105q-30 2 -82 7q-19 6 -32 28.5t-9 47.5t29 34q194 -10 455 -20q27 -9 52 -36.5t21 -56.5q-13 -83 -114 -184q-34 -37 -58 -49q80 9 145.5 -31t105.5 -112.5t61 -161.5t20 -184v-43 q-9 -238 -111 -381q-75 -107 -162 -172.5t-204 -90.5q-55 -10 -94 -10h-29q-78 9 -121 78t-45 162z" />
<glyph unicode="4" horiz-adv-x="1146" d="M119 727q0 31 20 64q39 80 144 256t141 247q23 45 33.5 67.5t23.5 64.5t13 75q43 49 88 49q52 0 81 -37t44 -104q-16 -32 -42.5 -75t-46.5 -73t-57 -82.5t-49 -70.5q-35 -51 -97 -137t-71 -99q-78 -113 -70 -131q33 -5 154 -2q68 2 215 2q3 86 8 338q0 117 2 162 q27 82 72 82q35 0 72 -63q-30 -27 -33 -127q-3 -105 0 -246q2 -34 6 -144q43 0 133.5 2.5t128.5 2.5q19 -10 19 -25q0 -24 -33 -61q-140 -4 -244 -11q16 -201 19 -403q3 -131 -15 -242q-6 -76 -53 -76h-2q-47 3 -90 66q8 386 8 645q-120 -10 -225 -10q-119 0 -211 14 q-34 3 -60 25.5t-26 56.5z" />
<glyph unicode="5" horiz-adv-x="956" d="M70 301q0 91 57 168q26 29 50 21t24 -50q-31 -57 -37 -84q-19 -100 31.5 -180.5t140.5 -77.5q110 3 192 92q61 68 100.5 175t45 227.5t-34.5 234.5q-31 89 -102 123.5t-156 -14.5q-47 -31 -135 -102q-14 -11 -33 -23q-30 0 -48.5 22.5t-21.5 51.5q-41 189 -22 493 q7 77 23.5 113.5t56.5 36.5q17 0 32 -15q20 -20 56 -24q87 -5 278 -19q125 -9 174 25q63 31 74 -16q13 -55 -55 -64q-116 -34 -260 -24q-157 14 -205 16q-4 -344 -4 -387q167 54 291 45q80 -6 138.5 -51.5t90 -120t45.5 -160.5t14 -190v-2q0 -149 -58 -269.5t-167.5 -192 t-251.5 -71.5q-79 0 -132.5 19.5t-100.5 66.5q-90 90 -90 207z" />
<glyph unicode="6" horiz-adv-x="927" d="M125 537v28q0 203 86 422q58 160 150.5 292t213.5 206q47 28 127 28q82 0 82 -47q2 -11 -8 -32q-13 -33 -92 -78q-65 -34 -131 -109.5t-111 -161.5q-40 -71 -69 -186q79 48 159 45.5t146.5 -38t112.5 -95.5q93 -115 96 -285v-12q0 -52 -13 -119q-49 -195 -182 -313 q-84 -72 -188 -72h-8q-73 2 -134.5 34t-103.5 85.5t-70.5 114.5t-44.5 131q-14 61 -18 162zM332 487q0 -186 53 -325q38 -102 113 -105h6q62 0 111.5 47.5t78 122t43.5 156t15 158.5v6q0 79 -34 154.5t-97.5 125.5t-139.5 50q-50 0 -71 -22t-37 -71q-41 -112 -41 -297z" />
<glyph unicode="7" horiz-adv-x="819" d="M31 1460v10q-3 50 65 68q18 -21 121 -12q216 18 338 18q25 0 39 -2q71 0 133 -12q21 0 34 -14t13 -37q0 -7 -4 -23q-66 -164 -176 -604q-121 -446 -152 -727q3 -41 -15.5 -71.5t-53.5 -30.5q-61 0 -78 98q-7 41 14 158q15 89 34.5 186t46.5 213t44.5 188t51.5 208.5 t44 176.5q37 148 37 162q-45 7 -143 -6q-18 -1 -73 -6t-83.5 -7t-83.5 -3t-73 4q-71 9 -80 65z" />
<glyph unicode="8" horiz-adv-x="743" d="M47 1153v14q0 206 193 322q43 24 86 -6q45 -31 18 -64q-41 -5 -80 -59t-57 -109q-28 -91 -2 -172q8 -34 55 -75q2 -2 46 -38t67 -59q123 143 182 256q25 52 21.5 110t-35.5 99q-27 40 -73.5 74.5t-90.5 40.5q-21 38 -2 57q13 10 26 10q14 0 41 -10q87 -34 164 -102 q53 -47 64 -135.5t-25 -165.5q-59 -124 -203 -295q10 -10 29 -27.5t33.5 -32t27.5 -30.5q152 -180 152 -373q0 -140 -58 -237t-161 -134q-58 -22 -113 -22h-2q-69 0 -126 27.5t-93 75.5t-55 109t-15 131.5t31 139.5q54 146 170 301q-16 19 -59 67t-61 71.5t-44.5 65.5 t-37.5 84t-13 91zM152 283q6 -91 86 -121q51 -17 92.5 -6.5t70.5 46.5t44 82t14.5 101t-19.5 104q-37 99 -118 205q-106 -160 -138 -235q-41 -90 -32 -176z" />
<glyph unicode="9" horiz-adv-x="856" d="M39 1051q0 23 4 77q29 199 158 328q82 82 188 88h17q131 0 235 -108q74 -80 120 -210.5t46 -275.5q0 -219 -73 -422.5t-189 -345.5q-60 -70 -123 -116q-57 -37 -137 -37q-41 -2 -61.5 18t-6.5 55q6 14 35 43q50 51 63 62q77 73 152 180q81 114 119 322q-114 -79 -238 -64 q-138 15 -223.5 128t-85.5 278zM223 1092q0 -101 28 -169.5t91 -119.5t133 -51q58 0 84 17t43 71q20 72 23 155v103q-6 183 -70 311q-44 86 -111 86q-2 -2 -10 -2q-37 -2 -70 -27t-57 -64t-40.5 -80t-26.5 -83q-15 -67 -17 -117v-30z" />
<glyph unicode=":" horiz-adv-x="221" d="M16 51q0 36 19.5 65.5t46.5 33.5h8q31 0 58 -34t32 -67q-9 -11 -13 -33.5t-11.5 -38t-28.5 -18.5h-10q-44 0 -72.5 25t-28.5 67zM35 786q0 31 30 60t62 28q3 -13 15 -21.5t24.5 -12.5t23 -14t11.5 -25q2 -34 -18.5 -66.5t-51.5 -36.5h-6q-30 0 -60 30.5t-30 57.5z" />
<glyph unicode=";" horiz-adv-x="227" d="M43 778v8q-3 31 28.5 61t63.5 30q4 -13 16.5 -22t25 -13t23 -14.5t11.5 -26.5q0 -35 -19.5 -68t-50.5 -33q-2 -2 -8 -2q-30 0 -57.5 26.5t-32.5 53.5zM49 -96q0 50 6 96q3 48 -4 57q20 33 62 33h2q44 0 67 -29q4 -36 4 -53q0 -22 -3.5 -45.5t-6.5 -35t-12.5 -42 t-11.5 -37.5q-33 -59 -60 -59q-43 0 -43 111v4z" />
<glyph unicode="&#x3c;" horiz-adv-x="626" d="M20 647q4 22 60 70q17 14 135 114q92 74 184 154q92 79 103 115q20 4 26 4q42 0 64 -42.5t22 -98.5q0 -17 -4 -37q-29 -21 -88 -62l-104 -67q-4 -3 -180 -121q-86 -58 -91 -74q213 -245 351 -375q13 -27 6 -63t-35 -33h-12q-21 34 -72 90q-29 32 -90.5 100t-113 125 t-89.5 101q-72 84 -72 100z" />
<glyph unicode="=" horiz-adv-x="663" d="M23 500q0 26 14 47t35 33q76 8 188 8q177 0 356 -19q27 -15 27 -34v-7q-3 -24 -39 -36q-81 0 -264.5 -13.5t-265.5 -13.5h-15q-36 6 -36 35zM31 733v4q3 39 37 54q114 15 268 18h86q104 0 190 -6q30 -21 33 -62q0 -52 -51 -61h-4q-50 0 -199.5 17.5t-224.5 13.5 q-61 -3 -70 -25q-65 15 -65 47z" />
<glyph unicode="&#x3e;" horiz-adv-x="649" d="M27 963q0 51 19 91.5t54 49.5h13q4 0 24 -4q8 -26 76 -88q65 -58 141 -123q104 -84 181 -150q83 -71 86 -92h2q0 -9 -52 -74q-80 -95 -288 -321q-81 -87 -99 -119q-4 -2 -10 -2q-30 0 -38.5 35t5.5 63q21 18 46 43.5t56 57.5t46 47q167 180 203 227q-6 15 -91 72 q-39 27 -172.5 115t-197.5 135q-4 20 -4 37z" />
<glyph unicode="?" horiz-adv-x="765" d="M20 1190v14q0 87 57 166.5t145 125.5t177 46q106 0 186 -60.5t113 -146.5q23 -67 23 -121q0 -155 -104 -294.5t-232 -188.5q-55 -18 -77 -77t-13 -138q9 -66 12 -98q-9 -48 -49 -51q-32 0 -52 16.5t-22 42.5q20 23 17 104q-7 226 104 293q101 62 185 187.5t110 255.5 q16 90 -41 148t-149 20q-129 -57 -189 -179q-17 -41 -14 -90q-6 -56 -46 -77t-93 12q-45 33 -48 90zM186 74q5 34 31 68t57 34h11q37 -6 55.5 -54t-2.5 -89q-11 -19 -36.5 -34t-51.5 -15q-27 0 -36.5 15t-13.5 39.5t-14 35.5z" />
<glyph unicode="@" horiz-adv-x="1400" d="M39 741v27q0 272 114.5 460t315.5 261q97 37 242 37q235 0 391.5 -115.5t210.5 -310.5q21 -71 24 -178v-23q0 -184 -80 -338.5t-198 -234.5q-78 -54 -130 -57.5t-93 50.5q-31 38 -41 106t0 134q14 86 10 133q-33 -215 -105 -313q-22 -29 -61.5 -36.5t-79 3.5t-72.5 33 q-71 50 -92 127q-27 125 3.5 241t93.5 205q58 81 112 117.5t144 32.5q78 -3 116 -47q5 -8 -1.5 -23.5t-12.5 -17.5q-55 46 -107 14q-86 -60 -147 -295q-8 -37 -13 -82t-6.5 -99t11.5 -88.5t41 -33.5q9 1 18.5 9t18 24t15 30.5t14.5 38.5t12 37t10.5 36.5t7.5 27.5 q59 189 76 291q10 22 47 39q48 17 84 2t49 -52q-11 -11 -31 -79q-41 -162 -59 -381q-9 -104 12 -113q40 -20 117 57q58 59 105.5 154t74.5 199q45 196 -31.5 373t-216.5 268q-55 36 -128 56.5t-158 18.5t-154 -34q-167 -72 -256 -255.5t-80 -435.5q6 -132 53 -241 q46 -121 131.5 -222t196.5 -153q226 -106 492 4q51 7 49 -23q-3 -28 -37 -58q-4 -4 -8 -7q-171 -47 -305 -47h-39q-329 18 -492 233q-170 213 -178 514z" />
<glyph unicode="A" d="M41 776v60q6 300 33 503q17 131 17 188q0 32 -5 40q14 22 37 22q29 0 55.5 -23t28.5 -42q13 -51 22 -236q11 -204 11 -213q3 -96 10 -100q40 201 141 416q37 79 84 135q30 38 67 50q17 5 33 5q19 1 37 -7q34 -14 64 -45.5t49 -74.5q65 -149 87 -369t22 -514v-145 q-1 -44 -7 -252v-96q0 -35 4 -55q-21 -41 -86 -41q-111 0 -147 71q-16 98 -16 244v47q0 103 2 156q-15 0 -21 -2q-125 -14 -278 -58q0 -8 2 -12q13 -119 24 -369q-10 -26 -58 -26q-20 0 -46 4q-93 15 -109 82q-57 311 -57 657zM258 827q10 -214 23 -342q7 2 42 11t54 14 q104 22 205 33h2q2 78 7 214q5 137 9 233q3 84 3 188q-1 15 -1 30q0 122 -6 217q-6 118 -37 121h-2q-30 0 -74 -76q-98 -172 -182 -456q-39 -124 -43 -187z" />
<glyph unicode="B" horiz-adv-x="974" d="M72 702v33q2 232 26 680q1 30 1 53q0 38 -3 54q5 50 35 50q7 0 16 -3q48 -15 66 -43q34 -100 55.5 -238.5t24.5 -265.5q3 -91 12 -98q12 12 33 139q48 267 135 420q28 51 64.5 76.5t91.5 25.5q91 -1 155 -77q61 -73 60 -159v-8q-2 -163 -101 -337q-77 -136 -163 -213 q-90 -83 -99 -95q35 6 82 6q89 -3 154.5 -26.5t128.5 -71.5q84 -66 90 -211v-31q0 -192 -113 -264q-64 -40 -152 -40q-78 0 -175 32q-35 11 -35 53q4 48 16 68h15q8 -3 14 -12q-4 -31 14 -48t58 -22q13 -1 25 -1q134 0 145 153q1 23 1 44q0 38 -4 75q-7 57 -27.5 107 t-53 84.5t-82.5 51.5q-35 12 -77 12q-17 0 -36 -2q-90 -9 -123 -28q2 -55 12 -285q10 -210 9 -312v-18q-12 -28 -60 -28q-70 0 -125.5 30t-62.5 82q-47 329 -47 608zM340 698q20 -4 29 -4q23 0 44 11t31 24q79 119 137.5 305t73.5 361q2 16 2 47q0 98 -41 98q-32 0 -90 -108 q-72 -141 -124 -339.5t-62 -394.5z" />
<glyph unicode="C" horiz-adv-x="770" d="M47 770v23q0 139 39 325q44 194 135 316q101 135 232 135q257 0 258 -325q0 -37 -4 -79q-2 -7 -9.5 -15.5t-17 -14.5t-19 -9t-17.5 3t-11 20q11 47 11 98q0 12 -1 23q-3 63 -16 117t-48.5 91t-86.5 42h-3q-63 0 -100 -127q-72 -243 -72 -631q0 -124 39 -299 q30 -148 90 -275q56 -125 121 -125q41 0 66 73t31 151q4 47 4 87q0 27 -2 52q11 20 33.5 11.5t25.5 -27.5q0 -49 -6 -160q-11 -178 -98 -238q-28 -22 -68 -22h-12q-154 0 -275 121q-106 112 -160 286q-56 183 -59 373z" />
<glyph unicode="D" horiz-adv-x="1011" d="M92 741v99q0 88 10 344q5 147 5 252q0 78 -3 133q14 22 37 22q28 0 57 -24t31 -41q16 -55 35 -242q4 -43 25 -217q9 -99 12 -102q4 13 28 92.5t33.5 109.5t34.5 99t44 106.5t47 83t57 74.5q51 51 101 51h7q46 -4 84.5 -22.5t67 -45t52 -67.5t39 -81t27 -95.5t18.5 -102 t11 -108.5t6 -107t4 -106v-10q0 -72 -18 -211q-14 -142 -58.5 -267t-115.5 -200q-74 -77 -169 -77q-39 0 -81 13q-28 8 -41 44q-6 17 -6 34q0 19 8 37q15 4 31 -8q-4 -17 9.5 -38.5t27.5 -23.5q10 -2 20 -2q32 0 59 24q35 32 55 91.5t35 136.5t19.5 156.5t8.5 151.5 q2 34 1 62q0 33 -2 60q-25 406 -55 598q-19 117 -47 129q-3 1 -7 1q-27 0 -73 -74q-100 -169 -198 -457q-47 -140 -50 -187q9 -93 27 -250t20 -173q15 -166 15 -337v-57q-9 -28 -64 -28q-92 0 -147 49l-21 18q-6 8 -10 27q-36 279 -43 663z" />
<glyph unicode="E" horiz-adv-x="727" d="M61 598v41q0 234 43 465q52 264 136 465q21 18 53 18q47 0 86 -35q32 -14 107.5 -13.5t195.5 13.5q15 0 18 -10v-6q0 -4 -4 -12q-72 -33 -166 -39q-77 -3 -129 -15q-5 -12 -8.5 -31t-6.5 -49.5t-5 -41.5q-46 -408 -62 -811q-1 -38 -1 -67q0 -77 6 -91q7 -7 29 -7 q25 0 71 9q87 19 141 51q15 0 20.5 -11.5t2.5 -25.5t-10 -22q-62 -42 -138 -51q-64 -8 -102 -17q-6 -8 -6.5 -22t3 -33t7 -33t9.5 -34t7 -23q7 -31 27 -66q15 -31 27 -33h5q56 0 249 86q12 -15 0 -36q-64 -37 -150 -72q-15 -7 -40.5 -18t-33 -14t-24 -8t-30.5 -6t-36 -1 q-69 0 -132.5 22.5t-84.5 57.5q-71 246 -74 526z" />
<glyph unicode="F" horiz-adv-x="659" d="M47 604q0 230 37 455q36 247 100 477q12 31 80 31h6q57 0 154 -11q13 -1 41 -4t47 -5t42.5 -1.5t39.5 4.5q24 3 24 -14v-2q-2 -26 -40 -32q-19 -3 -40 -3q-20 -1 -44 3q-46 6 -90.5 7t-61.5 -10q-16 -36 -25 -180q-4 -81 -9 -289.5t-9 -288.5q8 -8 29 -8q25 0 67 11 q78 21 117 38q27 9 43 -10q12 -22 -6 -31q-14 -9 -49.5 -18.5t-65 -15.5t-76.5 -14t-53 -9q-3 -6 -3 -47q0 -25 1 -62q8 -324 82 -481q0 -54 -47 -85.5t-109 -31.5h-14q-50 3 -90 43q-78 260 -78 584z" />
<glyph unicode="G" horiz-adv-x="909" d="M68 748q0 228 70 421.5t188 311.5q100 100 221 100h8q55 -2 94.5 -23t63 -54t37 -84t17.5 -102q3 -40 3 -90v-26q0 -25 -21 -37.5t-36 13.5l-6 145q-2 43 -9.5 79.5t-23.5 70t-43 53.5t-64 22h-4q-61 0 -104 -86q-56 -106 -83 -277q-24 -159 -24 -317v-24q2 -169 23 -340 q24 -199 76 -326q54 -143 141 -143q50 4 72 264q11 112 14 242q2 57 2 87.5t-2 33.5q-16 4 -62 -0.5t-53 -4.5q-24 -3 -35.5 4.5t-9.5 22.5q0 51 122 51q25 0 56 -2q33 -3 65.5 -3t65.5 3q43 3 43 -28v-3q0 -36 -76 -36h-16h-8q-29 0 -45 -4q2 -21 2 -57q0 -76 -10 -220 q-10 -111 -35 -258q-21 -122 -51 -137q-21 -15 -66 -15q-63 0 -127.5 21t-101.5 53q-151 142 -213 346q-55 174 -55 353z" />
<glyph unicode="H" horiz-adv-x="868" d="M63 594q0 342 138 782q19 63 24 113q18 24 49 24q42 0 71 -32t32 -72q-48 -239 -58 -469q-3 -70 -3 -139q0 -161 16 -326q245 18 313 31l2 55q8 208 31 465q25 243 45 524q17 24 41 21q31 0 50.5 -13t19.5 -34v-8q-69 -442 -76 -1000q-2 -75 -2 -145v-70q2 -103 14 -184 q3 -44 12 -56q-14 -26 -55 -32h-6q-37 0 -57 41q-19 198 -19 368v29q-34 -9 -76.5 -15t-71.5 -8t-82.5 -5t-78.5 -5q25 -221 55 -360q0 -34 -50 -62t-93 -28q-77 0 -96 63q-89 250 -89 547z" />
<glyph unicode="I" horiz-adv-x="606" d="M27 1540q0 11 10 21q29 2 86 2q50 0 161.5 -2t149.5 -2q12 0 16.5 -4.5t1.5 -11.5t-7 -12.5t-9 -10.5q-14 -1 -29 -1q-30 0 -65 3q-38 3 -47 0q13 -81 37.5 -230.5t39.5 -241t32.5 -232.5t24.5 -251q7 -103 7 -229v-18q0 -137 -14 -267q41 0 99.5 -7t58.5 -23 q0 -5 -7 -12t-14 -11q-108 7 -285 23q-43 4 -86 4q-58 0 -118 -7q-9 9 -9 21q0 7 9 16q12 1 65 5q25 2 41 2q18 0 25 -3q-7 124 -11 306v307q1 101 4.5 272.5t4.5 239.5q2 84 2 152q0 114 -6 184q-5 -2 -28 -2q-19 0 -49 2q-68 2 -81 2q-13 7 -10 16z" />
<glyph unicode="J" horiz-adv-x="851" d="M43 373v14q3 144 14 256q3 34 37 19t37 -50q-12 -54 -22 -144q-9 -81 -9 -140v-11q0 -48 6 -88.5t21 -78t39 -58t60 -28.5q10 -2 22 -2q28 0 63 14q50 16 78 151q36 162 49.5 374t16.5 509t8 412q-10 1 -26 1q-35 0 -99 -3q-92 -5 -121 -9q-9 7 -15 17t-2 20t23 13 q47 2 148 2q204 0 413 -11q29 3 29 -12v-2q-3 -19 -22 -27q-27 1 -115 6t-123 5q100 -419 100 -811q0 -79 -4 -156q-12 -254 -119 -416q-36 -58 -114.5 -95t-167.5 -42h-27q-58 0 -80 14q-27 18 -47 54q-51 108 -51 303z" />
<glyph unicode="K" horiz-adv-x="1079" d="M43 150q23 120 37 272q22 317 22 562q0 210 -16 368q-7 57 -14 82q-6 32 -17 32v11q-1 37 17 59q20 25 65 25q30 0 53 -29q0 -22 4.5 -47t13.5 -59t13 -52q79 -330 94 -602q82 6 158 113q166 229 275 604q8 41 34 41q27 0 50.5 -22.5t37.5 -51.5q5 -39 5 -77.5 t-4.5 -73.5t-12.5 -67t-20 -63.5t-24 -59t-30 -56t-33 -51.5t-36 -50t-37 -46t-37 -44q-74 -81 -121 -120q-54 -45 -61 -56q6 -8 47 -125q77 -225 182 -379q87 -133 188 -133h7q46 3 100 54q25 12 38 4t13 -33q0 -37 -48.5 -59.5t-92.5 -22.5h-16q-64 6 -125 43 q-209 124 -377 510q-42 101 -43 106h-15q-6 -309 -86 -528q-26 -66 -90 -66h-14q-75 9 -84 87z" />
<glyph unicode="L" horiz-adv-x="681" d="M53 41q62 589 107 944q34 272 34 445q0 74 -6 129q15 24 41 24q29 0 56 -16q68 -41 86 -146q22 -93 29 -235q5 -104 5 -180q-1 -27 -1 -51q-2 -90 -9 -259q-23 -410 -63 -633q117 17 180 23q45 4 75 4q37 0 52 -6q14 -8 14 -23q0 -11 -10 -18q-75 0 -108.5 -0.5 t-96.5 -7.5t-94 -21q-73 -39 -160 -39q-49 0 -86.5 16.5t-44.5 49.5z" />
<glyph unicode="M" horiz-adv-x="1376" d="M45 508q0 136 7.5 282.5t24 359.5t19.5 263q2 43 2 109q0 47 -8 55q11 35 51 35q79 0 113 -70q21 -253 29 -655q3 -127 6 -139q18 130 112 432q19 64 60 159q24 66 53 111q16 25 59 25q51 0 87 -38.5t42 -93.5q1 -22 5 -157q0 -143 2 -223q0 -84 2 -125v-119q1 -31 2 -91 t2 -85q3 -73 4 -74q1 1 2 4t3.5 10t4.5 13q2 9 8.5 31.5t10.5 35.5q107 469 243 711q62 112 150 178q25 18 51 18q28 0 58 -22q56 -42 71 -92q8 -44 8 -131q0 -182 -32 -523t-37 -462q0 -22 -1 -41q0 -98 13 -146q3 -33 -18 -49t-62 -16q-51 0 -89.5 32.5t-45.5 81.5 q-5 99 -5 200q0 198 20 402q30 308 89 535q31 110 31 149q0 16 -6 19q-4 1 -8 1q-33 0 -76 -60q-147 -221 -281 -725q-34 -124 -55 -232q-12 -50 -48 -69q-15 -8 -35 -8q-25 0 -58 14q-49 26 -58 61q-23 91 -27 233q-2 71 -2 131t2 108q4 96 15 251q6 74 6 182q0 82 -14 82 h-1q-25 0 -71 -114q-76 -198 -147 -484q-24 -109 -27 -143q2 -38 13 -165t12 -206q-10 -50 -47 -100q-53 -58 -129 -68q-9 -1 -17 -1q-55 0 -63 52q-25 153 -25 361z" />
<glyph unicode="N" horiz-adv-x="929" d="M41 379v6q0 120 7 267t14.5 251.5t21 272.5t18.5 241q2 39 2 67q0 56 -8 66q23 45 70 45q71 0 98 -65q27 -258 27 -460q0 -124 -10 -226q11 21 28 71t21 60q116 281 288 469q22 22 46 31q15 3 30 4q49 0 89 -37q53 -47 61 -111q14 -80 14 -194v-37q-2 -139 -11.5 -237 t-21.5 -236t-14 -228q-1 -26 -1 -49q0 -197 60 -246q4 -16 4 -22q0 -39 -31 -61.5t-75 -22.5h-18q-74 6 -103 51q-30 45 -46.5 113t-18.5 154q-1 34 -1 66q0 48 2 91q3 72 11 166q10 116 41 345t37 284q6 58 6 92q-3 35 -12 35q-3 1 -7 1q-47 0 -118 -116 q-136 -213 -219 -453q-30 -87 -39 -139q-2 -20 -1.5 -44t1.5 -52q0 -64 4.5 -189t5.5 -170v-37q0 -87 -12 -124q-19 -40 -83 -40q-12 0 -26 1q-85 9 -106 80q-25 103 -25 266z" />
<glyph unicode="O" horiz-adv-x="960" d="M55 643q0 125 8 213q28 458 226 631q88 76 231 76q44 0 64 -2q87 -12 166 -138q69 -107 114.5 -281t46.5 -343v-15q0 -202 -48 -374t-136 -289q-88 -122 -223 -125h-10q-94 0 -166.5 29.5t-120 84t-77 120.5t-48.5 151q-25 122 -25 242q-2 8 -2 20zM299 752 q0 -318 84 -568q50 -135 131 -141h16h5q101 0 161 119q115 239 115 643q2 2 2 6q-9 331 -115 584q-52 119 -110 125h-8q-64 0 -125 -107q-71 -130 -113.5 -303.5t-42.5 -357.5z" />
<glyph unicode="P" horiz-adv-x="970" d="M80 473v57q0 410 47 746q21 169 21 234q0 13 -1 22q6 47 35 47q24 0 46.5 -18t33.5 -35q30 -97 40 -227q6 -70 5 -138q0 -58 -4 -114q-2 -27 -2 -45q0 -38 8 -44q15 15 43 127q68 250 164 390q49 67 100 84q20 5 41 5q31 0 63 -12q54 -20 90 -52.5t60 -69.5 q26 -40 37 -78q13 -32 13 -66q0 -89 -64 -207q-50 -92 -133 -188q-116 -141 -242 -232q-107 -82 -155 -82q-6 0 -11 1v-43q0 -129 15 -252q13 -101 13 -185q0 -40 -3 -75q-3 -39 -45 -39q-43 0 -88 21t-76 50q-27 25 -31 62q-17 176 -20 356zM311 662q9 -19 29 -19 q21 0 51.5 19.5t42.5 31.5q109 94 199 346q74 194 74 353q0 112 -52 131h-4q-29 0 -98 -113q-86 -145 -153.5 -348t-88.5 -401z" />
<glyph unicode="Q" horiz-adv-x="931" d="M47 719v31q0 45 4 151q24 318 160 514q95 142 283 148h6q125 0 209 -140q62 -104 94 -280t39 -371v-49q0 -173 -33.5 -326t-95.5 -262q-1 -2 -5.5 -6.5t-5.5 -7.5q6 -7 33 -38t38.5 -43.5t33.5 -33.5t41 -35q30 -24 33 -43q0 -13 -19.5 -23.5t-32.5 -8.5q-11 0 -24 10 q-24 16 -50.5 41.5t-56.5 60t-45 49.5q-31 -31 -62.5 -40t-92.5 -9q-122 0 -213 66q-117 88 -176 255t-62 390zM315 737q3 -75 19 -164q40 -244 139 -417q54 -99 97 -99h3h5q23 3 51 31q-2 2 -18 23t-28.5 36.5t-29 34.5t-28.5 29t-17 8q-16 22 -16 35q0 12 10 20.5t22 8.5 q11 0 20.5 -2.5t19.5 -9t17 -11t17 -15.5t13.5 -14.5t14 -17t11.5 -14.5q19 -27 33 -43q82 163 118 469q9 77 9 141v8q-2 142 -19.5 265t-62 239.5t-113.5 173.5q-46 37 -108 37h-2q-77 0 -115 -119q-62 -192 -62 -469v-164z" />
<glyph unicode="R" horiz-adv-x="1099" d="M61 590q0 356 58 700q26 153 26 227q0 22 -2 37q9 45 35 45q25 0 47.5 -17t32.5 -34q42 -145 42 -399q0 -41 -1 -86q-2 -25 -1.5 -44.5t1.5 -33.5q0 -29 6 -35q9 9 47 121q79 237 183 371q48 63 100 80q25 7 49 7q24 1 50 -7q50 -14 87 -48t64 -74.5t41 -80.5 q10 -33 10 -66v-14q-12 -123 -125 -262q-52 -59 -94 -94q-114 -102 -234 -170q54 -35 107 -113q28 -44 85.5 -143.5t90.5 -149.5q15 -24 26.5 -40t31 -39t38.5 -36t42.5 -23.5t51 -8.5t56.5 16q13 5 22 5q27 0 27 -38v-2q-1 -24 -21 -40t-48.5 -22.5t-63.5 -6.5 q-54 0 -101 24q-58 28 -109.5 77t-91.5 107t-76.5 115.5t-80.5 117.5t-88 99q-15 13 -51 31q-19 -4 -25 -2v-25q0 -120 25 -282q14 -87 14 -161q0 -62 -10 -116q-3 -37 -45 -37q-43 0 -88 21.5t-74 50.5q-32 29 -35 60q-31 228 -31 438zM309 705h17q26 0 57 12t45 24 q110 97 207 320q62 139 84 272q6 30 6 60q-3 78 -49 96q-2 2 -6 2q-16 0 -41 -25q-42 -42 -74 -86q-86 -126 -156.5 -311.5t-89.5 -363.5z" />
<glyph unicode="S" horiz-adv-x="870" d="M61 291q0 63 15 133q39 41 74 41q17 0 34 -10q33 -20 33 -55q0 -19 -10 -42q-23 -52 -23 -106v-10q2 -60 22 -109t63 -81t100 -34q74 0 127 60q58 56 90 160q17 54 16 103q0 45 -14 87q-15 49 -41 94q-39 70 -114.5 161.5t-143.5 181.5t-103 177q-29 78 -29 151 q-1 53 15 104q36 120 133 184q130 86 281 86q137 0 207 -107q53 -79 53 -172q0 -19 -4 -51q-21 -43 -58 -43h-4q-32 0 -41 43q9 31 9 69q0 23 -3 48q-7 73 -47 122q-38 46 -102 46h-8q-77 0 -139 -62q-44 -42 -76.5 -114t-36.5 -142q0 -79 55 -168q44 -70 125 -168 q160 -181 225 -356q25 -74 27 -152v-10q0 -72 -25 -137q-16 -39 -53 -88q-56 -64 -141 -105.5t-182 -44.5q-139 0 -222.5 86t-83.5 230z" />
<glyph unicode="T" horiz-adv-x="681" d="M31 1536q-3 14 28 20h113q329 0 467 -18v-12q0 -14 -7 -20t-26 -7q-23 2 -92 8.5t-115 10.5q55 -389 63 -781l2 -78q0 -340 -48 -624q-27 -27 -66 -27h-6q-57 3 -104 36.5t-54 82.5q8 2 13.5 12t9 28.5t5 30.5t3.5 37t2 29q14 132 23 297.5t16.5 396t11.5 308.5 q9 163 21 247q-15 3 -53 3q-28 0 -69 -2q-57 -3 -92 -2q-23 0 -36 1q-10 10 -10 23z" />
<glyph unicode="U" horiz-adv-x="1028" d="M51 1538q19 57 92 57q50 0 91 -25.5t59 -62.5q39 -181 39 -661q2 -123 2 -357q0 -168 12 -276q11 -119 41 -123h3q51 0 120 96q119 156 195 367q22 65 22 111q5 66 15 235.5t22 291.5t33 218q12 47 73 47h6q60 0 89 -55q-49 -435 -66 -625q-15 -164 -15 -314 q0 -68 3 -134q9 -201 71 -336q-16 -25 -47 -25q-35 0 -69 25t-31 45q-40 134 -63 319q-15 88 -15 150q-40 -120 -108 -244t-142 -188q-35 -31 -74 -37q-11 -2 -22 -2q-27 0 -51 11q-34 15 -61.5 37t-47.5 50q-49 72 -82 176.5t-49.5 235t-23 242t-9.5 257.5q-5 139 -5 239 q0 43 1 79q0 143 -8 176z" />
<glyph unicode="V" horiz-adv-x="1077" d="M57 1501q9 86 95 86q85 0 152.5 -54t82.5 -130q27 -100 47 -236q14 -91 29 -208.5t24 -203.5t23.5 -226.5t21.5 -202.5q8 -87 17 -113q5 0 9.5 8t9.5 25t8.5 29t8 33t5.5 24q3 11 26.5 110.5t29.5 124t28 114.5t32 127.5t30.5 114t35.5 123t34 106t38 108.5 q60 153 133 241q11 9 28 2t17 -22t-14 -35q-32 -8 -70 -92q-64 -151 -120 -361t-111.5 -452t-96.5 -379q-38 -121 -59 -129q-46 -19 -80 -19q-44 0 -72.5 22t-42.5 61t-21 77.5t-13.5 88.5t-14.5 77q-25 111 -62.5 367.5t-58.5 359.5q-22 120 -59 264q-30 117 -68 158 q-2 6 -2 12z" />
<glyph unicode="W" horiz-adv-x="1370" d="M35 1571q21 55 94 55h2q63 0 111.5 -34t52.5 -91q-48 -258 -48 -543q0 -46 1 -92q3 -249 33 -456q8 -48 16 -99t10.5 -68.5t3.5 -17.5q18 0 35 78q14 70 48.5 284.5t70.5 357.5t90 245q16 32 56 44q19 5 37 5q20 0 42 -7q40 -13 55 -46q13 -23 13 -49q-3 -72 -3 -146 q-1 -135 9 -275q14 -218 47 -392q8 -47 15.5 -83t22 -87.5t35.5 -79.5t46 -27q9 3 12 53q0 686 168 1252q6 18 20 32q24 33 73 47q27 8 55 8q21 0 42 -5q64 -15 64 -53q0 -11 -4 -23q-19 -36 -37.5 -98.5t-27 -103t-25.5 -136.5t-21 -115q-11 -57 -51 -290.5t-65 -346.5 q-24 -121 -62 -202q-22 -38 -52.5 -57t-78.5 -25q-42 0 -66 30q-113 128 -153 480q-13 125 -23 479v69l-4 29q-6 0 -26 -82q-7 -28 -82.5 -329.5t-114.5 -438.5q-18 -54 -77.5 -87.5t-127.5 -33.5h-9q-73 0 -87 47q-21 59 -36 161.5t-22 191t-14 202.5q0 9 -0.5 13.5t-1 12 t-0.5 13.5l-12 203q-8 211 -29 490q-9 123 -20 137z" />
<glyph unicode="X" horiz-adv-x="1028" d="M55 1452q0 35 25 66.5t55 31.5q12 0 27 -6q31 -48 110 -148t101 -130q113 -156 223 -342q229 378 307 503q16 23 41 23q23 0 40 -12t17 -29q0 -4 -2 -6q-165 -218 -350 -576q196 -365 246 -680q2 -8 2 -20q0 -53 -40 -86t-95 -33q-40 0 -53 25q-68 228 -156 461 q-9 22 -18.5 46t-18.5 46q-17 -30 -33 -60t-34 -59q-125 -223 -287 -369q-20 -20 -39 -20q-18 0 -30.5 10.5t-14.5 24.5q0 6 2 10q26 10 98 115q82 122 289 467q-37 90 -123 270q-121 239 -276 432q-13 23 -13 45z" />
<glyph unicode="Y" horiz-adv-x="837" d="M39 1468v27q0 31 2 41q15 35 47.5 59.5t75.5 24.5q31 0 41 -29q44 -459 117 -731q37 -134 77 -137h1q55 0 104 77q50 78 55 142q44 238 113 473q21 61 78 70q6 1 11 1q46 0 54 -50q-34 -89 -53 -213.5t-33 -320.5t-20 -251q-28 -302 -72 -510q-29 -134 -80 -198 q-10 -13 -37 -13q-25 0 -88 17q-89 27 -89 77q0 7 1 13q24 -4 44.5 16.5t39.5 67.5q37 89 64 217q10 49 20 112.5t15.5 110.5t14.5 121.5t13 108.5q2 18 2 38q-19 -48 -45 -94q-34 -61 -121 -61q-73 3 -131 76q-94 116 -152 312.5t-69 405.5z" />
<glyph unicode="Z" horiz-adv-x="872" d="M55 135q0 17 2 25q14 58 46 141.5t51 126.5t74.5 162.5t58.5 126.5l84 182q87 178 202 449q50 118 50 145q-6 2 -16 2q-36 0 -113 -25q-91 -29 -220 -38q-48 0 -57 49q-4 23 6 33t37 8q40 -8 83 -8q60 0 124 16q114 28 242 37h2q31 0 69.5 -34.5t38.5 -72.5 q0 -30 -16 -61q-202 -356 -400 -936q-51 -145 -79 -258q-18 -80 -18 -112q0 -13 3 -17q6 -9 62 -6q73 5 282 39q21 4 46 8l37.5 6t17.5 4q17 -6 23.5 -19t-11.5 -26q-326 -29 -571 -70q-20 -4 -33 -4q-45 0 -76 39.5t-31 87.5z" />
<glyph unicode="[" horiz-adv-x="4597" d="M12 1028q0 136 92 234q57 62 149 102.5t202 36.5q83 -3 215 -33q221 -53 504 -170q250 -106 802 -362.5t838 -374.5q332 -134 602 -213q281 -81 502 -72q243 12 364 160q174 217 142 491q-24 158 -99.5 283.5t-185.5 200.5q-103 72 -209 69q-118 -1 -212 -75.5 t-138 -176.5q-52 -118 -21 -210q30 -102 142 -142q30 -12 53 -12q46 0 70.5 29.5t19.5 74.5q-6 69 -82 99q-42 43 -13 69.5t85 10.5q70 -23 111.5 -87t27.5 -149q-9 -64 -54.5 -103.5t-109.5 -44t-139 16.5q-85 27 -144.5 83.5t-84.5 144.5t12 202q42 142 164.5 236 t294.5 104h26q150 0 283 -88q136 -94 220.5 -257.5t84.5 -367.5q0 -150 -42 -267.5t-124 -227.5q-82 -108 -201.5 -155.5t-298.5 -47.5q-159 0 -323 35q-155 32 -320.5 84t-347 125.5t-302.5 127.5t-312 142q-97 46 -355.5 172t-405.5 196t-361.5 163.5t-382.5 154.5 q-290 105 -431 59q-74 -24 -124.5 -73t-70.5 -126t15 -177q63 -182 223 -275q57 -30 122 -33t116 33q65 53 53 131q-15 79 -86 58q-54 0 -63 82q-9 81 39 96q94 25 147 -19q44 -32 56 -99t-3.5 -133t-46.5 -112q-77 -124 -207 -119q-140 5 -270 107q-87 70 -147 170.5 t-60 218.5z" />
<glyph unicode="\" horiz-adv-x="1146" d="M29 1679q3 44 57 47h14q45 0 68 -26q-6 -16 8 -51q13 -41 39 -97q25 -51 55 -107.5t70.5 -127t65.5 -112.5t77.5 -128.5t67.5 -111.5l256 -424q105 -172 211 -361q55 -97 72 -137q26 -60 26 -82q2 -2 2 -4q0 -27 -45 -27h-6q-56 3 -59 68q2 6 1 14t-10 26.5t-15.5 31 t-16 29t-11.5 20.5q-46 89 -147 256q-106 179 -347.5 570.5t-350.5 576.5q-82 140 -82 157z" />
<glyph unicode="]" horiz-adv-x="3723" d="M51 422v6q0 48 24 101t71.5 89t103.5 27q63 -9 86 -65q16 -22 -8 -48t-45 -16q3 47 -37 62q-36 14 -59.5 -12t-29.5 -66t1 -72q14 -80 76 -136t151 -52q109 6 231 82q129 80 238 198l20 23q-77 185 -111 409.5t1 436.5q32 213 154 301q61 41 124 41q25 0 62 -11 q95 -32 152 -133.5t55 -236.5q-5 -267 -162 -570q-52 -98 -133 -211q112 -279 272 -426q112 -103 250 -112q73 -6 143 12t127.5 55t102 78t84.5 90q-123 184 -172 377q-60 221 -23 412q50 224 180 288q108 56 218 -26q89 -67 118.5 -216t-4.5 -308q-50 -238 -180 -435 q104 -145 255 -254t325 -147q228 -48 436 35q97 36 177 140.5t125.5 233.5t59.5 263q15 171 -19 304.5t-123 222.5t-226 114q-97 15 -168 -41q-76 -55 -64 -146q12 -83 82 -86q69 -3 133 76q12 12 25 12q23 4 33 -18.5t8 -54.5q-3 -51 -39 -60q-73 -49 -139 -45.5t-114.5 52 t-55.5 120.5q-6 58 17 114t63.5 95.5t98 59.5t116.5 10q231 -35 357 -207.5t126 -441.5q0 -208 -69 -376t-189 -284q-80 -83 -195 -125q-213 -82 -397 -82q-245 0 -430.5 103t-312.5 272q-166 -195 -365 -248q-68 -20 -135.5 -20.5t-126 17.5t-111.5 46t-99.5 68t-83.5 79 t-69 83q-77 101 -123 204q-92 -101 -184 -168t-205 -106q-163 -56 -290 -6q-80 34 -131 100.5t-54 155.5zM903 1090q14 -199 78 -418q149 215 211 415q28 87 38.5 177.5t-7.5 179t-72 129.5q-33 27 -65.5 31.5t-59 -11t-46.5 -38.5t-34 -52q-66 -132 -43 -413zM1949 914 q1 -98 21 -193q40 -165 121 -299q1 -2 2 -5.5t2 -4.5q83 130 130 295.5t30 332.5q-14 151 -86 201q-58 46 -123 -10q-46 -39 -72 -129t-25 -188z" />
<glyph unicode="^" horiz-adv-x="860" d="M25 1100v6q0 17 8 33q36 6 104 86q73 80 137 161q20 24 54 64t47 55q48 57 61 54q16 0 76 -84q41 -58 125.5 -184.5t97.5 -145.5q48 -66 70 -82v-6q0 -33 -37.5 -37.5t-62.5 12.5q-16 21 -34.5 48.5t-31 47.5t-34.5 57.5t-29 50t-31.5 57t-26.5 48.5q-39 70 -51 82 q-20 -3 -59 -77q-41 -76 -65 -119t-68 -109.5t-82 -107.5q-6 -2 -23 -2q-50 0 -95.5 26.5t-49.5 65.5z" />
<glyph unicode="_" horiz-adv-x="841" d="M18 4v4q0 25 31 47q6 0 44.5 3.5t62.5 4.5q17 1 172 6.5t237 6.5h25q130 0 190 -8q18 -6 31.5 -22.5t13.5 -37.5q0 -29 -59 -43q-11 14 -100 17q-101 2 -305.5 -7.5t-280.5 -9.5h-12q-47 9 -50 39z" />
<glyph unicode="`" horiz-adv-x="313" d="M41 1589q0 29 29 55.5t59 26.5h10q11 -8 21 -16t19.5 -19t16 -17.5t15.5 -20.5t13 -20t13.5 -23t12 -21.5t13.5 -25.5t13 -25q9 -21 9 -47v-21q-3 -29 -33 -29h-4q-15 4 -45 23q-55 44 -113 121q-29 39 -47 43q-2 6 -2 16z" />
<glyph unicode="a" horiz-adv-x="1054" d="M29 252v22q0 180 67.5 336.5t171.5 255.5q42 40 80.5 59t100.5 23h22q58 0 107.5 -16t70.5 -45q6 -9 3.5 -18.5t-11.5 -12.5q-32 32 -65 37.5t-60 -8t-54 -42t-45 -56.5t-34 -60q-53 -109 -91.5 -243.5t-39.5 -254.5q0 -123 57 -123q28 0 66 84q13 30 28 67.5t26.5 70 t27.5 80.5t25.5 77.5t25.5 84t22.5 76.5t23 79t19.5 68q7 19 50 33q33 11 66 11l20 -1q43 -4 49 -33q4 -12 2 -21h-1q-26 0 -83 -369q-52 -336 -52 -427q0 -11 1 -19q2 -25 15 -25q17 0 53 50q13 19 28 43q94 151 205 387q15 33 55 113q31 8 61 -11q-20 -38 -70 -149.5 t-75 -159.5q-43 -84 -139 -231q-70 -101 -121 -101h-6q-138 16 -138 247q0 85 19 200q6 37 11 70.5t9 60.5q-48 -179 -129 -334q-46 -81 -79 -84q-16 -1 -31 -1q-89 0 -168 44q-93 52 -96 166z" />
<glyph unicode="b" horiz-adv-x="1021" d="M55 1493v10q6 39 36.5 61.5t74.5 22.5q100 0 129 -65q-1 -24 -8.5 -213t-11 -265t-11.5 -211.5t-16 -230.5q38 165 137 213q47 19 86 18q3 1 5 1q42 -2 79.5 -25t64 -53t46.5 -66q41 -77 55 -176q8 -61 7.5 -116.5t-7.5 -106.5l-8 -49q159 128 227 276q20 10 35 10 q14 0 31 -10q-112 -242 -328 -387q-9 -18 -10 -22q-69 -153 -174 -207q-56 -27 -88 -27q-34 0 -69 25q-32 23 -32 52v5q3 19 27 43q40 37 133 86l12 6q34 132 34 245q0 52 -7 99q-37 225 -117 266q-13 7 -25 7q-25 -1 -47 -31q-32 -46 -57 -156q-2 -14 -2 -57q2 -23 2 -80 q1 -36 5.5 -162.5t4.5 -185.5q-14 -46 -58 -46q-11 0 -24 3q-62 14 -71 84q-31 211 -31 581v40q0 77 2.5 199.5t2.5 224.5v57q-1 124 -11 219q-6 38 -17 49q-6 24 -6 45zM351.5 -46.5q-4.5 -7.5 0.5 -14.5q14 -14 26.5 -14.5t26 14t23 30.5t18.5 35q-2 -1 -21 -9t-29.5 -13 t-25 -13t-19 -15.5z" />
<glyph unicode="c" horiz-adv-x="933" d="M20 459v22q2 108 25.5 206t78 180t132.5 108q30 12 72 12q89 0 147 -62.5t60 -152.5q0 -42 -9 -82q-21 -17 -44 -2t-25 33q6 21 6 48q0 19 -3 41q-8 54 -38 58q-19 2 -38.5 -23.5t-37.5 -78.5q-23 -65 -41 -148q-19 -82 -29 -175q-7 -59 -6 -119q0 -34 2 -68 q6 -94 31 -162q32 -100 103 -107q5 -1 11 -1q66 0 138 80q152 168 295 454q17 10 33 10q15 -3 28 -16q-32 -73 -57 -125q-125 -235 -264 -371q-87 -84 -180 -84q-108 0 -187.5 58.5t-128.5 146.5q-74 136 -74 320z" />
<glyph unicode="d" horiz-adv-x="1142" d="M31 399q0 160 54 286t155 177q56 26 110 26q43 0 84 -16q98 -39 119 -139q4 26 25.5 150t34 208t18.5 160q5 47 7 68t4 66v15q0 34 -6 56q-7 26 -22 33q7 38 36.5 60.5t74.5 27.5q47 0 74 -26.5t33 -74.5q4 -36 4 -69q0 -12 -1 -23q-2 -43 -8 -102q-1 -9 -2 -14 q-24 -207 -96 -627.5t-96 -615.5q-4 -36 -4 -57q0 -25 6 -27q7 -2 14 -2q49 0 117 90q140 181 291 483q13 9 26 9q18 0 37 -15q-141 -300 -258 -461q-59 -79 -125 -133q-48 -39 -96 -39q-45 0 -71 26.5t-42 71.5q-27 80 -30 172l-2 70q-83 -174 -154 -176q-14 -1 -28 -1 q-82 0 -143 41q-72 48 -106 131.5t-34 190.5zM270 346q1 -34 5.5 -73t13.5 -79.5t25.5 -67t37.5 -26.5q25 0 60 56q15 24 28.5 51t33.5 70t26 57q0 50 7 110t19 135.5t15 96.5q-45 123 -109 123h-6q-68 -3 -125 -203q-31 -121 -31 -250z" />
<glyph unicode="e" horiz-adv-x="915" d="M16 475v31q6 133 50.5 252t119.5 178q58 49 129 49q81 0 131 -62.5t52 -150.5v-6q0 -229 -230 -338v-2q-4 -34 -4 -71q0 -25 2 -51q4 -64 14 -119t38.5 -95.5t70.5 -50.5q12 -3 24 -3q61 0 134 68q85 77 162 187.5t131 228.5q14 12 28 12q17 0 35 -18q-24 -56 -59 -121 q-122 -218 -264 -338q-86 -71 -179 -71q-108 0 -187 57t-126 143q-72 129 -72 291zM272 483q73 45 125.5 120t53.5 155v13q0 89 -39 97q-24 6 -47.5 -30t-40 -94.5t-27 -108t-16.5 -90.5z" />
<glyph unicode="f" horiz-adv-x="888" d="M41 -225q0 541 86 1059q27 180 76 317q18 67 70.5 110.5t127.5 43.5q68 0 108.5 -44.5t52.5 -110.5q8 -50 8 -108q0 -21 -1 -42q-4 -83 -17.5 -152t-31.5 -127q-43 -142 -110 -250q-79 -120 -185 -170q-1 -19 -2 -54.5t-2 -53.5l-4 -46q203 35 359 124t227 233 q17 10 31 10q17 0 32 -12q-64 -130 -172.5 -229t-238.5 -136q-92 -24 -146 -24h-12q116 -65 176 -215q39 -96 39 -202q0 -59 -12 -120q-26 -144 -113 -205q-36 -26 -100 -26h-6q-74 2 -133.5 31t-81.5 81q-5 13 -8.5 30t-6 30.5t-4 38t-2.5 36t-2.5 41.5t-1.5 39v103z M213 -188q0 -8 0.5 -39t1 -52.5t1.5 -58t2.5 -62.5t4 -58.5t6 -54.5t8.5 -42t11 -29t14 -8q27 2 46.5 57t27 113t8.5 109v25q0 187 -84 321q-28 33 -45 47q-2 -94 -2 -268zM229 360q6 5 20 14.5t21.5 15t18.5 14t20 17t17 17.5q90 102 136 289q31 130 31 260q0 58 -6 115 q-15 129 -59 135q-27 4 -50.5 -32t-45.5 -113q-62 -225 -103 -732z" />
<glyph unicode="g" horiz-adv-x="1019" d="M33 426q0 129 37 239t100 187q59 73 117.5 109t138.5 36q81 0 123 -57q2 -14 -5.5 -23.5t-21.5 -3.5q-38 26 -72.5 26.5t-58.5 -15.5t-45 -47.5t-33.5 -60.5t-23.5 -64q-33 -117 -44 -252q-4 -48 -4 -96q0 -87 13 -173q11 -72 38 -107q17 -23 35 -23q10 0 20 7 q29 18 48 89q64 229 74 501q10 29 37 47q21 11 43.5 11t46.5 -11q49 -21 55 -55q-6 -1 -9.5 -9t-5 -22t-2 -26.5t-1 -29.5t-0.5 -25q-1 -19 -1 -52q0 -67 3 -192v-221q189 174 297 393q11 7 23 7q18 0 40 -15q-77 -144 -163.5 -253t-198.5 -208v-12q-4 -108 -12.5 -191 t-25.5 -175t-48.5 -163.5t-77.5 -118.5q-53 -53 -125 -53h-8h-4q-48 0 -74.5 28t-30.5 74q-2 18 -2 37q0 29 4 61q6 52 22.5 106t31.5 94.5t28 66.5q66 118 121 162q1 14 2 41t2 41q0 107 6 178q-11 -56 -39 -97.5t-69 -54.5q-25 -10 -50 -10q-10 0 -20 1q-35 7 -64 23 t-54.5 43.5t-43 54.5t-30.5 54q-39 86 -39 199zM319 -553v-19q0 -65 19 -65q52 3 70 141q19 143 22 306v59q-20 -30 -35 -76q-29 -73 -50.5 -168.5t-25.5 -177.5z" />
<glyph unicode="h" horiz-adv-x="1034" d="M31 291q0 136 20 440l12 168q15 316 15 391v8q-3 96 -25 115q18 62 70 62q27 -3 45 -11q9 -5 17 -16.5t13.5 -31t9.5 -35t8 -44.5t5.5 -42.5t4 -45t3.5 -37.5q11 -101 20 -306t13 -275q19 84 81 174.5t128 128.5q31 17 57 17q10 -1 20 -3q34 -10 53.5 -35.5t29.5 -64.5 q15 -58 17 -148q1 -32 2 -62q0 -53 -4 -95q-4 -66 -13 -162q-7 -62 -19.5 -162t-15.5 -129q-6 -53 -6 -85q0 -45 12 -48q4 -1 9 -1q37 0 94 81q114 161 245 450q11 6 24 6q19 0 42 -12q-119 -251 -129 -270q-52 -100 -146 -221q-67 -82 -129 -82q-61 0 -97.5 43t-49.5 115 q-9 44 -13 96q-4 50 -6 92v25q0 35 3 79q4 62 6 95t11.5 101t12.5 90.5t14 94.5t13 82q6 36 6 55q0 23 -8 25h-3q-32 0 -79 -55q-110 -137 -156 -291q-10 -301 -22 -377q-7 -48 -38 -74q-29 -24 -65 -24h-6q-59 3 -102 94q-4 66 -4 117z" />
<glyph unicode="i" horiz-adv-x="692" d="M23 201v20q0 206 53 445q17 86 17 128q0 26 -7 35q9 27 44 48.5t75 21.5q65 0 65 -59q-52 -254 -71 -609q-5 -59 -5 -109q0 -39 3 -73q4 -84 34 -84h1q31 2 104 101q79 108 231 366q36 61 51 92q13 6 25 6q19 0 37 -16q-12 -27 -24 -52t-29 -54.5t-26 -45.5t-32.5 -55 t-31.5 -53q-110 -185 -222 -297q-54 -51 -90 -51h-6q-54 4 -93 28.5t-60.5 66t-31 90t-11.5 110.5zM100 1235q0 38 37 73t76 35q9 -30 49 -43q38 -8 41 -51v-6q0 -44 -25.5 -80.5t-66.5 -36.5q-37 0 -74 38t-37 71z" />
<glyph unicode="j" horiz-adv-x="849" d="M27 -543q0 31 10 86q45 202 162 355q30 44 59 67q-2 97 -8 317t-8 330q0 162 2 244q10 55 65 55q38 0 79.5 -31.5t47.5 -60.5q-18 -3 -18 -92q1 -48 9.5 -251.5t8.5 -307.5v-74q100 77 189.5 184.5t146.5 225.5q15 6 29 6q17 -3 33 -14q-152 -289 -396 -476l-2 -2v-67 q-2 -78 -14 -213q-20 -183 -80 -311q-58 -126 -176 -129h-2q-137 6 -137 159zM137 -561q0 -92 33 -92q26 -1 44 22.5t26.5 69t12 80t5.5 82.5q5 99 5 203q0 44 -1 90q-56 -71 -98 -254q-24 -111 -27 -201zM256 1253q0 44 23.5 76.5t60.5 32.5q42 0 82.5 -33.5t46.5 -71.5 q-20 -4 -29.5 -23t-11.5 -39.5t-14.5 -37t-38.5 -16.5q-52 0 -85.5 30.5t-33.5 81.5z" />
<glyph unicode="k" horiz-adv-x="995" d="M16 375v39q0 160 13.5 453.5t15.5 381.5q0 2 0.5 23.5t0 31.5t-1.5 25.5t-4.5 23.5t-8.5 9q15 83 71 86h9h6q47 0 69 -47q20 -20 24 -113q4 -126 3 -213q-3 -132 -6 -266q-1 -37 0 -64q0 -62 4 -67q5 16 33 76q31 71 77.5 129.5t104.5 79.5q35 10 72.5 10t76.5 -10 q78 -21 78 -123v-2q0 -86 -71 -181q-72 -94 -185 -161q21 -19 37 -57.5t23 -69t16 -82.5q23 -133 31 -238q5 -51 14 -79.5t20.5 -38t28.5 0.5t35.5 31.5t44.5 59.5q167 240 275 471q20 4 34 4q15 -3 27 -15q-53 -128 -152 -293q-76 -133 -153 -221q-75 -90 -127 -90 q-97 0 -148 135q-20 51 -42 175.5t-35 168.5q-15 56 -45 86q-26 -8 -52 -4q0 -49 2 -78l9 -79q2 -17 14 -146q2 -22 2 -40q0 -36 -8 -54q-11 -12 -44 -22.5t-63 -10.5q-43 0 -73.5 22t-36.5 58q-15 132 -15 285zM225 498q2 -2 8 -2q18 0 55.5 13t45.5 21q60 60 106 141 t56 163q0 12 2 18q0 52 -41 55h-2q-36 0 -117 -106q-87 -116 -113 -303z" />
<glyph unicode="l" horiz-adv-x="780" d="M53 358v70q0 123 19 272q24 171 74 340t114 281q23 29 67.5 47t92.5 18h12q52 -5 78 -52q26 -46 25 -112q-1 -67 -11 -136q-10 -65 -28 -121q-76 -244 -232 -359q-2 -8 -2 -24q-16 -160 -16 -303q-1 -25 -1 -47q0 -246 60 -263q6 -2 12 -2q39 0 101 78q75 92 151 214.5 t131 238.5q13 8 31 8q21 -4 33 -14q-166 -348 -305 -496q-71 -74 -146 -74q-7 -1 -13 -1q-59 0 -120 56q-114 114 -127 381zM272 688q73 73 123 191.5t68 250.5q7 44 9 86q1 12 1 23q-1 31 -5 62q-6 43 -28 47q-15 1 -30.5 -25t-32.5 -82q-53 -171 -105 -553z" />
<glyph unicode="m" horiz-adv-x="1441" d="M10 909v2q0 31 37 31t86 -43q61 -61 90 -149q20 31 86 122q57 72 117 72h2q45 0 80.5 -26t57 -69.5t33.5 -87t19 -91.5q20 68 97 151q31 33 68.5 54t74.5 26q7 1 14 1q29 0 55 -17q32 -21 48 -68q30 -84 29 -240q0 -98 -11 -225q-5 -55 -12.5 -150t-11.5 -134 q-4 -41 -4 -69q0 -56 16 -58q3 -1 5 -1q31 0 97 89q146 207 267 460q13 8 27 8q17 0 34 -12q-184 -418 -352 -567q-44 -35 -78 -35q-54 0 -88 42t-45 110q-14 81 -16 185q0 18 -1 35q0 82 6 152q7 84 16 195t11 178v14q0 61 -24 64q-47 0 -117 -88q-68 -89 -86 -195 q-1 -29 -1 -56v-41q1 -24 1 -50q-1 -26 -1 -54q-2 -56 -7 -87q-14 -35 -78 -35h-10q-76 0 -97 47q0 82 2 133q0 78 3 158q0 241 -26 292q-8 17 -20 17q-24 -3 -59 -41q-56 -58 -102 -153q-15 -30 -15 -56q15 -120 15 -256v-246q-44 -83 -113 -92q-9 -1 -18 -1q-54 0 -80 48 q-13 70 -13 146q-1 28 -1 58q0 44 2 92q3 78 10.5 189t9.5 142q2 27 2 51q0 98 -31 129z" />
<glyph unicode="n" horiz-adv-x="1052" d="M10 244q0 64 7.5 145.5t14 129t22 147.5t18.5 118q6 41 6 71q0 63 -25 81q31 51 101 51q31 0 50.5 -17.5t28.5 -51.5t11.5 -61.5t3.5 -70.5q1 -26 3 -77.5t3 -77.5q23 87 84.5 177.5t128.5 125.5q36 20 64 20q118 0 118 -338q0 -104 -11 -240q-2 -31 -11 -124 q-1 -10 -6.5 -50.5t-9.5 -76t-7 -75.5q-2 -20 -1.5 -36t1.5 -28q3 -25 12 -27q4 -1 9 -1q37 0 96 81q140 195 254 448q15 9 31 9q13 3 34 -15q-56 -121 -135 -272q-66 -121 -149 -223q-69 -84 -131 -84q-97 0 -146 135q-26 79 -26 192v43q0 209 43 492q11 70 11 105 q0 31 -9 32h-3q-33 0 -77 -55q-105 -130 -158 -291q-2 -25 -2 -84q-9 -178 -14 -229q-6 -66 -15 -84q-72 -77 -127 -77q-53 0 -88 73q-4 58 -4 90z" />
<glyph unicode="o" horiz-adv-x="1013" d="M23 440v2q0 162 61 290t164 179q55 25 112 25q55 0 119 -31q24 -9 7 -18q-14 -7 -25 -4q-24 8 -46 8q-40 0 -75 -26q-53 -40 -81 -117.5t-41 -163.5q-11 -74 -11 -143v-21q0 -202 88 -338q32 -46 78 -58q12 -3 25 -4q34 0 69 23q73 48 125 182q-62 20 -120 77.5 t-99 125.5q-27 44 -47 95q-22 51 -34 109q-6 27 -5 52q-1 29 7 56q14 50 60 77q63 36 115 37q58 0 104 -45q88 -82 109 -332q3 -32 3 -64q0 -73 -15 -139q40 0 92 27q51 25 101 81.5t73 109.5q21 7 35 4q13 0 30 -7q-30 -73 -90 -142t-127 -103q-61 -32 -116 -32q-8 0 -15 1 q-53 -165 -161 -215q-48 -23 -93 -23h-2q-190 0 -282 124.5t-92 340.5zM389 590q22 -67 64.5 -138t89.5 -118q37 -37 67 -49q16 61 16 122q0 49 -10 98q-22 110 -86 159q-48 37 -90 37q-25 0 -47 -13q-17 -9 -16 -36q-1 -24 12 -62z" />
<glyph unicode="p" horiz-adv-x="980" d="M43 864q9 82 76 82h4q67 -3 110 -49q10 -39 16 -128t7 -97q21 108 111 159q51 29 97 29q12 0 24 -2q57 -10 96.5 -46t58.5 -89q41 -106 41 -229v-26q0 -81 -16 -161q12 7 35 23.5t34 23.5q110 70 148 144q21 12 35 12q17 0 30 -8q-11 -28 -25.5 -52.5t-37 -47l-38 -38 t-48.5 -37t-46.5 -30t-53 -31.5t-48.5 -28q-66 -238 -180 -301q-20 -12 -48.5 -12.5t-50.5 11t-32 32.5t6 52q36 64 135 150q6 53 6 113q0 220 -57 346q-28 64 -57 87.5t-57.5 -1t-51.5 -101.5v-35q0 -157 23 -366q15 -142 47 -380t43 -339q-5 -67 -41.5 -123.5t-89.5 -56.5 t-66 74q-19 106 -32 252t-18 257t-11 289.5t-10 259.5q-5 147 -23 279q-13 105 -32 129q-7 7 -13 10zM385.5 -5.5q0.5 -8.5 7.5 -14.5q8 -6 15.5 -7t14 3.5t12 10.5t10.5 17t8.5 20t7.5 24t6.5 24.5t5.5 23.5q-6 -5 -14.5 -12t-22 -19.5t-23.5 -24t-19 -24.5t-8.5 -21.5z " />
<glyph unicode="q" horiz-adv-x="1034" d="M37 379v14q3 153 75 276t179 191q88 58 168 58h2q42 -3 80 -21q39 -22 61 -59q7 -26 -35 -35q-31 47 -66 47q-57 0 -123 -122q-49 -92 -89 -220q-13 -40 -25 -92.5t-22 -120.5q-5 -36 -5 -66q0 -28 4 -51q9 -50 40 -59q14 -4 27 -4q53 0 98 67q94 145 165 500q5 33 54 55 q24 11 42 11q16 0 27 -8q24 -14 24 -49q0 -5 -1 -11q-50 -224 -80 -551q103 74 175.5 154t141.5 200q21 21 35 21q11 2 35 -15q-63 -130 -169 -244.5t-224 -174.5q-1 -13 -6 -70q62 -57 107 -148t61 -204q5 -36 5 -73q0 -76 -22 -153q-37 -134 -160 -137h-4q-56 0 -91.5 56 t-45.5 135.5t-15 167.5q-2 41 -2 77q0 40 3 74q7 269 43 457q-17 -40 -72 -125q-52 -77 -121 -80q-11 -1 -21 -1q-133 0 -194 108q-59 104 -59 225zM618 -123q-2 -78 -2 -144q0 -156 13 -247q18 -117 65 -121q25 0 25 64v14q0 179 -96 426q-3 6 -5 8z" />
<glyph unicode="r" horiz-adv-x="915" d="M16 487q79 161 152 326q-32 26 -52 64.5t-23 84.5v8q0 42 28 81q39 53 94 53q53 0 71 -30q9 -15 9 -40q0 -24 -8 -57q-13 -55 -45 -139q15 0 47 1t55.5 1t55.5 -0.5t55 -5t44.5 -12t34.5 -21.5t15 -33q0 -5 -23 -76q-68 -212 -106 -373q-8 -36 -12 -63q-4 -26 -10 -68 q-4 -30 -4 -55v-17q2 -30 8 -59.5t23 -46.5t44 -20h4q37 0 102 94q125 177 265 457q15 6 30 6q16 0 31 -15q-11 -21 -37.5 -76.5t-49.5 -101t-44 -82.5q-70 -124 -149 -225q-73 -91 -150 -94q-61 0 -106.5 39.5t-70 104t-36.5 134.5q-11 64 -10 130v12q5 105 32 201.5 t70 156.5q-70 17 -133 47q-3 -17 -8 -26q-21 -46 -67.5 -141.5t-61.5 -129.5q-7 -3 -33 -8q-17 0 -31 14zM184 889q0 -13 4 -29q61 148 61 189q0 14 -7 16q-21 6 -35.5 -29t-19.5 -77q-4 -30 -3 -53q-1 -9 0 -17z" />
<glyph unicode="s" horiz-adv-x="854" d="M6 750v12q0 75 53 125q47 47 121 63q21 6 39 6q42 0 86 -26q65 -51 70 -137q-9 -21 -43 -28.5t-47 19.5q0 42 -12.5 79t-38.5 55q-9 6 -20 5q-21 0 -48 -22q-32 -26 -37 -81q-1 -9 -1 -17q0 -44 22 -78q20 -30 45 -55q41 -37 136.5 -96.5t131.5 -88.5q88 -69 121 -139 q3 2 26 16q104 61 156 162q18 6 33 6q13 0 28 -12q-47 -115 -219 -225q17 -57 17 -112q0 -73 -30 -141q-53 -121 -149 -181q-73 -51 -147 -54h-10q-67 1 -119 47q-31 28 -31 61q0 23 15 50q46 89 184 201l39 31q-6 57 -31 97.5t-80 90.5q-52 47 -85 79.5t-74.5 82.5 t-67.5 98q-30 55 -33 107zM193 -125q15 -16 34 -8t36.5 25t34.5 43t27.5 46.5t16.5 34.5q18 44 27 93l-58 -54q-66 -60 -100 -106q-27 -35 -28 -55q1 -12 10 -19z" />
<glyph unicode="t" horiz-adv-x="841" d="M16 1182v4q3 17 17 35q28 1 83.5 2t82.5 2q1 6 2 11t2 11q2 19 8 86q0 35 -8 43q9 32 53.5 63t87.5 31q51 0 51 -53q0 -24 -3 -56.5t-8 -75t-7 -62.5q3 0 30.5 -0.5t43.5 -2t38.5 -5.5t34 -11.5t11.5 -19.5v-2q0 -17 -19 -17h-4q-53 6 -139 9q-32 -346 -56 -785 q-5 -109 -5 -212q0 -52 1 -103q5 -122 22 -144q4 -5 9 -6q3 -1 7 -1q40 0 106 89q77 102 159.5 242.5t143.5 269.5q15 6 31 6q17 -4 30 -16q-28 -48 -72 -141t-71 -142q-135 -232 -229 -319q-50 -47 -97 -47h-14q-67 14 -113.5 62t-70 122.5t-32.5 152t-9 173.5 q0 98 9 214.5t18.5 193.5t27.5 209t25 184q-93 -4 -154 -11q-23 3 -23 17z" />
<glyph unicode="u" horiz-adv-x="1107" d="M23 872q15 50 55 50h6q58 -7 104 -65t68 -128q1 -14 1 -32q0 -84 -12.5 -238.5t-12.5 -240.5q0 -18 1 -32q3 -107 52 -110q47 0 106 125q59 133 97 291q34 143 34 288v31q7 36 57 36q13 0 29 -3q77 -15 80 -74q-5 -73 -28 -266.5t-27 -296.5q-3 -43 -3 -71v-9 q0 -25 3 -60q3 -41 13.5 -64t29.5 -28h5q36 0 97 86q96 137 203 342q16 31 47 101q22 4 33 2q16 0 31 -12q-105 -248 -220 -414q-50 -73 -106 -123q-44 -41 -84 -41q-90 0 -143 127q-35 84 -35 178q-2 63 -2 144q-3 -7 -7.5 -21t-11.5 -36.5t-14 -41.5q-52 -143 -127 -213 q-37 -27 -81 -27h-12q-51 4 -91 33q-41 30 -68.5 85t-40.5 115.5t-17 142.5q-2 50 -2 95v53q2 66 9 150q2 34 2 61q0 78 -18 111z" />
<glyph unicode="v" horiz-adv-x="763" d="M20 850q18 36 33 47q21 15 47 18h9q49 0 105 -40q60 -44 77 -87q20 -85 53 -261t45 -232q21 -107 35 -111q10 10 49 135q54 173 92 285q38 128 113 314q9 20 24 20q13 0 23 -5.5t10 -14.5q0 -6 -6 -15q-25 -76 -82.5 -256.5t-103 -313.5t-92.5 -249q-15 -38 -53.5 -69 t-84.5 -31q-43 0 -61 57q-30 82 -57.5 183.5t-59.5 242t-45 192.5q-35 151 -70 191z" />
<glyph unicode="w" horiz-adv-x="1439" d="M43 422v35q0 136 14 374v66q0 25 -6 31q8 23 29 38t49 15q40 -3 78 -26.5t49 -51.5q1 -22 1 -47q0 -122 -28 -311q-10 -70 -25 -188t-16 -128q-7 -50 -7 -82q0 -59 24 -61q5 -1 10 -1q48 0 123 75q86 86 115 190q10 54 22 170q8 69 23 125q16 29 68 29q13 0 28 -2 q76 -9 94 -62q-49 -324 -49 -520q0 -98 31 -104q9 -2 18 -2q50 0 86 59q63 97 88 367q12 138 12 256q3 135 5 155q12 65 53 65q12 0 26 -5q63 -23 66 -123q6 -93 61.5 -183.5t124.5 -136.5q34 -20 63 -20q53 0 89 67q21 7 37 7q16 2 26 -11q-32 -60 -69 -94.5t-92 -34.5h-5 q-50 0 -104 37q-39 28 -83.5 79t-57.5 87q2 -30 2 -59q0 -120 -33 -231q-41 -137 -117 -232q-64 -82 -164 -82q-31 0 -45 2q-64 11 -110 70q-47 53 -66 112q-20 55 -20 101v12q-15 -36 -53.5 -79.5t-88.5 -76t-100 -46.5q-16 -4 -31 -4q-33 0 -61 20q-42 30 -59 106 q-22 101 -25 254z" />
<glyph unicode="x" horiz-adv-x="1271" d="M35 500q13 25 41.5 93t42.5 97q54 117 94 180q50 78 92 78h4q85 -12 154 -117q65 -103 117 -290q15 23 60.5 89t66.5 99q76 117 73 137q7 11 21 22.5t24 6.5q24 0 27 -43q-131 -252 -240 -426q31 -133 47 -207q5 -22 50 -180q22 -73 43 -76h2q31 0 106 103 q143 197 285 458q12 8 23 8q18 0 36 -18q-6 -14 -12.5 -28t-12 -25.5t-14 -27t-13 -24t-14.5 -26t-13.5 -23.5t-15.5 -26.5t-14.5 -25t-17 -27.5t-16.5 -27q-111 -187 -221 -297q-53 -53 -90 -53q-91 0 -177 108q-46 57 -86 152q-9 21 -18 39q-26 -40 -182 -289 q-21 -24 -60 -27h-8q-29 -3 -39 27v2q0 11 15 41q74 138 235 360q-29 78 -66.5 251t-41.5 188q-1 3 -3 13l-3 15t-3.5 14.5t-5 15.5l-5 12t-6 9.5t-7.5 4.5h-3q-37 0 -119 -187q-2 -6 -3 -8q-7 -16 -31.5 -70t-32.5 -79q-13 -14 -34.5 -14t-30.5 18z" />
<glyph unicode="y" horiz-adv-x="1011" d="M43 668q0 135 2 209q6 33 33.5 55t68.5 22h4q55 0 89 -71q-19 -104 -30.5 -211.5t-13.5 -235.5v-24q0 -112 17 -199q21 -123 94 -123h4q48 3 95 115q78 190 100 434q6 61 6 108q0 27 -2 50q7 44 33 61q12 8 27 8q19 0 44 -12q37 -24 43 -57q-15 -3 -18 -90v-29 q0 -90 4 -348v-170q0 -38 -2 -56q203 189 307 400q17 9 31 9q19 0 33 -17q-152 -283 -373 -467q-4 -95 -9 -159.5t-17 -152.5t-30 -148.5t-49 -117.5t-73 -90q-46 -37 -109 -37h-4q-56 3 -82 44q-26 39 -26 91v6q2 56 17.5 123t34 117.5t36.5 85.5q63 122 137 172l10 10 q1 35 2 71t2 71q2 78 2 186q-10 -46 -24.5 -86.5t-37 -80.5t-56.5 -63.5t-74 -23.5q-54 0 -96 25t-68 73t-43 103t-25 131.5t-11 141t-3 147.5zM336 -601q4 -34 20 -34q34 0 60 82q32 104 55 424l2 29q-56 -56 -108 -265q-6 -28 -12.5 -63t-13.5 -87q-4 -33 -4 -59 q0 -15 1 -27z" />
<glyph unicode="z" horiz-adv-x="931" d="M43 934v20q0 72 45.5 123t114.5 51h2q32 0 51.5 -16.5t24 -48t4 -61.5t-10.5 -73.5t-16 -66t-16 -55.5q10 1 61.5 10t86 13t69.5 4q111 0 143 -52q1 -8 1 -17t-0.5 -16.5t-3 -19.5t-3.5 -17.5t-5.5 -19t-6 -17t-6.5 -17.5t-5 -15q-29 -77 -84 -169.5t-104 -141.5h5 q108 0 171 -133q1 -3 3 -8.5t3 -8.5l27 27q70 67 143 143q79 85 99 135q18 7 32 7q16 0 31 -9q-24 -49 -53 -86q-76 -109 -223 -252q-6 -6 -31 -26q38 -113 44 -259q1 -22 0 -44q0 -122 -26 -232q-14 -58 -34 -108t-51.5 -96.5t-78.5 -73.5t-104 -27h-4q-116 3 -131 135 q-2 21 -2 43q0 94 35 204q43 136 106 245q29 56 68 108q-33 238 -101 256q-37 11 -55 9q-10 0 -45 -5q-17 21 -18.5 50t18.5 51q107 70 176 205q29 51 29 93q0 11 -2 21q-14 -1 -28 -1q-88 0 -175 28q-38 -117 -94 -225q-15 -9 -33 -9q-20 4 -35 9q59 106 107 254 q-46 27 -77.5 75t-37.5 107zM154 882q6 -53 22 -73q49 158 49 227q0 50 -26 51q-22 0 -32.5 -37t-12.5 -79q-3 -19 -3 -42q0 -22 3 -47zM266 -565v-8q0 -103 74 -103h4q92 4 92 391q0 45 -4 135q-1 15 -2 28t-2 28q-62 -110 -110 -238t-52 -233z" />
<glyph unicode="{" horiz-adv-x="550" d="M10 793q32 22 107 53q115 47 153 121q22 44 -16 118q-15 32 -35.5 62.5t-51 70t-44.5 58.5q-64 94 -59.5 225.5t67.5 229.5q81 124 234 133q54 -6 63 -33q10 -29 -22 -45q-34 9 -66.5 -3t-58 -38.5t-43.5 -54.5t-31 -58q-18 -41 -27 -86q-28 -118 51 -243 q70 -121 80 -136q24 -37 36 -85t6 -99t-36 -82q-11 -11 -22.5 -20.5t-26.5 -18.5l-25 -15t-29.5 -14.5t-27.5 -12t-32 -13t-31 -12.5q43 -18 73 -32.5t67 -40.5t58.5 -54t35 -70t10.5 -92q-8 -133 -93 -348q-46 -116 -43 -160q4 -58 54 -91t118 -40q68 -9 113 8q6 -24 6 -47 q0 -55 -40 -92t-99 -37q-41 -3 -80 10q-87 43 -145 107q-88 105 -41 239q26 65 80 181.5t67 146.5q70 160 -2 246q-21 24 -56 49t-62 40.5t-72 40t-62 34.5z" />
<glyph unicode="|" horiz-adv-x="3624" d="M53 1022v22q3 53 37 130q129 270 576 270h22q219 -3 488 -62q217 -45 444.5 -108t539 -159.5t425.5 -129.5q4 2 12 10q201 173 348 269q259 167 459 61q151 -77 151 -240v-2q0 -98 -54.5 -170t-139.5 -108q-117 -51 -309 -33q-243 21 -496 84q-26 -22 -72 -66t-61 -57 q348 -141 506 -371q25 -39 44.5 -84t31.5 -97t8 -107t-27 -103q-50 -106 -147 -167.5t-238 -61.5h-12q-128 3 -218 67.5t-112 167.5q-25 111 30 192.5t154 104.5q79 21 146 -49q61 -70 43 -147q-20 -43 -49 -46t-52 42q8 33 2 66t-28.5 56t-50.5 17q-46 -12 -81.5 -58 t-42 -103.5t26.5 -114.5q36 -58 131.5 -90t182.5 -1q93 33 153 122.5t47 203.5q-19 172 -276 317q-140 81 -303 132q-243 -206 -449 -283q-105 -38 -207 -30t-185.5 46.5t-135.5 98.5q-39 43 -60 93.5t-18 108.5t37 107q95 136 491 119q300 -15 570 -113q121 109 125 113 q-27 7 -54.5 13t-54.5 13q-128 34 -356 98.5t-421 116.5t-362 92q-255 57 -462 80q-484 56 -596 -172q-37 -73 -21 -134.5t64 -105t110 -57.5q67 -11 114.5 9t51.5 73q6 70 -67 70q-48 0 -39 61q9 64 49 64q54 22 91.5 -13.5t55.5 -89.5q25 -91 -14.5 -156.5t-120.5 -86.5 q-128 -32 -227 20.5t-133 151.5q-15 43 -15 94zM1376 614q-24 -83 44 -139.5t165 -66.5q154 -15 307 61q150 72 293 180q-162 43 -313 60q-193 19 -348 -2q-124 -18 -148 -93zM2673 963q18 -4 70.5 -18.5t85 -22t89 -21t96 -18.5t92 -11t91.5 -3t79.5 10t71.5 25t52 44 q44 51 40.5 113t-53.5 121q-66 81 -186 90q-144 9 -311 -127q-90 -69 -217 -182z" />
<glyph unicode="}" horiz-adv-x="593" d="M43 1704q0 55 40 93t99 38q34 0 78 -12q38 -18 71 -40.5t64.5 -55.5t48 -70t20.5 -83.5t-18 -96.5q-17 -49 -41.5 -103.5t-56.5 -120t-49 -102.5q-74 -166 2 -248q47 -52 164 -117q62 -30 90 -49q-27 -19 -106 -51q-118 -51 -154 -121q-18 -27 -9.5 -63.5t23.5 -63.5 t35 -49q46 -56 69.5 -87.5t52 -92t34.5 -121.5q9 -106 -24.5 -200.5t-106.5 -155.5t-168 -66q-57 9 -66 35q-9 27 23 43q57 -11 121 41q40 37 70 97.5t39 133t-19 140.5q-12 30 -37 71q-7 12 -38 61t-43.5 73t-26.5 70t-15 91q-3 64 43 113q54 59 190 100q-45 20 -72.5 33.5 t-66 40t-59 53.5t-34.5 69.5t-11 92.5q5 87 29 168.5t63 181.5q42 107 39 158q0 39 -29 71.5t-71.5 48t-92 19.5t-90.5 -14q-4 16 -4 47z" />
<glyph unicode="~" horiz-adv-x="880" d="M31 645v12q0 71 48 136t114 65q23 0 73 -16q111 -35 322 -129q93 -40 114 -31q12 6 14.5 15.5t-2.5 20.5t-12.5 22t-17 20.5t-16 15.5t-9.5 8q-8 32 29 49t72 7q43 -21 69.5 -68t26.5 -108q0 -78 -40.5 -122t-113.5 -44q-50 0 -108 20q-32 11 -67 28.5t-75 43.5 t-63.5 41.5t-68.5 48.5t-54 39q-55 42 -76 47q-43 12 -71 -49q-21 -49 10 -68q-8 -41 -45 -41q-39 3 -53 37z" />
<glyph unicode="&#xa1;" horiz-adv-x="301" d="M51 27q2 4 8 88q2 48 13 202q2 77 8 233t9 283.5t1 239.5q9 70 45 82h12q34 0 48 -41q28 -130 36 -446v-291q0 -69 5 -207q3 -82 22 -88q-6 -49 -48.5 -77t-96.5 -28q-59 3 -62 50zM61 1550q0 34 16 55.5t44 20.5q34 -3 55 25q27 -9 49.5 -41.5t22.5 -67.5 q0 -33 -34 -60.5t-73 -27.5q-80 0 -80 96z" />
<glyph unicode="&#xa2;" horiz-adv-x="561" d="M51 791v38q5 76 20 143.5t44 132t79.5 105t116.5 45.5q-8 132 -8 156q0 44 12 80.5t33 36.5q25 0 60 -35q4 -32 4 -51q0 -28 -14.5 -98t-12.5 -101q62 -19 99.5 -71t37.5 -121q0 -33 -10 -78q-19 -13 -41 -0.5t-22 28.5q9 44 -1.5 96.5t-39.5 53.5q-45 4 -82.5 -48 t-58.5 -129.5t-32.5 -154t-11.5 -133.5q1 -54 11 -97.5t36 -77.5t66 -40q33 -4 81 33t50 67q19 13 39 13q23 3 33 -23q-1 -46 -59 -96.5t-113 -58.5v-15q0 -80 10 -158q6 -49 14 -57q-1 -1 -7 -6.5t-8 -7t-7.5 -6.5t-8.5 -6.5t-8.5 -4.5t-9.5 -4.5t-9.5 -2.5t-10.5 -1 q-15 0 -24 9.5t-12.5 28.5t-4 32.5t-0.5 36.5v6q0 79 18 160q-120 27 -184 129t-64 252z" />
<glyph unicode="&#xa3;" horiz-adv-x="1021" d="M43 141q0 101 89 151.5t208 22.5q13 116 4 422q-27 2 -76 2q-87 0 -90 -20q-59 0 -59 43q0 19 18 29q83 12 164 14l41 2q-4 172 -4 254q0 271 72 399q56 90 174 90q66 0 116.5 -33.5t76 -88t34.5 -123t-8 -138.5q-3 -45 -29.5 -61t-66.5 8q-33 20 -50 47 q25 50 29.5 124.5t-19 138.5t-73.5 77q-22 5 -53 -4q-43 -12 -66.5 -63t-27 -143t-2 -144.5t9.5 -153.5q1 -20 2 -30q1 -25 4 -77t4 -77q14 2 39 2q13 0 34.5 -0.5t38.5 -0.5t33 1q66 0 95 2q30 -21 30 -47v-4q-4 -32 -41.5 -38.5t-91.5 1.5q-55 3 -133 6q4 -74 4 -219 q0 -139 -22 -238q20 -7 81 -30t92.5 -34.5t82.5 -28t94 -27.5q74 -16 141 -13q43 -9 43 -41q0 -43 -32 -74.5t-74 -41.5q-132 14 -281 108q-14 9 -76 47.5t-92 57.5q-57 -163 -188 -189q-84 -19 -141.5 19t-57.5 114zM121 199q-5 -48 26.5 -73.5t83.5 -12.5q38 11 65 49.5 t34 95.5q-42 19 -88.5 20.5t-81.5 -19t-39 -60.5z" />
<glyph unicode="&#xa4;" horiz-adv-x="970" d="M84 958q7 66 35 66q20 0 42.5 -15t45 -41.5t39.5 -49.5t36.5 -52.5t24.5 -36.5q74 50 158 50q37 0 100 -17q34 -10 43 -51q6 18 15.5 26t21.5 6t22.5 -7.5t24.5 -16.5q19 23 43.5 54t52 74t25.5 59h12q72 0 72 -41v-11q-22 -40 -67.5 -88t-90.5 -82q92 -85 92 -217 q0 -69 -33 -141.5t-79 -118.5h2q23 -47 86 -92q63 -41 90 -92q0 -68 -31 -68q-15 0 -47 19q-43 28 -153 190q-77 -53 -181 -53q-107 0 -186 53q-1 -2 -14.5 -18t-22.5 -27t-24 -30.5t-25 -34.5t-20 -31t-15 -28.5t-4 -20.5h-12q-31 0 -51 9.5t-19 33.5v10q52 87 160 172 q-42 37 -66 98.5t-24 134.5t26 142t66 112q-21 39 -78 76q-65 46 -92 96zM307 517q-10 -120 47 -186q20 -22 47 -34q51 -19 93.5 -15.5t83 30t67.5 55t47 59.5q24 40 37 83t9.5 93t-29.5 90q-22 37 -76 70q-19 11 -23 20q-3 -31 -27 -50t-59 -19q-84 54 -151 -21 q-56 -65 -66 -175z" />
<glyph unicode="&#xa5;" horiz-adv-x="909" d="M41 1477q0 48 34 78t81 30q31 0 37 -24q47 -386 108 -617q37 -131 80 -137q58 -9 115 51q54 60 63 123q7 85 27.5 215.5t40.5 202.5q21 55 73 61q51 6 60 -45q-9 -24 -17.5 -55.5t-14.5 -58t-12.5 -69.5t-9.5 -67.5t-8.5 -76.5t-7 -71t-6.5 -76t-6 -69q-3 -26 -8 -75.5 t-8 -73.5q108 0 182 -6q35 -21 35 -53v-5q-1 -18 -16.5 -27.5t-43.5 -11t-52.5 -0.5t-61.5 4.5t-52 4.5l-10 -92q-2 -6 -2 -23h14q150 -9 201 -16q29 -13 29 -33v-6q-3 -24 -43 -37q-30 0 -213 -6q-20 -160 -66 -299q-18 -54 -41 -82q-10 -10 -39 -10q-31 0 -77 14 q-94 27 -82 82q27 -3 51.5 26t43 82.5t28.5 90t20 83.5q0 5 2 7h-88q-43 -2 -94 -2h-27q-44 9 -47 45v2q3 39 35 59q70 6 164 6h77q12 56 21 111q-252 7 -270 -33q-66 15 -66 47q0 18 11.5 34.5t27.5 22.5q132 13 205 15q25 1 52 2t52 2q11 89 17 145q-8 -20 -52 -78 q-33 -37 -80 -37.5t-86.5 23t-68.5 57.5q-66 81 -115.5 203.5t-73.5 253.5q-22 113 -22 189z" />
<glyph unicode="&#xa7;" horiz-adv-x="608" d="M63 1253q0 103 88 180.5t191 77.5q76 0 135.5 -56.5t61.5 -127.5q-9 -29 -32 -40t-36 20q3 52 -35 110q-38 62 -121 47q-68 -9 -96 -88q-71 -179 76 -272q160 -101 231 -211q37 -65 37 -137q0 -65 -55.5 -134.5t-116.5 -105.5q35 -29 55 -47.5t46.5 -51t39.5 -70 t13 -81.5q0 -90 -71.5 -156.5t-164.5 -66.5q-43 0 -90 20q-61 28 -92 83t-4 126q19 19 40.5 26t35.5 -5.5t8 -44.5q-12 -68 22.5 -114.5t100.5 -39.5q42 5 75 35t48 69.5t9 84.5t-36 77q-32 32 -78.5 67t-72.5 51.5t-89 56.5q-86 59 -92 161v9q0 69 60 129q21 22 50 41 t51 29.5t64 29.5q-157 103 -215 186q-41 61 -41 133zM205 705q10 -77 123 -144q47 33 94.5 94t40.5 109q-9 66 -66 117q-77 -5 -138.5 -56t-53.5 -120z" />
<glyph unicode="&#xa8;" horiz-adv-x="497" d="M29 1499v6q0 28 24 58q25 35 68 32q4 -12 16.5 -20.5t24.5 -13t22 -15t11 -26.5q2 -30 -17 -61t-43 -38q-4 0 -8 -2h-8q-30 0 -57.5 26t-32.5 54zM268 1520q0 34 19.5 64t46.5 34h8q31 0 58 -34.5t32 -67.5q-8 -9 -12.5 -33.5t-12.5 -41t-30 -16.5h-8q-42 0 -71.5 26.5 t-29.5 68.5z" />
<glyph unicode="&#xa9;" horiz-adv-x="1103" d="M45 1049q0 218 180 366q75 63 193 101q50 16 80 16h6q61 0 85.5 -37t-5.5 -88q-128 -34 -209 -100q-84 -74 -128 -181t-22 -233q21 -105 71 -186t126 -121q56 -32 110 -29q156 0 281 143q45 49 82 115.5t61.5 145t19 163.5t-47.5 156q-88 146 -297 164q-12 23 -7.5 41.5 t33.5 9.5q214 -14 326 -170q74 -113 74 -244q0 -177 -89 -311.5t-231 -198.5q-93 -43 -209 -43q-186 -3 -325 136q-119 122 -148 290q-10 55 -10 95zM371 954v27q2 45 9.5 88t23.5 88t38.5 78.5t58 54.5t79.5 21q66 0 108.5 -47.5t42.5 -112.5q0 -32 -6 -59q-13 -11 -31 0.5 t-20 23.5q7 32 -1 73.5t-30 41.5q-29 2 -54.5 -29.5t-41.5 -81.5t-26.5 -95t-14.5 -83q-3 -54 -1 -103.5t23.5 -87.5t59.5 -44q25 -2 62.5 26.5t37.5 50.5q18 11 33 11q13 0 22 -19q0 -39 -51 -80t-96 -41h-14q-103 13 -158 95t-53 204z" />
<glyph unicode="&#xab;" horiz-adv-x="1050" d="M43 643q3 23 84 92q95 81 180 150q119 100 144 123q62 57 75 88q16 4 25 4h10q36 -9 56 -49t20 -93q0 -16 -4 -36q-63 -47 -198.5 -135t-174.5 -115q-85 -57 -88 -72q19 -28 72 -84q68 -75 131 -143l78 -78q54 -58 67 -70q13 -28 5 -63t-36 -35q-8 0 -12 2q-19 34 -71 88 q-47 53 -150 168t-141 158q-72 84 -72 100zM412 598q3 18 63 72q131 112 336 270q95 71 111 90q18 6 32 6q29 0 42.5 -32.5t13.5 -75.5q0 -27 -6 -51q-42 -31 -103 -66t-107.5 -59t-121 -61.5t-105.5 -53.5q-83 -44 -90 -62q5 -6 78 -69q24 -20 89.5 -74t114 -95.5 t87.5 -78.5q47 -29 22 -65q-23 -29 -49 -29q-8 0 -12 2q-19 24 -50.5 57t-75 76.5l-60.5 60.5t-69 70t-77 80q-60 68 -63 88z" />
<glyph unicode="&#xad;" horiz-adv-x="571" d="M20 696q0 47 48 56h2q24 0 56 -5.5t71.5 -15t58.5 -12.5q82 -16 150 -19q66 -6 83 21q69 -16 66 -51v-2q-3 -37 -37 -54q-71 -6 -143 -6q-89 0 -322 21q-33 20 -33 67z" />
<glyph unicode="&#xae;" horiz-adv-x="958" d="M53 1116q0 154 92 258.5t234 149.5q59 20 94 20q37 0 46 -30.5t-13 -59.5q-126 -28 -199 -86q-81 -66 -113 -167t-1 -226q18 -69 55.5 -133t99.5 -111t131 -45q130 0 238 100q73 62 120.5 161.5t47.5 213.5q0 145 -92 224t-248 85q-12 20 -7.5 36.5t29.5 6.5 q162 -12 260.5 -112t98.5 -262q0 -153 -74 -269t-195 -172q-80 -41 -184 -41q-166 0 -283 123q-137 140 -137 336zM354 993q0 97 29 314q2 16 2 36q3 17 10 17h6q17 -10 23 -19q22 -76 16 -141q-6 -69 2 -72q4 4 19 62q27 117 98 143q36 10 72.5 -24t36.5 -72v-4 q-5 -62 -72 -129q-37 -37 -68 -57q26 -18 61 -91.5t46 -87.5q26 -34 61 -20q19 10 19 -12q-3 -25 -49 -25q-43 0 -82 43q-45 49 -72 98q-20 36 -47 56q-20 -4 -23 -4q0 -22 9 -92t2 -105q0 -14 -17 -14q-22 -4 -45.5 15t-25.5 32q-11 93 -11 153zM457 1055h8q10 0 22 8 q53 47 82 123q17 42 17 59q0 28 -21 37h-4q-17 0 -53 -53q-39 -56 -51 -174z" />
<glyph unicode="&#xaf;" horiz-adv-x="919" d="M57 1501v2q3 39 37 56q202 20 490 20q20 2 59 2q51 0 76 -2q75 0 104 -2q32 -23 35 -61q0 -53 -51 -62q-45 0 -164 10t-137 11q-132 6 -252 6q-115 -3 -131 -29q-69 16 -66 49z" />
<glyph unicode="&#xb0;" horiz-adv-x="450" d="M20 1452q0 72 41 118t109 60q22 6 37 -14v4q-3 26 14 29q6 0 8 -2q90 0 146 -60.5t51 -150.5q-2 -89 -60.5 -146t-152.5 -57h-2q-85 0 -138 64.5t-53 154.5zM146.5 1481q-2.5 -21 0.5 -43.5t11 -44.5q15 -37 42.5 -66.5t61.5 -26.5q74 9 98 97q22 76 -14 132t-113 56 q-10 0 -12 2q10 -33 -24 -55q-22 -2 -35 -16t-15.5 -35z" />
<glyph unicode="&#xb4;" horiz-adv-x="311" d="M27 1456q4 30 8 45q6 10 22.5 42.5t24 45t22.5 35.5t30.5 38.5t35.5 29.5h12q37 0 66.5 -32.5t19.5 -68.5q-20 -4 -47 -41q-75 -94 -112 -120q-17 -15 -46 -23h-4q-32 0 -32 49z" />
<glyph unicode="&#xb5;" horiz-adv-x="813" d="M125 555v76q3 161 18 219q20 59 84 65t78 -34q20 -45 -4 -129q-23 -80 -20 -168q49 -307 133 -473q53 -103 125 -103q14 0 14 78q0 57 -7 201.5t-7 210.5q0 296 71 401q24 38 78 41h17q64 0 75 -47v-12q2 -8 -2 -21q-53 -42 -53 -160q-1 -60 1 -187.5t0 -233t-13 -183.5 q-9 -59 -68 -100q-60 -42 -96 -39q-48 0 -94 27q-156 91 -187 426q4 -85 -2 -273.5t-6 -212.5v-182q4 -109 8 -162q0 -13 -20.5 -35t-44.5 -22q-33 0 -60 43q10 23 7 133q-2 112 -13.5 408t-11.5 448z" />
<glyph unicode="&#xb6;" horiz-adv-x="866" d="M39 1190q0 83 61 153q64 73 189 121q130 51 334 54q22 -2 39.5 -19.5t17.5 -42.5q0 -26 -35 -41q-303 -10 -428 -129q-41 -42 -52.5 -89.5t4.5 -88.5t50 -75t80 -54q79 -33 164 -33q-12 306 -12 361q19 22 63 22q23 0 33 -10t11 -21.5t1 -44.5q2 -23 2 -88q2 -57 2 -204 l27 6q20 -9 20 -39q0 -29 -22 -29q-6 -2 -12.5 -3t-12.5 -3l2 -136l2 -136q3 -209 11 -334q6 -147 24 -156q-3 -58 -39 -61h-4q-30 0 -51 24l-6 66q-4 97 -16.5 336.5t-16.5 355.5q-2 8 -2 25h-35q-142 0 -244.5 65t-136.5 170q-12 32 -12 78zM638 1242q0 21 0.5 42.5 t0.5 30.5v12.5v12v11t1 10.5t2.5 8t3.5 7.5t5 5t7.5 3.5t9.5 1h6q22 -3 35 -26q0 -19 12 -172q4 -48 11.5 -163t12.5 -181l13 -164q16 -171 33 -401q6 -102 6 -113q-3 -37 -33 -37h-10q-39 9 -60 39q-7 44 -16 178q-23 332 -39 854q-1 21 -1 42z" />
<glyph unicode="&#xbb;" horiz-adv-x="1021" d="M27 928q0 108 55 108q15 0 33 -6q6 -7 80 -65q302 -242 337 -271q88 -73 91 -96h2q0 -12 -45 -66q-39 -44 -109 -114q-128 -133 -149 -154q-78 -78 -93 -98q-4 -2 -14 -2q-24 0 -47 29q-25 36 22 65q12 12 38.5 35.5t31.5 28.5l80 67q46 37 139 117q65 55 78 69 q-8 20 -90 62q-28 14 -104.5 53t-121 62t-105.5 58.5t-103 66.5q-6 24 -6 51zM397 958q0 55 22.5 98.5t65.5 43.5q9 0 25 -4q12 -30 76 -88q129 -116 321 -273q83 -71 86 -92q0 -13 -49 -74q-62 -74 -289 -321q-79 -85 -98 -119q-4 -2 -10 -2q-28 0 -36 35t5 63 q91 85 277 289q51 56 71 86q-3 15 -88 72q-43 30 -176.5 117t-196.5 133q-6 15 -6 36z" />
<glyph unicode="&#xbf;" horiz-adv-x="759" d="M43 334q0 -155 119 -256q88 -77 203 -72h24q83 7 164 53t135.5 122.5t54.5 160.5q0 55 -42 98.5t-95 20.5q-20 -10 -31 -29q-14 -17 -20 -51q7 -48 -16 -94.5t-58 -81.5q-17 -18 -36 -35t-48 -35t-56.5 -28t-60 -7.5t-59.5 21.5q-44 28 -57 77.5t2 106t36.5 104 t49.5 91.5q40 67 96 129t111 94q40 26 59 59q23 44 34.5 107t8.5 127q-3 79 19 104q-3 26 -23 43t-51 17q-39 0 -51 -52q17 -140 9 -197q-14 -94 -83 -118q-122 -46 -224 -177t-114 -274v-28zM414 1468q0 42 29 68.5t71 26.5h12q21 -3 28 -19.5t10.5 -38.5t13.5 -32 q-5 -33 -33 -68t-58 -35q-31 0 -52 30.5t-21 67.5z" />
<glyph unicode="&#xc0;" d="M41 776v60q6 300 33 503q27 204 12 228q14 22 37 22q29 0 55.5 -23t28.5 -42q13 -51 22 -236q11 -204 11 -213q3 -96 10 -100q40 201 141 416q37 79 84 135q30 38 67 49.5t70.5 -2t63.5 -45t49 -74.5q65 -149 87 -369t22 -514v-145q-1 -44 -7 -252v-96q0 -35 4 -55 q-21 -41 -86 -41q-111 0 -147 71q-19 113 -16 291q0 103 2 156q-15 0 -21 -2q-125 -14 -278 -58q0 -8 2 -12q13 -119 24 -369q-14 -37 -104 -22q-93 15 -109 82q-57 311 -57 657zM258 827q10 -214 23 -342q7 2 42 11t54 14q104 22 205 33h2q2 78 7 214t8.5 232.5t3 218.5 t-6.5 217q-6 118 -37 121t-76 -76q-98 -172 -182 -456q-39 -124 -43 -187zM408 1810q-3 31 27.5 58.5t60.5 27.5h4q21 -12 38 -26t33.5 -34t26.5 -33.5t28 -40.5t27 -40q13 -32 13 -61v-2q0 -37 -31 -37q-33 6 -80 43q-39 33 -84 82q-38 44 -59 41q-4 12 -4 22z" />
<glyph unicode="&#xc1;" d="M41 776v60q6 300 33 503q27 204 12 228q14 22 37 22q29 0 55.5 -23t28.5 -42q13 -51 22 -236q11 -204 11 -213q3 -96 10 -100q40 201 141 416q37 79 84 135q30 38 67 49.5t70.5 -2t63.5 -45t49 -74.5q65 -149 87 -369t22 -514v-145q-1 -44 -7 -252v-96q0 -35 4 -55 q-21 -41 -86 -41q-111 0 -147 71q-19 113 -16 291q0 103 2 156q-15 0 -21 -2q-125 -14 -278 -58q0 -8 2 -12q13 -119 24 -369q-14 -37 -104 -22q-93 15 -109 82q-57 311 -57 657zM258 827q10 -214 23 -342q7 2 42 11t54 14q104 22 205 33h2q2 78 7 214t8.5 232.5t3 218.5 t-6.5 217q-6 118 -37 121t-76 -76q-98 -172 -182 -456q-39 -124 -43 -187zM467 1657v2q0 37 12 61q6 8 19.5 29t19.5 30t18 25.5t21 26.5t21.5 22.5t26 22t28.5 18.5h4q30 0 59 -28t29 -58q0 -16 -4 -24q-25 4 -62 -39q-45 -49 -84 -82q-35 -35 -75 -43q-33 0 -33 37z" />
<glyph unicode="&#xc2;" d="M41 776v60q6 300 33 503q27 204 12 228q14 22 37 22q29 0 55.5 -23t28.5 -42q13 -51 22 -236q11 -204 11 -213q3 -96 10 -100q40 201 141 416q37 79 84 135q30 38 67 49.5t70.5 -2t63.5 -45t49 -74.5q65 -149 87 -369t22 -514v-145q-1 -44 -7 -252v-96q0 -35 4 -55 q-21 -41 -86 -41q-111 0 -147 71q-19 113 -16 291q0 103 2 156q-15 0 -21 -2q-125 -14 -278 -58q0 -8 2 -12q13 -119 24 -369q-14 -37 -104 -22q-93 15 -109 82q-57 311 -57 657zM258 827q10 -214 23 -342q7 2 42 11t54 14q104 22 205 33h2q2 78 7 214t8.5 232.5t3 218.5 t-6.5 217q-6 118 -37 121t-76 -76q-98 -172 -182 -456q-39 -124 -43 -187zM328 1692q0 6 4 14q12 3 28 15t26.5 23.5t27.5 31t22 24.5q7 8 32 37.5t38 44.5q30 37 45 37q9 0 39 -43q18 -24 59.5 -83t59.5 -83q21 -30 34 -43v-2q0 -14 -30 -14q-36 3 -51 12q-43 55 -64 102 q-25 52 -37 64q-10 -5 -29 -74q-16 -68 -63 -115q-4 -2 -14 -2q-30 0 -78 16.5t-49 37.5z" />
<glyph unicode="&#xc3;" d="M41 776v60q6 300 33 503q27 204 12 228q14 22 37 22q29 0 55.5 -23t28.5 -42q13 -51 22 -236q11 -204 11 -213q3 -96 10 -100q40 201 141 416q37 79 84 135q30 38 67 49.5t70.5 -2t63.5 -45t49 -74.5q65 -149 87 -369t22 -514v-145q-1 -44 -7 -252v-96q0 -35 4 -55 q-21 -41 -86 -41q-111 0 -147 71q-19 113 -16 291q0 103 2 156q-15 0 -21 -2q-125 -14 -278 -58q0 -8 2 -12q13 -119 24 -369q-14 -37 -104 -22q-93 15 -109 82q-57 311 -57 657zM221 1735q0 46 12.5 82.5t44.5 55.5t78 3q57 -16 189 -78q54 -23 69 -14q31 19 -45 69 q-8 23 21 44.5t55 21.5h8q46 -15 74.5 -68.5t28.5 -117.5v-23q-4 -44 -33 -68t-74 -24q-52 0 -95 22t-91 60q-71 57 -123 94q-20 12 -39 -6t-19.5 -40.5t17.5 -33.5q0 -21 -14.5 -30.5t-32.5 -4.5t-27 21q-4 20 -4 35zM258 827q10 -214 23 -342q7 2 42 11t54 14 q104 22 205 33h2q2 78 7 214t8.5 232.5t3 218.5t-6.5 217q-6 118 -37 121t-76 -76q-98 -172 -182 -456q-39 -124 -43 -187z" />
<glyph unicode="&#xc4;" d="M41 776v60q6 300 33 503q27 204 12 228q14 22 37 22q29 0 55.5 -23t28.5 -42q13 -51 22 -236q11 -204 11 -213q3 -96 10 -100q40 201 141 416q37 79 84 135q30 38 67 49.5t70.5 -2t63.5 -45t49 -74.5q65 -149 87 -369t22 -514v-145q-1 -44 -7 -252v-96q0 -35 4 -55 q-21 -41 -86 -41q-111 0 -147 71q-19 113 -16 291q0 103 2 156q-15 0 -21 -2q-125 -14 -278 -58q0 -8 2 -12q13 -119 24 -369q-14 -37 -104 -22q-93 15 -109 82q-57 311 -57 657zM258 827q10 -214 23 -342q7 2 42 11t54 14q104 22 205 33h2q2 78 7 214t8.5 232.5t3 218.5 t-6.5 217q-6 118 -37 121t-76 -76q-98 -172 -182 -456q-39 -124 -43 -187zM358 1712q0 32 32 61t63 29q3 -14 14.5 -23t23.5 -13t22 -14t11 -26v-6q0 -37 -21 -66.5t-54 -29.5q-30 0 -60.5 30.5t-30.5 57.5zM600 1724q0 34 19 64.5t45 34.5h10q31 0 57 -34t31 -67 q-14 -17 -14 -53q-3 -39 -50 -39q-41 0 -69.5 26.5t-28.5 67.5z" />
<glyph unicode="&#xc5;" d="M41 776v60q6 300 33 503q27 204 12 228q14 22 37 22q29 0 55.5 -23t28.5 -42q13 -51 22 -236q11 -204 11 -213q3 -96 10 -100q40 201 141 416q37 79 84 135q30 38 67 49.5t70.5 -2t63.5 -45t49 -74.5q65 -149 87 -369t22 -514v-145q-1 -44 -7 -252v-96q0 -35 4 -55 q-21 -41 -86 -41q-111 0 -147 71q-19 113 -16 291q0 103 2 156q-15 0 -21 -2q-125 -14 -278 -58q0 -8 2 -12q13 -119 24 -369q-14 -37 -104 -22q-93 15 -109 82q-57 311 -57 657zM258 827q10 -214 23 -342q7 2 42 11t54 14q104 22 205 33h2q2 78 7 214t8.5 232.5t3 218.5 t-6.5 217q-6 118 -37 121t-76 -76q-98 -172 -182 -456q-39 -124 -43 -187zM397 1753q0 53 35.5 85t91.5 38q15 3 27 -18v6q-2 12 1.5 18.5t10.5 5.5h12q55 0 88 -36.5t33 -96.5q0 -61 -46.5 -103t-112.5 -42q-60 0 -100 41.5t-40 101.5zM515 1784.5q-7 -15.5 3 -47.5 q12 -38 37.5 -50.5t49.5 4t32 52.5q9 45 -9.5 72.5t-62.5 23.5q-5 -3 -8 0q9 -30 -10 -41q-25 2 -32 -13.5z" />
<glyph unicode="&#xc6;" horiz-adv-x="1386" d="M47 776v60q6 283 35 503q27 205 10 228q14 22 37 22q29 0 55.5 -23t28.5 -42q16 -66 25 -236q8 -159 10 -213q3 -95 8 -100q2 5 29 94q8 24 24.5 80t22.5 76q67 197 151 301q56 64 120 51.5t106 -84.5q68 -112 82 -258q48 194 106 334q21 18 53 18q47 0 86 -35 q63 -27 303 0q16 0 19 -10v-6q0 -4 -4 -12q-72 -33 -166 -39q-75 -2 -127 -15q-9 -15 -21 -108q-44 -349 -59 -825q-6 -143 0 -158q14 -14 100 2q91 20 144 51q15 0 20.5 -11.5t2 -25t-10.5 -22.5q-62 -42 -139 -51q-66 -8 -103 -17q-9 -9 0 -53q12 -98 47 -158 q15 -31 27 -33q52 -4 254 86q12 -15 0 -36q-67 -39 -149 -72q-16 -7 -39 -17t-32 -14t-24 -8.5t-28 -6t-31 -1.5q-61 0 -125.5 25.5t-89.5 58.5q0 -42 4 -66q-27 -35 -76 -35q-88 0 -129 78q-17 121 -14 291q0 103 2 156q-15 0 -21 -2q-127 -14 -278 -58q0 -8 2 -12 q13 -119 24 -369q-14 -37 -106 -22q-91 15 -107 82q-59 322 -59 657zM264 827q8 -178 25 -342q7 2 42 11t54 14q104 22 205 33h2q3 91 6 186q1 59 4.5 169.5t5.5 187t1.5 172.5t-5.5 167q-6 118 -37 121q-30 3 -75 -76q-100 -176 -183 -456q-42 -132 -45 -187z" />
<glyph unicode="&#xc7;" horiz-adv-x="770" d="M47 770v23q0 139 39 325q44 194 135 316q101 135 232 135q287 0 254 -404q-2 -7 -9.5 -15.5t-17 -14.5t-19 -9t-17.5 3t-11 20q13 58 10 121t-16 117t-48.5 91t-86.5 42q-65 3 -103 -127q-72 -243 -72 -631q0 -124 39 -299q30 -148 90 -275q56 -125 121 -125q41 0 66 73 t31 151t2 139q11 20 33.5 11.5t25.5 -27.5q0 -49 -6 -160q-11 -178 -98 -238q-28 -22 -68 -22h-2v-10q0 -18 12 -23q63 -28 107.5 -90.5t44.5 -136.5v-2q0 -57 -48 -105.5t-112 -48.5q-69 0 -127.5 51t-58.5 117v12q3 37 67 49q62 9 70 -43q-4 -29 4 -62.5t28 -51t54 5.5 q30 25 27.5 60.5t-28.5 74.5t-54 68.5t-48 42.5q-20 14 -30 100q-103 23 -193 113q-106 112 -160 286q-56 183 -59 373z" />
<glyph unicode="&#xc8;" horiz-adv-x="727" d="M61 598v41q0 234 43 465q52 264 136 465q21 18 53 18q47 0 86 -35q63 -27 303 0q15 0 18 -10v-6q0 -4 -4 -12q-72 -33 -166 -39q-77 -3 -129 -15q-9 -22 -24 -157q-51 -498 -58 -826q-3 -88 5 -108q14 -14 100 2q87 19 141 51q23 -1 25 -23.5t-12 -35.5q-62 -42 -138 -51 q-64 -8 -102 -17q-4 -6 -5 -15.5t1 -25t3.5 -24t6 -26.5t4.5 -19q31 -130 64 -134q56 -4 254 84q14 -14 0 -34q-64 -37 -150 -72q-15 -7 -40.5 -18t-33 -14t-24 -8t-30.5 -6t-36 -1q-69 0 -132.5 22.5t-84.5 57.5q-71 246 -74 526zM291 1804q0 33 29 59.5t59 26.5h4 q18 -10 35 -23t28 -23.5t25.5 -30t21 -28.5t23 -35t21.5 -34q15 -27 12 -61v-2q0 -37 -33 -37q-27 5 -78 45q-51 44 -82 80q-41 44 -61 41q-4 16 -4 22z" />
<glyph unicode="&#xc9;" horiz-adv-x="727" d="M61 598v41q0 234 43 465q52 264 136 465q21 18 53 18q47 0 86 -35q63 -27 303 0q15 0 18 -10v-6q0 -4 -4 -12q-72 -33 -166 -39q-77 -3 -129 -15q-5 -12 -8.5 -31t-6.5 -49.5t-5 -41.5q-46 -408 -62 -811q-3 -139 5 -158q14 -14 100 2q87 19 141 51q15 0 20.5 -11.5 t2.5 -25.5t-10 -22q-62 -42 -138 -51q-64 -8 -102 -17q-6 -8 -6.5 -22t3 -33t7 -33t9.5 -34t7 -23q7 -31 27 -66q15 -31 27 -33q52 -4 254 86q12 -15 0 -36q-64 -37 -150 -72q-15 -7 -40.5 -18t-33 -14t-24 -8t-30.5 -6t-36 -1q-69 0 -132.5 22.5t-84.5 57.5 q-71 246 -74 526zM336 1657v2q0 34 12 61q10 14 33 48.5t35.5 51t36 38.5t49.5 36q2 2 4 2q29 0 58.5 -27.5t29.5 -58.5q0 -8 -4 -24q-23 3 -62 -39q-64 -75 -122 -111q-17 -11 -37 -14q-33 0 -33 35z" />
<glyph unicode="&#xca;" horiz-adv-x="727" d="M61 598v41q0 234 43 465q52 264 136 465q21 18 53 18q47 0 86 -35q63 -27 303 0q15 0 18 -10v-6q0 -4 -4 -12q-72 -33 -166 -39q-77 -3 -129 -15q-5 -12 -8.5 -31t-6.5 -49.5t-5 -41.5q-46 -408 -62 -811q-3 -139 5 -158q14 -14 100 2q87 19 141 51q15 0 20.5 -11.5 t2.5 -25.5t-10 -22q-62 -42 -138 -51q-64 -8 -102 -17q-6 -8 -6.5 -22t3 -33t7 -33t9.5 -34t7 -23q7 -31 27 -66q15 -31 27 -33q52 -4 254 86q12 -15 0 -36q-64 -37 -150 -72q-15 -7 -40.5 -18t-33 -14t-24 -8t-30.5 -6t-36 -1q-69 0 -132.5 22.5t-84.5 57.5 q-71 246 -74 526zM248 1688q0 6 4 14q9 2 19.5 9t24.5 20.5t20 20t22 25.5l16 19q61 71 70 82q37 40 45 37q6 0 29 -29q32 -38 118 -164q36 -52 48 -59q0 -16 -31 -16q-35 3 -53 12q-43 60 -62 102q-26 54 -39 64q-10 -5 -26 -74q-17 -61 -68 -115h-10q-30 -2 -78.5 14 t-48.5 38z" />
<glyph unicode="&#xcb;" horiz-adv-x="727" d="M61 598v41q0 234 43 465q52 264 136 465q21 18 53 18q47 0 86 -35q63 -27 303 0q15 0 18 -10v-6q0 -4 -4 -12q-72 -33 -166 -39q-77 -3 -129 -15q-5 -12 -8.5 -31t-6.5 -49.5t-5 -41.5q-46 -408 -62 -811q-3 -139 5 -158q14 -14 100 2q87 19 141 51q15 0 20.5 -11.5 t2.5 -25.5t-10 -22q-62 -42 -138 -51q-64 -8 -102 -17q-6 -8 -6.5 -22t3 -33t7 -33t9.5 -34t7 -23q7 -31 27 -66q15 -31 27 -33q52 -4 254 86q12 -15 0 -36q-64 -37 -150 -72q-15 -7 -40.5 -18t-33 -14t-24 -8t-30.5 -6t-36 -1q-69 0 -132.5 22.5t-84.5 57.5 q-71 246 -74 526zM248 1743q5 34 31.5 67t58.5 33h8q28 -4 45.5 -31.5t20.5 -64.5q0 -42 -29.5 -68t-71.5 -26q-27 0 -36.5 15t-13 39.5t-13.5 35.5zM485 1743v6q1 14 11 24.5t22.5 15t25 13.5t15.5 21q32 1 62 -28t30 -60v-9q-5 -27 -32.5 -53t-57.5 -26h-6q-28 3 -49 33 t-21 63z" />
<glyph unicode="&#xcc;" horiz-adv-x="606" d="M27 1540q0 11 10 21q29 2 86 2q50 0 161.5 -2t149.5 -2q12 0 16.5 -4.5t1.5 -11.5t-7 -12.5t-9 -10.5q-42 -2 -94 2q-38 3 -47 0q13 -81 37.5 -230.5t39.5 -241t32.5 -232.5t24.5 -251t6.5 -247t-13.5 -267q41 0 99.5 -7t58.5 -23q0 -5 -7 -12t-14 -11q-108 7 -285 23 q-100 9 -204 -3q-9 9 -9 21q0 7 9 16q12 0 65 4.5t66 -0.5q-7 124 -11 306v307q1 101 4.5 272.5t4.5 239.5q6 223 -4 336q-9 -3 -77.5 -0.5t-80.5 2.5q-13 7 -10 16zM104 1796q-3 31 28 58.5t61 27.5h4q21 -12 38 -26t33.5 -34t26.5 -33.5t28 -40.5t27 -40q12 -30 12 -63v-3 q0 -34 -32 -34q-34 7 -78 45q-48 42 -84 80q-36 42 -59 39q-5 20 -5 24z" />
<glyph unicode="&#xcd;" horiz-adv-x="606" d="M27 1540q0 11 10 21q29 2 86 2q50 0 161.5 -2t149.5 -2q12 0 16.5 -4.5t1.5 -11.5t-7 -12.5t-9 -10.5q-42 -2 -94 2q-38 3 -47 0q13 -81 37.5 -230.5t39.5 -241t32.5 -232.5t24.5 -251t6.5 -247t-13.5 -267q41 0 99.5 -7t58.5 -23q0 -5 -7 -12t-14 -11q-108 7 -285 23 q-100 9 -204 -3q-9 9 -9 21q0 7 9 16q12 0 65 4.5t66 -0.5q-7 124 -11 306v307q1 101 4.5 272.5t4.5 239.5q6 223 -4 336q-9 -3 -77.5 -0.5t-80.5 2.5q-13 7 -10 16zM131 1659v2q0 36 14 61q5 7 22 34t23 35.5t21.5 29t26 30.5t27 23.5t34.5 23.5h4q30 0 59 -27.5t29 -58.5 q0 -8 -4 -24q-25 3 -61 -39q-3 -3 -15.5 -18t-17 -20t-17 -18t-20 -19l-20 -16t-22 -15.5t-22.5 -10.5t-26 -8q-32 0 -35 35z" />
<glyph unicode="&#xce;" horiz-adv-x="606" d="M27 1540q0 11 10 21q29 2 86 2q50 0 161.5 -2t149.5 -2q12 0 16.5 -4.5t1.5 -11.5t-7 -12.5t-9 -10.5q-42 -2 -94 2q-38 3 -47 0q13 -81 37.5 -230.5t39.5 -241t32.5 -232.5t24.5 -251t6.5 -247t-13.5 -267q41 0 99.5 -7t58.5 -23q0 -5 -7 -12t-14 -11q-108 7 -285 23 q-100 9 -204 -3q-9 9 -9 21q0 7 9 16q12 0 65 4.5t66 -0.5q-7 124 -11 306v307q1 101 4.5 272.5t4.5 239.5q6 223 -4 336q-9 -3 -77.5 -0.5t-80.5 2.5q-13 7 -10 16zM27 1690q0 2 4 14q16 3 43 33q25 24 72 76t59 65q31 39 41 39q8 0 33 -31q8 -11 24.5 -33.5t24.5 -33.5 l67 -97q30 -47 47 -57v-2q0 -17 -32 -14q-33 0 -50 10q-40 55 -63 102q-24 53 -37 66q-12 -6 -31 -74q-15 -65 -65 -115q-2 -2 -12 -2q-33 0 -78.5 16t-46.5 38z" />
<glyph unicode="&#xcf;" horiz-adv-x="606" d="M27 1540q0 11 10 21q29 2 86 2q50 0 161.5 -2t149.5 -2q12 0 16.5 -4.5t1.5 -11.5t-7 -12.5t-9 -10.5q-42 -2 -94 2q-38 3 -47 0q13 -81 37.5 -230.5t39.5 -241t32.5 -232.5t24.5 -251t6.5 -247t-13.5 -267q41 0 99.5 -7t58.5 -23q0 -5 -7 -12t-14 -11q-108 7 -285 23 q-100 9 -204 -3q-9 9 -9 21q0 7 9 16q12 0 65 4.5t66 -0.5q-7 124 -11 306v307q1 101 4.5 272.5t4.5 239.5q6 223 -4 336q-9 -3 -77.5 -0.5t-80.5 2.5q-13 7 -10 16zM72 1726v7q3 26 32.5 52.5t57.5 26.5h8q27 -3 49.5 -33.5t21 -64.5t-35.5 -45q-33 -10 -39 -33 q-31 0 -62.5 29t-31.5 61zM313 1712q0 40 29 67t70 27h14q20 -3 27 -19.5t10 -38.5t12 -32q-5 -33 -31.5 -67.5t-56.5 -34.5q-33 0 -53.5 29t-20.5 69z" />
<glyph unicode="&#xd1;" horiz-adv-x="929" d="M41 379v6q0 120 7 267t14.5 251.5t21 272.5t18.5 241q6 118 -6 133q23 45 70 45q71 0 98 -65q44 -416 17 -686q11 21 28 71t21 60q116 281 288 469q22 22 46 31q66 14 119 -33t61 -111q16 -92 13.5 -231t-11.5 -237t-21 -236t-14 -228q-8 -241 59 -295q4 -16 4 -22 q0 -39 -31 -61.5t-75 -22.5h-18q-74 6 -103 51q-30 45 -46.5 113t-18.5 153.5t1 157.5t11 166q10 116 41 345t37 284q6 58 6 92q-3 35 -12 35q-48 9 -125 -115q-136 -213 -219 -453q-30 -87 -39 -139q-3 -40 0 -96q0 -64 4.5 -189t5.5 -170q3 -117 -12 -161 q-23 -48 -109 -39q-85 9 -106 80q-25 103 -25 266zM324 1688q0 73 34 118t101 25q60 -17 188 -80q54 -23 70 -14q31 22 -43 71q-8 21 21.5 42.5t54.5 21.5q30 0 56 -33.5t38 -69.5q16 -46 16 -83q0 -113 -106 -113h-9q-87 5 -180 82q-13 10 -39.5 32t-44.5 35.5t-37 24.5 q-22 11 -41 -7t-19.5 -40t17.5 -33q-1 -22 -15 -30.5t-31 -2.5t-27 21q-4 20 -4 33z" />
<glyph unicode="&#xd2;" horiz-adv-x="960" d="M55 643q0 125 8 213q28 458 226 631q88 76 231 76q44 0 64 -2q87 -12 166 -138q69 -107 114.5 -281t46.5 -343v-15q0 -202 -48 -374t-136 -289q-88 -122 -223 -125h-10q-94 0 -166.5 29.5t-120 84t-77 120.5t-48.5 151q-25 122 -25 242q-2 8 -2 20zM299 752 q0 -318 84 -568q50 -135 131 -141h16q104 -3 166 119q115 239 115 643q2 2 2 6q-9 331 -115 584q-52 119 -110 125h-8q-64 0 -125 -107q-71 -130 -113.5 -303.5t-42.5 -357.5zM379 1810q0 31 29.5 58.5t58.5 27.5l2 -2q18 -9 34.5 -22.5t27.5 -23.5t26.5 -30t22 -29.5 t23.5 -35t22 -33.5q12 -27 12 -61v-2q0 -35 -33 -35q-32 4 -78 41q-37 32 -82 84q-39 42 -61 39q-4 16 -4 24z" />
<glyph unicode="&#xd3;" horiz-adv-x="960" d="M55 643q0 125 8 213q28 458 226 631q88 76 231 76q44 0 64 -2q87 -12 166 -138q69 -107 114.5 -281t46.5 -343v-15q0 -248 -69.5 -455.5t-204.5 -293.5q-64 -39 -133 -39h-10q-94 0 -166.5 29.5t-120 84t-77 120.5t-48.5 151q-25 122 -25 242q-2 8 -2 20zM299 752 q0 -318 84 -568q50 -135 131 -141h14q106 -5 177 137q63 126 86 301q20 173 20 324q2 2 2 6q-9 331 -115 584q-52 119 -110 125h-8q-64 0 -125 -107q-71 -130 -113.5 -303.5t-42.5 -357.5zM422 1645v2q0 34 12 61q8 11 27 39.5t28.5 41.5t26.5 33t34 34t38 26h4 q30 0 59 -27.5t29 -58.5q0 -10 -4 -22q-21 3 -62 -41q-61 -71 -122 -109q-20 -14 -37 -16q-33 0 -33 37z" />
<glyph unicode="&#xd4;" horiz-adv-x="960" d="M55 643q0 125 8 213q28 458 226 631q88 76 231 76q44 0 64 -2q87 -12 166 -138q69 -107 114.5 -281t46.5 -343v-15q0 -202 -48 -374t-136 -289q-88 -122 -223 -125h-10q-94 0 -166.5 29.5t-120 84t-77 120.5t-48.5 151q-25 122 -25 242q-2 8 -2 20zM299 752 q0 -318 84 -568q50 -135 131 -141h16q104 -3 166 119q115 239 115 643q2 2 2 6q-9 331 -115 584q-52 119 -110 125h-8q-64 0 -125 -107q-71 -130 -113.5 -303.5t-42.5 -357.5zM309 1653l4 12q19 3 58 45q22 24 66 73t61 68q27 27 32 27t31 -29q19 -25 119 -163 q30 -49 45 -58v-2q0 -16 -31 -16q-36 3 -51 12q-38 49 -63 104q-25 52 -35 62q-13 -6 -31 -72q-16 -68 -65 -117q-2 -2 -13 -2q-30 0 -78 17.5t-49 38.5z" />
<glyph unicode="&#xd5;" horiz-adv-x="960" d="M55 643q0 125 8 213q28 458 226 631q88 76 231 76q44 0 64 -2q87 -12 166 -138q69 -107 114.5 -281t46.5 -343v-15q0 -202 -48 -374t-136 -289q-88 -122 -223 -125h-10q-94 0 -166.5 29.5t-120 84t-77 120.5t-48.5 151q-25 122 -25 242q-2 8 -2 20zM213 1718 q0 74 34.5 119.5t100.5 22.5q72 -20 191 -78q53 -23 67 -15q22 14 -2 37.5t-41 32.5q-10 21 20.5 43.5t55.5 22.5h6q46 -15 75.5 -69.5t29.5 -117.5q0 -54 -28 -84t-79 -30h-8q-58 6 -108 33t-114.5 80t-78.5 63q-21 11 -40 -7t-19.5 -40t18.5 -33q-1 -21 -15.5 -31 t-32.5 -5t-28 21q-4 20 -4 35zM299 752q0 -318 84 -568q50 -135 131 -141h16q104 -3 166 119q115 239 115 643q2 2 2 6q-9 331 -115 584q-52 119 -110 125h-8q-64 0 -125 -107q-71 -130 -113.5 -303.5t-42.5 -357.5z" />
<glyph unicode="&#xd6;" horiz-adv-x="960" d="M55 643q0 125 8 213q28 458 226 631q88 76 231 76q44 0 64 -2q87 -12 166 -138q69 -107 114.5 -281t46.5 -343v-15q0 -202 -48 -374t-136 -289q-88 -122 -223 -125h-10q-94 0 -166.5 29.5t-120 84t-77 120.5t-48.5 151q-25 122 -25 242q-2 8 -2 20zM299 752 q0 -318 84 -568q50 -135 131 -141h16q104 -3 166 119q115 239 115 643q2 2 2 6q-9 331 -115 584q-52 119 -110 125h-8q-64 0 -125 -107q-71 -130 -113.5 -303.5t-42.5 -357.5zM334 1731v6q-3 31 28.5 60.5t63.5 29.5q5 -16 39 -35t35 -43v-4q0 -33 -20 -62t-48 -32h-8 q-32 0 -58.5 26t-31.5 54zM573 1749q0 37 21.5 67.5t52.5 30.5q31 -3 58 -35t32 -65q-7 -9 -11 -25t-5.5 -28.5t-10 -23t-24.5 -13.5h-12q-44 0 -72.5 25t-28.5 67z" />
<glyph unicode="&#xd7;" horiz-adv-x="815" d="M66 342q18 28 49 66t51 60.5t67.5 73t57.5 60.5q17 18 32 34t31 34q-40 40 -114 118l-113 113q-8 13 -8 29q0 21 22.5 33t48.5 12q7 0 27 -4q118 -109 207 -223q241 260 260 284q8 2 23 2q23 0 43 -11t20 -30q0 -8 -3.5 -16t-6 -11t-11.5 -13t-12 -13q-57 -63 -178 -184 l-74 -76q166 -188 250 -305q10 -20 10 -33q-4 -29 -20 -29q-3 0 -29 11q-20 24 -86 90q-11 11 -42.5 44.5t-50 52.5t-48 47.5t-53.5 49.5q-103 -103 -183 -196q-72 -85 -63 -103q-29 -33 -53 -33q-21 0 -36 22.5t-15 43.5z" />
<glyph unicode="&#xd8;" horiz-adv-x="960" d="M55 655q0 123 8 211q28 458 226 629q93 80 231 80q87 0 138 -35t92 -106q68 -107 114 -281.5t47 -343.5v-14q0 -202 -48 -375.5t-136 -290.5q-86 -120 -223 -123h-10q-94 0 -166.5 29.5t-120 84t-77 119.5t-48.5 150q-25 122 -25 246q-2 6 -2 20zM299 762q0 -313 84 -567 q50 -136 131 -142h16q104 -3 166 119q115 239 115 641q2 2 2 8q-4 160 -34.5 313t-80.5 271q-53 127 -118 127q-63 0 -125 -109q-71 -130 -113.5 -303.5t-42.5 -357.5z" />
<glyph unicode="&#xd9;" horiz-adv-x="1028" d="M51 1538q19 57 92 57q50 0 91 -25.5t59 -62.5q39 -181 39 -661q2 -123 2 -357q0 -168 12 -276q11 -119 41 -123q52 -3 123 96q119 156 195 367q22 65 22 111q5 66 15 235.5t22 291.5t33 218q12 47 73 47q65 3 95 -55q-49 -435 -66 -625q-22 -239 -12 -448q9 -201 71 -336 q-16 -25 -47 -25q-35 0 -69 25t-31 45q-40 134 -63 319q-15 88 -15 150q-40 -120 -108 -244t-142 -188q-35 -31 -74 -37t-73 9t-61.5 37t-47.5 50q-49 72 -82 176.5t-49.5 235t-23 242t-9.5 257.5q-7 199 -4 318q0 143 -8 176zM418 1788q0 31 30.5 58.5t59.5 27.5q2 0 4 -2 q18 -9 34.5 -22.5t27.5 -23.5t25.5 -30t21 -29.5t22.5 -35t21 -33.5q14 -25 14 -62v-2q0 -35 -35 -35q-33 5 -76 43q-44 35 -84 82q-36 42 -59 39q-6 12 -6 25z" />
<glyph unicode="&#xda;" horiz-adv-x="1028" d="M51 1538q19 57 92 57q50 0 91 -25.5t59 -62.5q39 -181 39 -661q2 -123 2 -357q0 -168 12 -276q11 -119 41 -123q52 -3 123 96q119 156 195 367q22 65 22 111q5 66 15 235.5t22 291.5t33 218q12 47 73 47q65 3 95 -55q-49 -435 -66 -625q-22 -239 -12 -448q9 -201 71 -336 q-16 -25 -47 -25q-35 0 -69 25t-31 45q-40 134 -63 319q-15 88 -15 150q-40 -120 -108 -244t-142 -188q-35 -31 -74 -37t-73 9t-61.5 37t-47.5 50q-49 72 -82 176.5t-49.5 235t-23 242t-9.5 257.5q-7 199 -4 318q0 143 -8 176zM475 1647v2q0 33 12 63q8 11 27 39.5 t28.5 41.5t26.5 33t34 34t38 26h4q30 0 59 -27.5t29 -58.5q0 -8 -4 -24q-23 3 -59 -39q-71 -79 -121 -111q-29 -12 -41 -14q-33 0 -33 35z" />
<glyph unicode="&#xdb;" horiz-adv-x="1028" d="M51 1538q19 57 92 57q50 0 91 -25.5t59 -62.5q39 -181 39 -661q2 -123 2 -357q0 -168 12 -276q11 -119 41 -123q52 -3 123 96q119 156 195 367q22 65 22 111q5 66 15 235.5t22 291.5t33 218q12 47 73 47q65 3 95 -55q-49 -435 -66 -625q-22 -239 -12 -448q9 -201 71 -336 q-16 -25 -47 -25q-35 0 -69 25t-31 45q-40 134 -63 319q-15 88 -15 150q-40 -120 -108 -244t-142 -188q-35 -31 -74 -37t-73 9t-61.5 37t-47.5 50q-49 72 -82 176.5t-49.5 235t-23 242t-9.5 257.5q-7 199 -4 318q0 143 -8 176zM334 1669q0 2 4 14q14 2 55 43q8 9 23.5 25.5 t28.5 30t24 26.5q28 39 51 62q26 26 35 26q8 0 29 -30q37 -47 51 -68q44 -58 67 -96q35 -47 48 -55v-2q0 -20 -31 -17q-33 0 -53 10q-39 58 -62 105q-23 50 -39 63q-11 -5 -26 -71q-19 -68 -68 -117q-4 -2 -10 -2q-34 0 -80.5 15.5t-46.5 37.5z" />
<glyph unicode="&#xdc;" horiz-adv-x="1028" d="M51 1538q19 57 92 57q50 0 91 -25.5t59 -62.5q39 -181 39 -661q2 -123 2 -357q0 -168 12 -276q11 -119 41 -123q52 -3 123 96q119 156 195 367q22 65 22 111q5 66 15 235.5t22 291.5t33 218q12 47 73 47q65 3 95 -55q-49 -435 -66 -625q-22 -239 -12 -448q9 -201 71 -336 q-16 -25 -47 -25q-35 0 -69 25t-31 45q-40 134 -63 319q-15 88 -15 150q-40 -120 -108 -244t-142 -188q-35 -31 -74 -37t-73 9t-61.5 37t-47.5 50q-49 72 -82 176.5t-49.5 235t-23 242t-9.5 257.5q-7 199 -4 318q0 143 -8 176zM330 1722q9 11 13 33t11.5 37.5t26.5 19.5h12 q26 0 53 -12q32 -17 41 -51q12 -41 -6.5 -81t-52.5 -46h-6l-2 -2q-32 3 -58.5 35t-31.5 67zM567 1718v6q0 33 21 62.5t49 32.5h6q31 0 59 -27t31 -53v-6q0 -31 -30.5 -61t-61.5 -30q-4 12 -16.5 21t-24.5 14t-22 15.5t-11 25.5z" />
<glyph unicode="&#xdd;" horiz-adv-x="837" d="M39 1468v27q0 31 2 41q15 35 47.5 59.5t75.5 24.5q31 0 41 -29q44 -459 117 -731q37 -134 77 -137q55 -1 105 77t55 142q44 238 113 473q21 61 78 70q56 6 65 -49q-34 -89 -53 -213.5t-33 -320.5t-20 -251q-28 -302 -72 -510q-29 -134 -80 -198q-10 -13 -37 -13 q-25 0 -88 17q-100 30 -88 90q24 -4 44.5 16.5t39.5 67.5q37 89 64 217q10 49 20 112.5t15.5 110.5t14.5 121.5t13 108.5q2 18 2 38q-19 -48 -45 -94q-34 -61 -121 -61q-73 3 -131 76q-94 116 -152 312.5t-69 405.5zM362 1647v2q0 33 15 63q6 9 26 39.5t28 41.5t25.5 32.5 t35 35t38.5 25.5h5q29 0 58.5 -27.5t29.5 -58.5q0 -4 -5 -24q-27 3 -63 -39q-2 -2 -12.5 -14.5t-13.5 -15.5t-13.5 -14.5t-15 -16t-15 -14t-17 -14t-16.5 -12t-18.5 -11t-18.5 -7.5t-20 -6q-30 0 -33 35z" />
<glyph unicode="&#xdf;" horiz-adv-x="5517" d="M49 287q0 21 22 31.5t48 5.5q78 -109 248 -197q146 -75 336.5 -113.5t383.5 -19.5q151 15 328 92q104 45 231 113t193 106t234 140t194 118q243 146 457 252q240 118 426 146q273 41 536 -17q155 -36 297 -119q94 120 238 209.5t311 134.5q140 39 264 39q353 0 537 -239 q74 -100 74 -219v-9q-2 -137 -86.5 -233t-216.5 -109q-90 -8 -149.5 38t-86.5 124q-34 103 1 186t116 113q20 -12 35.5 -46t5.5 -62q-57 -25 -73.5 -85t20.5 -130q29 -53 83 -64t105 12t84 64q90 118 45 262q-32 101 -117 166.5t-204 87.5t-259 2q-313 -45 -575 -256 q-27 -21 -53 -47l28 -23q182 -142 226 -387q25 -138 -28.5 -240t-160.5 -122q-63 -13 -118 5.5t-93.5 59t-64.5 92.5t-37 111q-48 245 82 469q-135 85 -291 129q-252 62 -463 19q-95 -18 -188 -51.5t-188 -84.5t-160 -90.5t-164 -103.5q-51 -35 -210 -147t-247 -169 q-212 -142 -434 -254q-138 -68 -268.5 -100.5t-288.5 -32.5q-173 0 -352 50q-191 54 -360.5 159t-252.5 234zM3897 299q30 -157 125 -205q73 -34 114.5 -1t56 101t1.5 148q-35 198 -196 328q-61 -90 -91.5 -177t-9.5 -194z" />
<glyph unicode="&#xe0;" horiz-adv-x="1054" d="M29 252v22q0 180 67.5 336.5t171.5 255.5q42 40 80.5 59t100.5 23h22q58 0 107.5 -16t70.5 -45q6 -9 3.5 -18.5t-11.5 -12.5q-32 32 -65 37.5t-60 -8t-54 -42t-45 -56.5t-34 -60q-53 -109 -91.5 -243.5t-39.5 -254.5q0 -123 57 -123q28 0 66 84q106 242 198 605 q12 27 78 39q49 7 81.5 -4.5t27.5 -47.5q-31 7 -121 -587q-31 -246 -6 -250q15 -2 37 20.5t51 69.5q94 151 205 387q15 33 55 113q31 8 61 -11q-20 -38 -70 -149.5t-75 -159.5q-43 -84 -139 -231q-70 -101 -121 -101h-6q-189 22 -119 447q6 37 11 70.5t9 60.5 q-48 -179 -129 -334q-46 -81 -79 -84q-101 -8 -199 43q-93 52 -96 166zM385 1184q0 33 29.5 59.5t60.5 26.5h2q18 -10 35 -23.5t27 -23t26.5 -31t21.5 -28t24 -35t22 -33.5q12 -24 12 -66q0 -32 -27 -35h-6q-38 8 -75 45q-49 40 -84 80q-37 43 -62 39q-6 12 -6 25z" />
<glyph unicode="&#xe1;" horiz-adv-x="1054" d="M29 252v22q0 180 67.5 336.5t171.5 255.5q42 40 80.5 59t100.5 23h22q58 0 107.5 -16t70.5 -45q6 -9 3.5 -18.5t-11.5 -12.5q-32 32 -65 37.5t-60 -8t-54 -42t-45 -56.5t-34 -60q-53 -109 -91.5 -243.5t-39.5 -254.5q0 -123 57 -123q28 0 66 84q106 242 198 605 q12 27 78 39q49 7 81.5 -4.5t27.5 -47.5q-31 7 -121 -587q-31 -246 -6 -250q15 -2 37 20.5t51 69.5q94 151 205 387q15 33 55 113q31 8 61 -11q-20 -38 -70 -149.5t-75 -159.5q-43 -84 -139 -231q-70 -101 -121 -101h-6q-189 22 -119 447l18 127q-44 -165 -127 -330 q-46 -81 -79 -84q-101 -8 -199 43q-93 52 -96 166zM414 1020v2q0 34 12 61q8 11 33 48.5t36 52.5t35 38t50 38h4q36 0 66.5 -36t17.5 -73q-22 3 -60 -41q-63 -69 -123 -111q-28 -14 -39 -14q-32 0 -32 35z" />
<glyph unicode="&#xe2;" horiz-adv-x="1054" d="M29 252v22q0 180 67.5 336.5t171.5 255.5q42 40 80.5 59t100.5 23h22q58 0 107.5 -16t70.5 -45q6 -9 3.5 -18.5t-11.5 -12.5q-32 32 -65 37.5t-60 -8t-54 -42t-45 -56.5t-34 -60q-53 -109 -91.5 -243.5t-39.5 -254.5q0 -123 57 -123q28 0 66 84q106 242 198 605 q12 27 78 39q49 7 81.5 -4.5t27.5 -47.5q-31 7 -121 -587q-31 -246 -6 -250q15 -2 37 20.5t51 69.5q94 151 205 387q15 33 55 113q31 8 61 -11q-20 -38 -70 -149.5t-75 -159.5q-43 -84 -139 -231q-70 -101 -121 -101h-6q-189 22 -119 447q6 37 11 70.5t9 60.5 q-48 -179 -129 -334q-46 -81 -79 -84q-101 -8 -199 43q-93 52 -96 166zM285 1042q-2 4 2 15q20 3 57 43q20 20 63 70.5t62 70.5q27 27 35 27q6 0 31 -31q26 -33 49 -68l67 -96q34 -46 49 -55q0 -16 -24 -19h-10q-37 3 -50 11q-45 66 -63 104q-23 50 -37 64q-13 -6 -31 -72 q-16 -70 -63 -117q-4 -2 -14 -2q-33 0 -78 16t-45 39z" />
<glyph unicode="&#xe3;" horiz-adv-x="1054" d="M29 252v22q0 180 67.5 336.5t171.5 255.5q42 40 80.5 59t100.5 23h22q58 0 107.5 -16t70.5 -45q6 -9 3.5 -18.5t-11.5 -12.5q-32 32 -65 37.5t-60 -8t-54 -42t-45 -56.5t-34 -60q-53 -109 -91.5 -243.5t-39.5 -254.5q0 -123 57 -123q28 0 66 84q106 242 198 605 q12 27 78 39q49 7 81.5 -4.5t27.5 -47.5q-31 7 -121 -587q-31 -246 -6 -250q15 -2 37 20.5t51 69.5q94 151 205 387q15 33 55 113q31 8 61 -11q-20 -38 -70 -149.5t-75 -159.5q-43 -84 -139 -231q-70 -101 -121 -101h-6q-189 22 -119 447q6 37 11 70.5t9 60.5 q-48 -179 -129 -334q-46 -81 -79 -84q-101 -8 -199 43q-93 52 -96 166zM242 1106q0 35 7 63t23 50.5t42 29t63 -1.5q47 -13 188 -78q56 -24 70 -16q21 15 -2.5 40t-40.5 34q-10 20 19 41.5t55 19.5h8q46 -15 74 -68t28 -118v-23q-4 -44 -32.5 -67t-73.5 -23h-8 q-36 2 -74.5 18t-59.5 30t-55 40q-19 15 -49 39.5t-35 28.5q-34 29 -54 25.5t-32 -42.5q-12 -33 14 -43q0 -31 -28 -34q-30 -3 -43 18q-4 20 -4 37z" />
<glyph unicode="&#xe4;" horiz-adv-x="1054" d="M29 252v22q0 180 67.5 336.5t171.5 255.5q42 40 80.5 59t100.5 23h22q58 0 107.5 -16t70.5 -45q6 -9 3.5 -18.5t-11.5 -12.5q-32 32 -65 37.5t-60 -8t-54 -42t-45 -56.5t-34 -60q-53 -109 -91.5 -243.5t-39.5 -254.5q0 -123 57 -123q28 0 66 84q106 242 198 605 q12 27 78 39q49 7 81.5 -4.5t27.5 -47.5q-31 7 -121 -587q-31 -246 -6 -250q15 -2 37 20.5t51 69.5q94 151 205 387q15 33 55 113q31 8 61 -11q-20 -38 -70 -149.5t-75 -159.5q-43 -84 -139 -231q-70 -101 -121 -101h-6q-189 22 -119 447q6 37 11 70.5t9 60.5 q-48 -179 -129 -334q-46 -81 -79 -84q-101 -8 -199 43q-93 52 -96 166zM313 1094q5 33 32 67.5t58 34.5h9q31 -5 47.5 -32.5t16 -59.5t-18 -60t-47.5 -34q-15 -6 -29 -6q-28 0 -38 15t-14.5 39.5t-15.5 35.5zM561 1106v6q1 15 11.5 25.5t23 15t24.5 13.5t15 22 q34 0 65 -32.5t27 -65.5q-3 -23 -29.5 -50t-52.5 -28h-14q-30 3 -50 31.5t-20 62.5z" />
<glyph unicode="&#xe5;" horiz-adv-x="1054" d="M29 252v22q0 180 67.5 336.5t171.5 255.5q42 40 80.5 59t100.5 23h22q58 0 107.5 -16t70.5 -45q6 -9 3.5 -18.5t-11.5 -12.5q-32 32 -65 37.5t-60 -8t-54 -42t-45 -56.5t-34 -60q-53 -109 -91.5 -243.5t-39.5 -254.5q0 -123 57 -123q28 0 66 84q106 242 198 605 q12 27 78 39q49 7 81.5 -4.5t27.5 -47.5q-31 7 -121 -587q-31 -246 -6 -250q15 -2 37 20.5t51 69.5q94 151 205 387q15 33 55 113q31 8 61 -11q-20 -38 -70 -149.5t-75 -159.5q-43 -84 -139 -231q-70 -101 -121 -101h-6q-189 22 -119 447q6 37 11 70.5t9 60.5 q-48 -179 -129 -334q-46 -81 -79 -84q-101 -8 -199 43q-93 52 -96 166zM356 1147q0 53 34 84t89 37q14 3 27 -23v10q0 12 4.5 19t11.5 6h13q84 0 108 -78q28 -85 -25 -143q-17 -22 -46 -38.5t-62 -16.5q-9 -3 -18 -3q-59 0 -97.5 43t-38.5 103zM472 1175q-7 -15 3 -47 q11 -38 36.5 -50.5t49 4t31.5 53.5q11 43 -7 72.5t-61 25.5q-4 -2 -12 2q13 -32 -8 -47q-25 2 -32 -13z" />
<glyph unicode="&#xe6;" horiz-adv-x="1363" d="M25 240v22q0 177 68 335.5t171 256.5q42 40 80.5 59t101.5 23h23q57 0 105.5 -16t70.5 -46q9 -9 7 -18t-13 -12q-70 67 -133 24q-128 -82 -213 -374q-43 -148 -43 -277q-3 -123 55 -123q27 0 68 84q79 182 157 461q10 35 20 71t14.5 52t6.5 20q6 19 47.5 31.5t83.5 9.5 l17 17q86 90 180 90h8q84 -5 129.5 -76.5t20.5 -167.5q-29 -113 -100 -172t-193 -80v-2q-17 -45 -29.5 -95.5t-19 -109.5t9 -107t53.5 -69q56 -30 156 21q96 50 193 132t173 171q36 15 56 -23q-201 -234 -404 -329q-66 -29 -121 -29q-110 0 -204 98q-1 -12 -2 -34t-2 -33 q-31 -39 -78 -39q-38 0 -47 30q-20 99 2 236q20 124 30 201q-51 -191 -131 -338q-45 -79 -80 -82q-104 -9 -196 41q-95 53 -98 166zM784 483q51 13 103 49q99 64 123 154t-9 107q-28 17 -90 -64q-84 -111 -127 -246z" />
<glyph unicode="&#xe7;" horiz-adv-x="933" d="M20 459v22q2 108 25.5 206t78 180t132.5 108q30 12 72 12q89 0 147 -62.5t60 -152.5q0 -42 -9 -82q-21 -17 -44 -2t-25 33q11 36 3 89.5t-38 57.5q-19 2 -38.5 -23.5t-37.5 -78.5q-23 -65 -41 -147.5t-28.5 -175.5t-4.5 -186.5t31 -162.5q32 -100 103 -107t149 79 q152 168 295 454q17 10 33 10q15 -3 28 -16q-32 -73 -57 -125q-125 -235 -264 -371q-75 -72 -160 -81v-29q0 -17 14 -23q37 -18 60 -39q38 -30 63.5 -80.5t26.5 -105.5v-2q0 -59 -46.5 -106.5t-113.5 -47.5q-68 0 -127 51t-59 117v13q3 37 65 49q63 9 72 -45q-5 -29 3 -62 t28.5 -50t54.5 5q43 29 23 82.5t-57.5 99.5t-65.5 64q-16 10 -24.5 45t-8.5 72q-152 37 -235 178t-83 336z" />
<glyph unicode="&#xe8;" horiz-adv-x="915" d="M16 479v2q0 142 46 267.5t124 187.5q58 49 129 49q81 0 131 -62.5t52 -150.5q3 -234 -230 -344v-6q-5 -57 -0.5 -121t15 -118t38 -94t68.5 -50q71 -16 158 65q86 82 163.5 191.5t129.5 224.5q30 27 63 -6q-24 -56 -59 -121q-122 -218 -264 -338q-86 -71 -179 -71 q-22 0 -36 2q-181 30 -265 176q-84 150 -84 317zM172 1219q0 31 30 58.5t60 27.5h4q21 -12 38.5 -26.5t34.5 -35t25.5 -32.5t27.5 -41.5t26 -39.5q14 -25 14 -63q0 -37 -35 -37q-35 7 -75 43q-48 42 -84 80q-40 46 -60 43q-5 20 -6 23zM272 483q73 45 125.5 120t53.5 155 q2 91 -32 108q-30 15 -62 -45q-3 -5 -5 -10q-28 -60 -51 -152.5t-29 -175.5z" />
<glyph unicode="&#xe9;" horiz-adv-x="915" d="M16 479v2q0 142 46 267.5t124 187.5q58 49 129 49q81 0 131 -62.5t52 -150.5q3 -234 -230 -344v-6q-5 -57 -0.5 -121t15 -118t38 -94t68.5 -50q71 -16 158 65q86 82 163.5 191.5t129.5 224.5q30 27 63 -6q-24 -56 -59 -121q-122 -218 -264 -338q-86 -71 -179 -71 q-22 0 -36 2q-181 30 -265 176q-84 150 -84 317zM244 1059v2q0 35 14 63q7 10 22.5 34t22.5 34t21.5 29t25.5 30t27.5 24t34.5 23h4q30 0 59 -27.5t29 -58.5q0 -8 -4 -24q-26 3 -62 -39q-3 -3 -14 -16t-15 -17.5t-15 -16.5t-17 -17.5t-17 -15t-19 -14.5t-19 -11.5 t-21.5 -10.5t-21.5 -6q-32 0 -35 35zM272 483q73 45 125.5 120t53.5 155q2 91 -32 108q-30 15 -62 -45q-3 -5 -5 -10q-28 -60 -51 -152.5t-29 -175.5z" />
<glyph unicode="&#xea;" horiz-adv-x="915" d="M16 479v2q0 142 46 267.5t124 187.5q58 49 129 49q81 0 131 -62.5t52 -150.5q3 -234 -230 -344v-6q-5 -57 -0.5 -121t15 -118t38 -94t68.5 -50q71 -16 158 65q86 82 163.5 191.5t129.5 224.5q30 27 63 -6q-24 -56 -59 -121q-122 -218 -264 -338q-86 -71 -179 -71 q-22 0 -36 2q-181 30 -265 176q-84 150 -84 317zM88 1063l4 12q7 2 14.5 6t16 11.5t15.5 13.5t16.5 16.5t14.5 16t14.5 16.5t11.5 14q47 55 69 82q30 37 43 37q9 0 31 -31q28 -31 49 -67q63 -83 70 -94q36 -51 47 -58v-2q0 -13 -19 -15.5t-38 1.5t-27 8q-39 58 -62 105 q-23 50 -39 63q-10 -5 -26 -72q-19 -67 -68 -116q-4 -2 -12 -2q-31 0 -78 16.5t-47 38.5zM272 483q73 45 125.5 120t53.5 155q2 91 -32 108q-30 15 -62 -45q-3 -5 -5 -10q-28 -60 -51 -152.5t-29 -175.5z" />
<glyph unicode="&#xeb;" horiz-adv-x="915" d="M16 479v2q0 142 46 267.5t124 187.5q58 49 129 49q81 0 131 -62.5t52 -150.5q3 -234 -230 -344v-6q-5 -57 -0.5 -121t15 -118t38 -94t68.5 -50q71 -16 158 65q86 82 163.5 191.5t129.5 224.5q30 27 63 -6q-24 -56 -59 -121q-122 -218 -264 -338q-86 -71 -179 -71 q-22 0 -36 2q-181 30 -265 176q-84 150 -84 317zM123 1128v7q0 32 30.5 61t61.5 29q3 -13 15 -22t24.5 -13t23 -14.5t11.5 -26.5q3 -33 -18.5 -65t-51.5 -35h-6q-30 0 -58.5 26.5t-31.5 52.5zM272 483q73 45 125.5 120t53.5 155q2 91 -32 108q-30 15 -62 -45q-3 -5 -5 -10 q-28 -60 -51 -152.5t-29 -175.5zM365 1149q0 40 20 68t53 28q30 0 56.5 -33.5t31.5 -66.5q-9 -10 -12.5 -32t-11 -38t-27.5 -20h-12q-41 0 -69.5 26.5t-28.5 67.5z" />
<glyph unicode="&#xec;" horiz-adv-x="692" d="M23 201v20q0 206 53 445q27 140 10 163q9 27 44 48.5t75 21.5q65 0 65 -59q-52 -254 -71 -609q-9 -105 -2 -182q4 -86 35 -84t104 101q79 108 231 366q36 61 51 92q33 16 62 -10q-11 -26 -23.5 -51.5t-28.5 -54t-26.5 -46.5t-32.5 -54.5t-32 -53.5q-110 -185 -222 -297 q-54 -51 -90 -51h-6q-54 4 -93 28.5t-60.5 66t-31 90t-11.5 110.5zM49 1237q0 31 29 58.5t59 27.5h4q18 -10 35 -23.5t27 -23t26.5 -31t21.5 -28t24 -35t22 -33.5q12 -24 12 -66v-2q-3 -32 -33 -32q-35 7 -77 43q-54 47 -82 79q-38 44 -64 41q-4 16 -4 25z" />
<glyph unicode="&#xed;" horiz-adv-x="692" d="M23 201v20q0 206 53 445q27 140 10 163q9 27 44 48.5t75 21.5q65 0 65 -59q-52 -254 -71 -609q-9 -105 -2 -182q4 -86 35 -84t104 101q79 108 231 366q36 61 51 92q33 16 62 -10q-11 -26 -23.5 -51.5t-28.5 -54t-26.5 -46.5t-32.5 -54.5t-32 -53.5q-110 -185 -222 -297 q-54 -51 -90 -51h-6q-54 4 -93 28.5t-60.5 66t-31 90t-11.5 110.5zM96 1040v2q0 35 15 62q7 10 22 34.5t22 34.5t21 29t25.5 29.5t28 23.5t34.5 23h4q30 0 59 -27.5t29 -58.5q0 -7 -4 -23q-20 3 -61 -41q-65 -72 -123 -108q-20 -13 -39 -16q-30 0 -33 36z" />
<glyph unicode="&#xee;" horiz-adv-x="692" d="M-4 1057l4 12q9 2 19.5 9t24.5 20.5t20 20t22 25.5l16 19q8 9 33.5 37.5t36.5 42.5q36 39 43 39q9 0 31 -31q33 -37 53 -67l68 -97q29 -46 45 -55v-2q0 -13 -19 -15.5t-38 1.5t-27 8q-41 61 -62 104q-23 50 -37 64q-12 -5 -28 -72q-19 -67 -68 -116q-3 -3 -10 -3 q-32 0 -79.5 17t-47.5 39zM23 201v20q0 206 53 445q27 140 10 163q9 27 44 48.5t75 21.5q65 0 65 -59q-52 -254 -71 -609q-9 -105 -2 -182q4 -86 35 -84t104 101q79 108 231 366q36 61 51 92q33 16 62 -10q-11 -26 -23.5 -51.5t-28.5 -54t-26.5 -46.5t-32.5 -54.5t-32 -53.5 q-110 -185 -222 -297q-54 -51 -90 -51h-6q-54 4 -93 28.5t-60.5 66t-31 90t-11.5 110.5z" />
<glyph unicode="&#xef;" horiz-adv-x="692" d="M-20 1118v8q0 31 30.5 61t61.5 30q5 -16 38.5 -34t34.5 -42v-6q0 -36 -22 -66.5t-53 -30.5q-30 0 -57.5 26.5t-32.5 53.5zM23 201v20q0 206 53 445q27 140 10 163q9 27 44 48.5t75 21.5q65 0 65 -59q-52 -254 -71 -609q-9 -105 -2 -182q4 -86 35 -84t104 101 q79 108 231 366q36 61 51 92q33 16 62 -10q-11 -26 -23.5 -51.5t-28.5 -54t-26.5 -46.5t-32.5 -54.5t-32 -53.5q-110 -185 -222 -297q-54 -51 -90 -51h-6q-54 4 -93 28.5t-60.5 66t-31 90t-11.5 110.5zM221 1139q0 37 19 65t47 33h8q24 0 53 -29q31 -36 37 -71 q-9 -11 -13 -33.5t-11.5 -38t-28.5 -18.5h-13q-41 0 -72.5 26t-25.5 66z" />
<glyph unicode="&#xf1;" horiz-adv-x="1052" d="M12 244q0 66 7.5 149.5t13 126t22 149.5t17.5 117q21 121 -19 150q31 51 101 51q31 0 50.5 -17.5t28 -51.5t11.5 -61.5t4 -70.5q1 -26 3 -77.5t3 -77.5q23 87 84.5 177.5t128.5 125.5q31 17 57 18.5t44.5 -11t33 -36t23 -52t14.5 -63.5t8 -67.5t2 -65.5q3 -20 1 -71.5 t-2 -73t-4 -73.5t-5.5 -73.5t-6.5 -72.5t-7.5 -70t-7.5 -67.5t-7 -63.5q-15 -127 6 -133q40 -9 105 80q136 188 254 448q15 9 31 9q16 3 34 -15q-56 -121 -135 -272q-66 -121 -149 -223q-69 -84 -131 -84q-97 0 -146 135q-68 216 19 727q21 134 0 137q-34 3 -80 -55 q-97 -121 -158 -291q0 -13 -2 -71t-3 -82.5t-3.5 -69.5t-5.5 -77.5t-8 -61.5q-2 -13 -9 -35q-143 -151 -215 -4q-2 29 -2 90zM145 1147q0 46 13 82.5t45 55.5t78 3q23 -6 50.5 -16.5t44 -18t50 -23t43.5 -20.5q54 -23 70 -14q8 5 9 11.5t-5 15t-11.5 14.5t-16.5 14t-13 9.5 t-8 5.5q-8 23 20 43t55 20h9q46 -15 74 -67.5t28 -116.5v-23q-4 -44 -33 -68t-74 -24q-37 0 -77.5 16.5t-60 30t-56.5 41.5q-19 15 -49 39.5t-35 28.5q-34 27 -54 23t-32 -40q-12 -34 12 -43q0 -21 -14 -30.5t-31 -4.5t-26 21q-5 25 -5 35z" />
<glyph unicode="&#xf2;" horiz-adv-x="1013" d="M23 440v2q0 162 61 290t164 179q55 25 112 25q55 0 119 -31q24 -9 7 -18q-14 -7 -25 -4q-68 22 -121 -18t-81 -117.5t-41 -163t-11 -164.5q0 -202 88 -338q32 -47 78 -58.5t94 19.5q73 48 125 182q-63 20 -120.5 78t-98.5 127q-27 43 -47.5 94t-33 108.5t2 107.5t59.5 77 q132 76 219 -8q88 -82 109 -332q9 -105 -12 -203q40 0 92 27q51 25 101 81.5t73 109.5q21 7 35 4q10 0 30 -4q-32 -82 -91.5 -148t-137.5 -106q-52 -28 -119 -25q-55 -167 -161 -215q-48 -23 -93 -23h-2q-190 0 -282 124.5t-92 340.5zM223 1176q0 31 29 58.5t59 27.5h4 q21 -12 38.5 -25.5t35.5 -35.5t26 -32.5t28.5 -42t25.5 -39.5q14 -28 14 -61v-2q-3 -37 -32 -37q-28 6 -78 45q-51 44 -82 80q-37 42 -64 39q-4 16 -4 25zM389 590q22 -67 64.5 -138t89.5 -118q37 -37 67 -49q28 108 5 220t-85 159q-76 58 -137 24q-31 -16 -4 -98z" />
<glyph unicode="&#xf3;" horiz-adv-x="1013" d="M23 440v2q0 162 61 290t164 179q55 25 112 25q55 0 119 -31q24 -9 7 -18q-14 -7 -25 -4q-68 22 -121 -18t-81 -117.5t-41 -163t-11 -164.5q0 -202 88 -338q32 -47 78 -58.5t94 19.5q73 48 125 182q-63 20 -120.5 78t-98.5 127q-27 43 -47.5 94t-33 108.5t2 107.5t59.5 77 q132 76 219 -8q88 -82 109 -332q9 -105 -12 -203q40 0 92 27q51 25 101 81.5t73 109.5q21 7 35 4q10 0 30 -4q-32 -82 -91.5 -148t-137.5 -106q-52 -28 -119 -25q-55 -167 -161 -215q-48 -23 -93 -23h-2q-190 0 -282 124.5t-92 340.5zM283 1018v4q0 33 14 61q5 7 26 39 t28.5 42.5t25 32t34.5 35t38 25.5h4q30 0 60 -28t30 -58q-1 -4 -3 -11t-3 -11q-24 3 -62 -41q-3 -4 -15.5 -17.5t-18 -19.5t-17.5 -18.5t-20 -19t-20.5 -16.5t-22.5 -15.5t-23 -10.5t-25 -8q-30 0 -30 35zM389 590q22 -67 64.5 -138t89.5 -118q37 -37 67 -49q28 108 5 220 t-85 159q-76 58 -137 24q-31 -16 -4 -98z" />
<glyph unicode="&#xf4;" horiz-adv-x="1013" d="M23 440v2q0 162 61 290t164 179q55 25 112 25q55 0 119 -31q24 -9 7 -18q-14 -7 -25 -4q-68 22 -121 -18t-81 -117.5t-41 -163t-11 -164.5q0 -202 88 -338q32 -47 78 -58.5t94 19.5q73 48 125 182q-63 20 -120.5 78t-98.5 127q-27 43 -47.5 94t-33 108.5t2 107.5t59.5 77 q132 76 219 -8q88 -82 109 -332q9 -105 -12 -203q40 0 92 27q51 25 101 81.5t73 109.5q21 7 35 4q10 0 30 -4q-32 -82 -91.5 -148t-137.5 -106q-52 -28 -119 -25q-55 -167 -161 -215q-48 -23 -93 -23h-2q-190 0 -282 124.5t-92 340.5zM162 1034q0 9 2 15q17 2 34.5 16.5 t43 45.5t26.5 32q8 9 33.5 37.5t36.5 42.5q30 37 45 37q9 0 29 -29q16 -21 118 -164q38 -51 48 -57v-2q0 -20 -31 -17q-33 0 -53 10q-39 54 -62 105q-20 44 -39 63q-11 -5 -26 -71q-18 -64 -68 -117h-10q-35 0 -81 14.5t-46 38.5zM389 590q22 -67 64.5 -138t89.5 -118 q37 -37 67 -49q28 108 5 220t-85 159q-76 58 -137 24q-31 -16 -4 -98z" />
<glyph unicode="&#xf5;" horiz-adv-x="1013" d="M23 440v2q0 162 61 290t164 179q55 25 112 25q55 0 119 -31q24 -9 7 -18q-14 -7 -25 -4q-68 22 -121 -18t-81 -117.5t-41 -163t-11 -164.5q0 -202 88 -338q32 -47 78 -58.5t94 19.5q73 48 125 182q-63 20 -120.5 78t-98.5 127q-27 43 -47.5 94t-33 108.5t2 107.5t59.5 77 q132 76 219 -8q88 -82 109 -332q9 -105 -12 -203q40 0 92 27q51 25 101 81.5t73 109.5q21 7 35 4q10 0 30 -4q-32 -82 -91.5 -148t-137.5 -106q-52 -28 -119 -25q-55 -167 -161 -215q-48 -23 -93 -23h-2q-190 0 -282 124.5t-92 340.5zM88 1069q0 75 32 118.5t101 24.5 q56 -16 189 -77q57 -24 69 -17q7 6 8 13.5t-3.5 15t-10.5 14.5t-14.5 13.5t-13.5 10t-9 5.5q-8 20 23 45q24 16 53 16h8q46 -15 74.5 -67t28.5 -117v-23q-4 -43 -33 -66.5t-74 -23.5h-8q-36 2 -74.5 18t-59.5 30t-55 40q-66 50 -86 66q-64 55 -83 -16q-12 -33 14 -43 q0 -33 -29.5 -36t-44.5 21q-2 10 -2 35zM389 590q22 -67 64.5 -138t89.5 -118q37 -37 67 -49q28 108 5 220t-85 159q-76 58 -137 24q-31 -16 -4 -98z" />
<glyph unicode="&#xf6;" horiz-adv-x="1013" d="M23 440v2q0 162 61 290t164 179q55 25 112 25q55 0 119 -31q24 -9 7 -18q-14 -7 -25 -4q-68 22 -121 -18t-81 -117.5t-41 -163t-11 -164.5q0 -202 88 -338q32 -47 78 -58.5t94 19.5q73 48 125 182q-63 20 -120.5 78t-98.5 127q-27 43 -47.5 94t-33 108.5t2 107.5t59.5 77 q132 76 219 -8q88 -82 109 -332q9 -105 -12 -203q40 0 92 27q51 25 101 81.5t73 109.5q21 7 35 4q10 0 30 -4q-32 -82 -91.5 -148t-137.5 -106q-52 -28 -119 -25q-55 -167 -161 -215q-48 -23 -93 -23h-2q-190 0 -282 124.5t-92 340.5zM164 1085v9q-3 31 28.5 60.5t63.5 29.5 q4 -12 16.5 -21t24.5 -14t22 -15.5t11 -25.5q0 -36 -19.5 -66.5t-48.5 -33.5h-8q-30 -1 -57.5 24.5t-32.5 52.5zM389 590q22 -67 64.5 -138t89.5 -118q37 -37 67 -49q28 108 5 220t-85 159q-76 58 -137 24q-31 -16 -4 -98zM403 1106q0 36 19.5 65t46.5 33h8q31 0 58 -33.5 t32 -66.5q-9 -11 -12.5 -33.5t-10.5 -38t-28 -18.5h-12q-44 0 -72.5 25t-28.5 67z" />
<glyph unicode="&#xf7;" horiz-adv-x="862" d="M20 633q0 24 14.5 44.5t31.5 29.5q32 7 106 10h43q84 0 189 -7t232.5 -19t174.5 -15q25 -16 25 -39q0 -24 -20 -39.5t-48 -15.5q-32 0 -100 8q-337 20 -457 20q-121 0 -131 -26q-60 12 -60 49zM334 375q0 35 19.5 64.5t47.5 33.5h9q31 0 59 -34.5t33 -67.5 q-9 -11 -12.5 -34.5t-10.5 -40t-28 -20.5h-15q-45 0 -73.5 27.5t-28.5 71.5zM360 897q-3 3 0 8q0 32 32 62t65 30q4 -13 16.5 -22.5t25 -14t22.5 -15t11 -27.5v-7q0 -34 -20 -64.5t-49 -33.5h-10q-30 0 -59 28.5t-34 55.5z" />
<glyph unicode="&#xf8;" horiz-adv-x="1013" d="M23 440v2q0 162 61 290t164 179q55 25 112 25q55 0 119 -31q24 -9 7 -18q-14 -7 -25 -4q-68 22 -121 -18t-81 -117.5t-41 -163t-11 -164.5q0 -202 88 -338q32 -47 78 -58.5t94 19.5q73 48 125 182q-63 20 -120.5 78t-98.5 127q-27 43 -47.5 94t-33 108.5t2 107.5t59.5 77 q132 76 219 -8q88 -82 109 -332q9 -105 -12 -203q40 0 92 27q51 25 101 81.5t73 109.5q21 7 35 4q10 0 30 -4q-32 -82 -91.5 -148t-137.5 -106q-52 -28 -119 -25q-55 -167 -161 -215q-48 -23 -93 -23h-2q-190 0 -282 124.5t-92 340.5zM389 590q22 -67 64.5 -138t89.5 -118 q37 -37 67 -49q28 108 5 220t-85 159q-76 58 -137 24q-31 -16 -4 -98z" />
<glyph unicode="&#xf9;" horiz-adv-x="1107" d="M23 872q15 50 55 50h6q58 -7 104 -65t68 -128q3 -84 -11.5 -270.5t-11.5 -272.5q3 -107 52 -110q47 0 106 125q60 133 97.5 291.5t33.5 318.5q9 45 86 33t80 -74q-5 -75 -27.5 -264.5t-27.5 -286.5q-7 -60 -4.5 -121.5t20.5 -95.5q7 -15 16 -21.5t19.5 -5t21.5 7.5 t23.5 19t24 27t24.5 32q96 137 203 342q16 31 47 101q20 4 33 4q18 -4 31 -14q-105 -248 -220 -414q-50 -73 -106 -123q-44 -41 -84 -41q-90 0 -143 127q-35 84 -35 178q-2 63 -2 144q-3 -7 -7.5 -21t-11.5 -36.5t-14 -41.5q-52 -143 -127 -213q-42 -31 -93 -27t-91 33 q-50 39 -80 109t-39 164t-8.5 177t8.5 191q9 127 -16 172zM240 1137q0 31 30 58.5t58 27.5q2 0 4 -2q22 -11 40 -25t34 -34t26 -33.5t27.5 -41.5t25.5 -40q15 -27 15 -66q0 -30 -27 -33h-6q-38 5 -78 41q-44 35 -84 82q-38 44 -61 41q-4 16 -4 25z" />
<glyph unicode="&#xfa;" horiz-adv-x="1107" d="M23 872q15 50 55 50h6q58 -7 104 -65t68 -128q3 -84 -11.5 -270.5t-11.5 -272.5q3 -107 52 -110q47 0 106 125q60 133 97.5 291.5t33.5 318.5q9 45 86 33t80 -74q-5 -75 -27.5 -264.5t-27.5 -286.5q-7 -60 -4.5 -121.5t20.5 -95.5q7 -15 16 -21.5t19.5 -5t21.5 7.5 t23.5 19t24 27t24.5 32q96 137 203 342q16 31 47 101q20 4 33 4q18 -4 31 -14q-105 -248 -220 -414q-50 -73 -106 -123q-44 -41 -84 -41q-90 0 -143 127q-35 84 -35 178q-2 63 -2 144q-3 -7 -7.5 -21t-11.5 -36.5t-14 -41.5q-52 -143 -127 -213q-42 -31 -93 -27t-91 33 q-50 39 -80 109t-39 164t-8.5 177t8.5 191q9 127 -16 172zM291 969v2q0 39 10 61q11 16 35 50t35 51q35 44 86 73h4q37 0 67 -35.5t17 -72.5q-23 3 -64 -41q-3 -3 -15 -16.5t-16.5 -18.5t-16.5 -17t-18.5 -18t-18.5 -15.5t-21 -15t-20.5 -11.5t-22.5 -9q-2 -1 -5.5 -2 t-4.5 -2q-31 0 -31 37z" />
<glyph unicode="&#xfb;" horiz-adv-x="1107" d="M23 872q15 50 55 50h6q58 -7 104 -65t68 -128q3 -84 -11.5 -270.5t-11.5 -272.5q3 -107 52 -110q47 0 106 125q60 133 97.5 291.5t33.5 318.5q9 45 86 33t80 -74q-5 -75 -27.5 -264.5t-27.5 -286.5q-7 -60 -4.5 -121.5t20.5 -95.5q7 -15 16 -21.5t19.5 -5t21.5 7.5 t23.5 19t24 27t24.5 32q96 137 203 342q16 31 47 101q20 4 33 4q18 -4 31 -14q-105 -248 -220 -414q-50 -73 -106 -123q-44 -41 -84 -41q-90 0 -143 127q-35 84 -35 178q-2 63 -2 144q-3 -7 -7.5 -21t-11.5 -36.5t-14 -41.5q-52 -143 -127 -213q-42 -31 -93 -27t-91 33 q-50 39 -80 109t-39 164t-8.5 177t8.5 191q9 127 -16 172zM180 983q-2 3 2 14q18 4 40.5 24.5t55.5 61.5l33 41q27 31 56 60q26 26 32 26t31 -28q0 -1 119 -164q35 -49 47 -57q0 -19 -27 -19h-8q-34 3 -49 12q-42 58 -63 105q-23 47 -37 61q-11 -5 -29 -71q-15 -66 -66 -117 q-4 -2 -14 -2q-30 0 -76.5 15.5t-46.5 37.5z" />
<glyph unicode="&#xfc;" horiz-adv-x="1107" d="M23 872q15 50 55 50h6q58 -7 104 -65t68 -128q3 -84 -11.5 -270.5t-11.5 -272.5q3 -107 52 -110q47 0 106 125q60 133 97.5 291.5t33.5 318.5q9 45 86 33t80 -74q-5 -75 -27.5 -264.5t-27.5 -286.5q-7 -60 -4.5 -121.5t20.5 -95.5q7 -15 16 -21.5t19.5 -5t21.5 7.5 t23.5 19t24 27t24.5 32q96 137 203 342q16 31 47 101q20 4 33 4q18 -4 31 -14q-105 -248 -220 -414q-50 -73 -106 -123q-44 -41 -84 -41q-90 0 -143 127q-35 84 -35 178q-2 63 -2 144q-3 -7 -7.5 -21t-11.5 -36.5t-14 -41.5q-52 -143 -127 -213q-42 -31 -93 -27t-91 33 q-50 39 -80 109t-39 164t-8.5 177t8.5 191q9 127 -16 172zM184 1100q10 11 14 35.5t13.5 39.5t36.5 15q56 0 83 -42.5t5 -100.5q-16 -39 -45 -48q-6 0 -8 -2h-11q-31 0 -57 34.5t-31 68.5zM422 1096v4q0 34 19 63.5t48 32.5h9q28 0 57.5 -27t32.5 -53q4 -29 -25 -61.5 t-59 -34.5h-10q-3 13 -14.5 22t-24 13t-22.5 14.5t-11 26.5z" />
<glyph unicode="&#xfd;" horiz-adv-x="1011" d="M43 668q0 135 2 209q6 33 33.5 55t68.5 22q58 3 93 -71q-19 -104 -30.5 -211.5t-13.5 -235t17 -223.5q22 -126 98 -123q48 3 95 115q78 190 100 434q10 98 4 158q7 44 33 61.5t71 -4.5q37 -24 43 -57q-15 -3 -18 -90q-1 -68 4 -377v-170q0 -38 -2 -56q203 189 307 400 q40 22 64 -8q-152 -283 -373 -467q-4 -95 -9 -159.5t-17 -152.5t-30 -148.5t-49 -117.5t-73 -90q-46 -37 -109 -37h-4q-56 3 -82.5 44t-25 97t17 123t34 117.5t36.5 85.5q63 122 137 172l10 10q1 35 2 71t2 71q2 78 2 186q-10 -46 -24.5 -86.5t-37 -80.5t-56.5 -63.5 t-74 -23.5q-54 0 -96 25t-68 73t-43 103t-25 131.5t-11 141t-3 147.5zM301 1010v2q0 36 14 61q5 8 21.5 34t23 35t21 28.5t25.5 30t28 23.5t35 23h4q30 0 59 -27.5t29 -58.5q0 -8 -4 -20q-22 3 -61 -43q-69 -77 -121 -109q-19 -11 -39 -14q-32 0 -35 35zM336 -601 q4 -34 20 -34q34 0 60 82q32 104 55 424l2 29q-56 -56 -108 -265q-6 -28 -12.5 -63t-13.5 -87t-3 -86z" />
<glyph unicode="&#xff;" horiz-adv-x="1011" d="M43 668q0 135 2 209q6 33 33.5 55t68.5 22q58 3 93 -71q-19 -104 -30.5 -211.5t-13.5 -235t17 -223.5q22 -126 98 -123q48 3 95 115q78 190 100 434q10 98 4 158q7 44 33 61.5t71 -4.5q37 -24 43 -57q-15 -3 -18 -90q-1 -68 4 -377v-170q0 -38 -2 -56q203 189 307 400 q40 22 64 -8q-152 -283 -373 -467q-4 -95 -9 -159.5t-17 -152.5t-30 -148.5t-49 -117.5t-73 -90q-46 -37 -109 -37h-4q-56 3 -82.5 44t-25 97t17 123t34 117.5t36.5 85.5q63 122 137 172l10 10q1 35 2 71t2 71q2 78 2 186q-10 -46 -24.5 -86.5t-37 -80.5t-56.5 -63.5 t-74 -23.5q-54 0 -96 25t-68 73t-43 103t-25 131.5t-11 141t-3 147.5zM209 1083q10 11 13.5 36t13 40t36.5 15q56 0 83 -44t3 -100q-20 -49 -53 -49h-8q-31 0 -57 34t-31 68zM336 -601q4 -34 20 -34q34 0 60 82q32 104 55 424l2 29q-56 -56 -108 -265q-6 -28 -12.5 -63 t-13.5 -87t-3 -86zM446 1077v6q0 36 21.5 66.5t54.5 30.5q29 0 58 -27.5t32 -52.5v-8q0 -32 -31.5 -61.5t-62.5 -29.5q-3 14 -14.5 23t-24 13t-22.5 14t-11 26z" />
<glyph unicode="&#x152;" horiz-adv-x="1431" d="M25 614v129q9 271 59 459.5t172 292.5q93 80 231 80q87 0 137 -34.5t95 -106.5q62 -104 110 -275q45 214 125 410q21 18 54 18q42 0 86 -35q61 -28 303 0q18 0 18 -16q0 -4 -4 -12q-73 -33 -168 -39q-75 -2 -127 -15q-9 -22 -24 -157q-49 -412 -58 -826q-3 -91 4 -108 q14 -14 101 2q87 19 141 51q23 -1 24.5 -23.5t-12.5 -35.5q-59 -42 -139 -51q-57 -7 -98 -17q-5 -6 -6 -16t0.5 -24t3.5 -24t5.5 -26t4.5 -20q31 -130 63 -134q11 -1 28 2t39 10t41 13.5t45.5 17t40 16t36.5 15.5t24 10q14 -14 0 -34q-205 -119 -313 -119q-68 0 -132 22.5 t-83 57.5q-33 102 -53 247q-22 -59 -50.5 -110.5t-69 -99t-94.5 -75t-116 -28.5h-8q-417 0 -436 608zM268 762q0 -143 17 -268q19 -174 65 -299q47 -136 131 -142h13q62 -3 103.5 35.5t74.5 101.5q64 128 84 302q21 164 24 290v39q0 156 -32 309t-84 275q-27 65 -55 96 t-62 31q-66 0 -125 -109q-64 -115 -104.5 -272.5t-49.5 -329.5v-59z" />
<glyph unicode="&#x153;" horiz-adv-x="1570" d="M43 453v2q0 168 65 297t177 178q44 17 94 20q54 0 123 -32q25 -11 4 -20q-14 -6 -25 -3q-85 30 -149 -55q-48 -60 -77.5 -177t-27.5 -231q0 -212 86 -352q31 -49 76 -62.5t94 19.5q92 64 144 229l8 33q-120 0 -207 98q-34 36 -64 92t-47.5 119.5t-3 124.5t65.5 96 q49 35 93.5 40.5t76.5 -11.5t59 -51.5t43 -73t27 -82.5q85 287 264 287q79 0 127.5 -61.5t50.5 -147.5q3 -235 -225 -334q-3 -49 0 -98q0 -253 121 -281q67 -15 149 64q88 79 158 186q74 104 129 217q29 26 61 -6q-27 -58 -57 -115q-126 -215 -258 -327q-87 -74 -172 -74 q-66 0 -123.5 23.5t-99 64t-71.5 87t-50 100.5q-2 -2 -2 -9q-15 -49 -37 -92t-53.5 -82.5t-76 -62.5t-95.5 -23h-2q-95 0 -168 37.5t-117 104.5t-66 153.5t-22 190.5zM405.5 653.5q-4.5 -95.5 32.5 -157.5q33 -71 79 -112t124 -36q16 129 -22.5 232.5t-122.5 134.5 q-86 34 -90.5 -61.5zM899 451q70 43 121.5 117t52.5 149q3 95 -37 104q-24 5 -47.5 -30t-39.5 -91.5t-26 -104.5t-16 -89z" />
<glyph unicode="&#x2c6;" horiz-adv-x="516" d="M68 1366q0 6 4 14q9 2 20 9t24 20t20.5 21.5t21.5 25t16 19.5q3 4 30.5 35t39.5 46q31 39 45 35q8 0 28 -26q36 -45 52 -72q52 -68 67 -92q38 -55 47 -60v-2q0 -16 -30 -16q-36 3 -54 12q-36 51 -61 105q-24 49 -39 61q-12 -6 -27 -71q-18 -65 -65 -115h-12 q-30 -2 -78.5 13.5t-48.5 37.5z" />
<glyph unicode="&#x2dc;" horiz-adv-x="595" d="M31 1444v10q0 60 27 110t77 50q22 0 49 -15q61 -25 176 -104q53 -30 66 -22q23 11 3.5 37.5t-36.5 37.5q-6 23 29 39.5t61 11.5q37 -19 59.5 -65t18.5 -100q0 -131 -102 -131q-47 0 -99 30q-27 17 -54.5 41.5t-71.5 70.5t-46 48q-37 37 -53 37q-10 -2 -24.5 -18 t-19.5 -33.5t13 -30.5q-3 -33 -34 -33q-26 3 -39 29z" />
<glyph unicode="&#x2000;" horiz-adv-x="959" />
<glyph unicode="&#x2001;" horiz-adv-x="1919" />
<glyph unicode="&#x2002;" horiz-adv-x="959" />
<glyph unicode="&#x2003;" horiz-adv-x="1919" />
<glyph unicode="&#x2004;" horiz-adv-x="639" />
<glyph unicode="&#x2005;" horiz-adv-x="479" />
<glyph unicode="&#x2006;" horiz-adv-x="319" />
<glyph unicode="&#x2007;" horiz-adv-x="319" />
<glyph unicode="&#x2008;" horiz-adv-x="239" />
<glyph unicode="&#x2009;" horiz-adv-x="383" />
<glyph unicode="&#x200a;" horiz-adv-x="106" />
<glyph unicode="&#x2010;" horiz-adv-x="630" d="M41 723q0 24 13.5 39.5t37.5 15.5q18 0 90 -16q180 -37 267 -37q50 0 59 20q68 -15 65 -49v-2q-3 -40 -34 -55q-21 -2 -46 -3t-54.5 -1.5t-45.5 -1.5q-97 0 -319 20q-33 20 -33 70z" />
<glyph unicode="&#x2011;" horiz-adv-x="630" d="M41 723q0 24 13.5 39.5t37.5 15.5q18 0 90 -16q180 -37 267 -37q50 0 59 20q68 -15 65 -49v-2q-3 -40 -34 -55q-21 -2 -46 -3t-54.5 -1.5t-45.5 -1.5q-97 0 -319 20q-33 20 -33 70z" />
<glyph unicode="&#x2012;" horiz-adv-x="630" d="M41 723q0 24 13.5 39.5t37.5 15.5q18 0 90 -16q180 -37 267 -37q50 0 59 20q68 -15 65 -49v-2q-3 -40 -34 -55q-21 -2 -46 -3t-54.5 -1.5t-45.5 -1.5q-97 0 -319 20q-33 20 -33 70z" />
<glyph unicode="&#x2013;" horiz-adv-x="1120" d="M41 723q0 24 26 39.5t72 15.5q35 0 173 -16q347 -37 514 -37q96 0 114 20q131 -15 125 -49v-2q-6 -40 -66 -55q-40 -2 -88 -3t-105 -1.5t-88 -1.5q-186 0 -613 20q-64 20 -64 70z" />
<glyph unicode="&#x2014;" horiz-adv-x="2144" d="M41 723q0 24 52 39.5t144 15.5q70 0 347 -16q692 -37 1027 -37q193 0 227 20q262 -15 251 -49v-2q-12 -40 -131 -55q-81 -2 -177.5 -3t-210 -1.5t-174.5 -1.5q-374 0 -1228 20q-127 20 -127 70z" />
<glyph unicode="&#x2019;" horiz-adv-x="219" d="M55 1462v2q0 37 4 107q6 48 -4 61q20 33 68 33h2q52 0 72 -29q5 -25 5.5 -49.5t-4 -50t-8.5 -42t-13.5 -46t-12.5 -41.5q-23 -49 -55 -64h-9q-14 -2 -24 9.5t-14 33t-5.5 39t-1.5 37.5z" />
<glyph unicode="&#x201c;" horiz-adv-x="387" d="M25 1475q0 56 12 149q7 72 45 72q23 -3 37 -39q-15 -58 12 -119q28 -63 16 -127q-19 -22 -57 -39q-2 -2 -6 -2q-4 -2 -12 -2q-24 0 -35.5 32t-11.5 75zM209 1462q0 23 4 48t8 41t13 45t12 42q31 62 65 62q45 0 45 -119q0 -53 -6 -106q-6 -51 4 -64q-18 -35 -65 -35h-2 q-50 3 -74 33q-1 9 -2 27t-2 26z" />
<glyph unicode="&#x201d;" horiz-adv-x="393" d="M39 1456v2q0 41 4 107q6 51 -4 61q21 37 65 37h2q48 -3 72 -33q5 -25 5.5 -49.5t-4 -48.5t-9.5 -43t-13 -45.5t-12 -42.5q-32 -64 -63 -64q-43 0 -43 119zM240 1587q0 13 4 41q17 20 59 37q9 6 16 6q15 0 25 -10.5t15 -30t7 -40.5t1 -49t-2.5 -48t-3.5 -45t-3 -33 q-8 -72 -43 -72h-6q-19 0 -35 39q15 59 -14 119q-20 41 -20 86z" />
<glyph unicode="&#x202f;" horiz-adv-x="383" />
<glyph unicode="&#x205f;" horiz-adv-x="479" />
<glyph unicode="&#x20ac;" horiz-adv-x="966" d="M31 567q0 51 49 78q50 4 149 8q-6 65 -6 125h-49q-60 -3 -70 -26q-65 15 -65 51v4q6 35 37 51q72 6 149 12q10 189 72 347t164 260q102 105 256 102h10q79 0 117 -74q45 -80 51 -184q4 -72 4 -162q-3 -19 -24.5 -26.5t-32.5 12.5q10 178 -41 305q-21 55 -58 55 q-64 3 -120 -121q-113 -250 -127 -510q86 -4 125 -6q24 -15 31 -42t-6.5 -50t-43.5 -28h-4q-19 0 -104 10q0 -35 4 -109v-4q9 -1 36 -1.5t44 -2.5t37 -6t29 -14t7 -25q-4 -28 -39 -37q-1 0 -45.5 -2t-64.5 -2q20 -224 65 -377q38 -130 101 -127q41 3 67 23q55 46 75 148 t-1 200q7 24 23 22t31.5 -14t21.5 -24q29 -404 -256 -404q-132 0 -232 133q-98 132 -151 404q-16 -1 -31.5 -2t-32.5 -2q-19 -1 -41.5 -2t-36.5 -2t-22 -1h-14q-37 9 -37 37z" />
<glyph unicode="&#x2122;" horiz-adv-x="1146" d="M37 1479v2q0 26 266 26h47q6 -25 -16 -28q-58 0 -101 2q96 -458 66 -764q-13 -19 -41 -19q-37 0 -64.5 15t-31.5 39q14 6 14 137q-3 202 -10 454q-2 67 2 130q-18 2 -61.5 -4t-63.5 -5q-1 1 -6 15zM395 1507q3 21 39 21h10q40 -3 56 -31q16 -74 41 -326q6 -63 8 -67 q19 160 43 260q14 62 35 96q12 22 57 13q36 -6 47.5 -35t15.5 -89v-6t0.5 -5.5t0.5 -6.5q3 -45 12 -142.5t12 -139.5q10 -85 10 -86q7 3 19 98q28 197 92 336q25 61 70 96q26 23 59.5 -0.5t44.5 -48.5q6 -22 9 -58t3.5 -60.5t0 -77t-0.5 -66.5q-2 -82 -2 -246 q0 -117 17 -166v-8q0 -31 -52 -31h-6q-63 3 -75 53q-37 284 18 566q18 89 8 92q-29 6 -60.5 -59t-53.5 -158.5t-37 -176t-19 -124.5q-12 -49 -61 -43q-52 9 -60 34q-28 74 -28 242q0 8 0.5 42.5t1 66.5t0 66.5t-3 55.5t-7.5 21q-24 5 -61 -165t-37 -224q4 -34 13.5 -87.5 t13.5 -90.5q-6 -62 -68 -86q-61 -24 -69 16q-32 130 -35 297q-8 139 -8 289q0 133 -13 149z" />
<glyph unicode="&#x25fc;" horiz-adv-x="952" d="M0 0v952h952v-952h-952z" />
</font>
</defs>
</svg>
